<svg id="Calque_1" data-name="Calque 1" xmlns="http://www.w3.org/2000/svg" viewBox="0 0 762.89 71.94"><defs><style>.cls-1{fill:#d82727;}.cls-2{fill:#c4758b;}.cls-3{fill:#46c8f5;}.cls-4{fill:#3c5a9a;}</style></defs><title>bg_socialmedia2</title><path class="cls-1" d="M-292.22,33c.07,4.54-2.05,16.91,5.74,16.58,2.52-.11,4.6-1.95,6.29-3.61,1.87-1.84,3.53-4,5.27-6,1.11-1.26,3.71-5.5,5.27-6q1.64-2.58,2.14,2a29,29,0,0,1-1.8,2.64c-1.29,1.87-2.6,3.7-3.79,5.64-1.49,2.42-3.77,5.37-4.1,8.23-.24,2.19.74,4.3,3.12,4.69,1.16.19,1.92-.51,3-.59q2.37-2.06,2.9,2.5a22.51,22.51,0,0,1-1.11,3c-1.21,3,3.62,4.27,4.82,1.33,1.91-4.68,1.83-14.3-6-12.64-2,.42-2.16,1.5-.48-.36,1.41-1.56,2.33-4,3.5-5.82,2-3.11,5.4-6.38,5.61-10.32.29-5.46-5.19-8.9-9.66-5.52-3.93,3-7,7.7-10.28,11.37-1.57,1.78-3.93,5-5.33,1.76-.89-2.09-.1-6.68-.14-9,0-3.21-5-3.22-5,0Z" transform="translate(292.44 -3.86)"/><path class="cls-2" d="M-218.82,8.66c-1.6,3-1.12,6,.9,8.71,1.48,2,4,3.23,5.16,5.48,1.83,3.54.24,8-2.88,10.19a11,11,0,0,1-7.7,1.93c-5.25-.83-3.95-7.11,1-6.35,7.82,1.2,5.41,13.24,4.29,18-.73,3.13,4.09,4.47,4.82,1.33,1.9-8.11,3.17-20-6.59-23.77-6.64-2.55-15.53,4.52-11.43,11.58s15.47,4.55,20.22-.15a13.25,13.25,0,0,0,3.82-11.42,11.79,11.79,0,0,0-2-5.05c-1.46-2.08-6.84-5.08-5.3-8s-2.8-5.37-4.32-2.52Z" transform="translate(292.44 -3.86)"/><path class="cls-3" d="M468.22,35.8c-5.2-5.08-14.63-3.19-15.66,4.64a9.29,9.29,0,0,0,3.62,8.71,18.32,18.32,0,0,0,5,2.17c1.7.59,5,1.13,3.92,4.24-.83,2.34-4.49,2.11-6.23,1.53-4.88-1.63-15-18.8-21-11.33-2,2.47-1,6,.44,8.49,3.38,6,9.06,10.76,7.53,18.44-.63,3.14,4.19,4.49,4.82,1.33a18.57,18.57,0,0,0-1.06-11,35.14,35.14,0,0,0-3.39-6.2c-1-1.51-3.06-3.33-3.59-5.07-.62-2.05-.36-2,1.5-.77a18.06,18.06,0,0,1,2.56,2.59c1.57,1.59,3.11,3.24,4.82,4.7,2.81,2.4,6.13,4.51,10,4.44,5.42-.1,11-5.8,8.35-11.27-1.2-2.51-3.69-3.66-6.17-4.55-1.9-.68-4.47-1.06-5.6-3-2.64-4.43,3.41-7.75,6.66-4.57,2.3,2.25,5.84-1.28,3.54-3.54Z" transform="translate(292.44 -3.86)"/><path class="cls-3" d="M82.78,4.1A9,9,0,0,0,72,10.84c-1.39,6.49,5.32,9.82,9.81,12.8,2,1.31,6.91,2.95,1.83,5.61-1.34.7-4.35,0-6,.45a9.81,9.81,0,0,0-5.36,4.05c-3.22,5-.86,11.05,4.11,13.72,2.83,1.52,5.36-2.79,2.52-4.32-4.53-2.43-3.29-7.94,1.49-8.77,2.27-.39,4.62.09,6.85-.71,2.41-.87,4.74-3,4.91-5.71.21-3.15-2.38-5-4.69-6.56s-4.76-3.09-7.09-4.71c-1.74-1.2-4.05-2.66-3.28-5.07a3.68,3.68,0,0,1,4.36-2.72c3.13.73,4.47-4.09,1.33-4.82Z" transform="translate(292.44 -3.86)"/><path class="cls-4" d="M166.46,38c-4.17,6.32,1.86,11.74,4.6,17.14,1.43,2.81,2.68,7.33-.35,9.74-3.8,3-6.49-.9-8.31-3.34-2.31-3.09-4.33-6.44-6.83-9.37-3.2-3.75-9.41-7.51-13.47-2.6-1.56,1.89-1.75,4.31-1.47,6.66.33,2.76,3.94,9.27.28,11-2.91,1.38-.37,5.69,2.52,4.32,6.08-2.88,3.51-9.65,2.39-14.62q-1.63-3.73,3.55-3.79A15.64,15.64,0,0,1,152,55.71c1.8,2.11,3.31,4.56,4.93,6.81,1.91,2.64,3.82,5.73,6.76,7.35,5.46,3,11.69-.42,13.38-6.18a14.15,14.15,0,0,0-1-9.59c-1.56-3.54-8-9.5-5.31-13.57,1.78-2.69-2.55-5.2-4.32-2.52Z" transform="translate(292.44 -3.86)"/><path class="cls-3" d="M-146.48,30.75c-.87,1.65-1.28,3.65-2.21,5.24-1.54,2.65-4.27,4-7.14,2.16A40.34,40.34,0,0,1-159.64,35a46.23,46.23,0,0,0-13.66-8.34c-3.73-1.34-7.77-1.49-10.48,1.83a9.34,9.34,0,0,0-1.06,9.71c1.6,3.48,4.89,5.73,8.35,7.1,3.11,1.23,17.69,3.13,16.17,8.36-.43,1.5-5.69,3.15-7,3.92a15.64,15.64,0,0,0-4.38,3.49c-2.63,3.2-3.38,7.29-1.12,10.86,1.72,2.71,6,.21,4.32-2.52-4.9-7.74,15.68-8.94,13.18-18-2.56-9.26-15.37-7.77-21.8-11.94-2.9-1.88-6.84-8.85.77-8.58,2.43.09,6.09,2.66,8.07,3.92,4,2.53,7.27,6.59,11.57,8.6,3.1,1.44,6.76,1.56,9.5-.7s3.4-6.31,5-9.42c1.5-2.84-2.81-5.37-4.32-2.52Z" transform="translate(292.44 -3.86)"/><path class="cls-1" d="M314.37,33.33c-3,7,3.37,12.46,9.86,8.2,1.68-1.1,2.69-2.75,4.08-4.13,1.12-1.11,7.11-5.47,3.63.76a11.29,11.29,0,0,1-2.15,2.09c-3.43,3.25-7.47,6.71-9.44,11.12-1,2.15-1.41,5.07.58,6.8,2.94,2.55,6.4-.74,8.75-2.43a26.17,26.17,0,0,1,4-2.86c1.72-.74,1.18-1,.81.45-.44,1.72-1.91,3-2.21,4.91a6.29,6.29,0,0,0,4.9,7.45c3.13.73,4.47-4.09,1.33-4.82-2.08-.48,2.24-8.63,2-10.41a4.45,4.45,0,0,0-4.57-4.06c-3.48.05-8,4-10.38,6.15L324,53.71l.59.51a20,20,0,0,1,1.7-3,38.53,38.53,0,0,1,5.34-5.85c3.39-3.23,10.59-9.93,4.48-14.44-2.07-1.53-5-1.39-7.26-.38a11.36,11.36,0,0,0-3.54,2.73c-.7.73-1.28,1.56-2,2.3A6.3,6.3,0,0,1,322,36.88q-1.52,2-3.31-1c1.26-2.92-3-5.47-4.32-2.52Z" transform="translate(292.44 -3.86)"/><path class="cls-1" d="M11,30.4C6.73,41.71,20.37,47.1,29.19,44.3c4.94-1.56,10.66-4.93,12.87-9.86,1.67-3.73.63-7.9-3.54-9.17-4.37-1.33-8.84,1.47-11.45,4.79-3.91,5-4.13,11.18-5.41,17.13a20.5,20.5,0,0,1-4.94,10.05c-.66.71-7.92,7-8.54,3.67-.23-1.21,4.48-3.48,5.39-3.6,3.17-.44,4.83,2.2,6.52,4.1,2.7,3.06,5.38,6.15,8.07,9.22,2.12,2.43,5.65-1.12,3.54-3.54-3.77-4.32-7.77-10.8-12.78-13.7-4.1-2.37-8.81-.78-12.29,2C4,57.48,1.5,61.22,3.54,64.55c2.15,3.51,6.8,2.67,9.9,1.2a23.68,23.68,0,0,0,10.17-9.48c3-5.17,3.11-11,4.49-16.65.74-3,2-6.2,4.57-8.15s5.4-.85,3.78,2.43c-.65,1.32-2.47,2.47-3.68,3.25a17.72,17.72,0,0,1-10.52,3.13c-4.47-.33-8.1-4.06-6.39-8.54,1.15-3-3.68-4.31-4.82-1.33Z" transform="translate(292.44 -3.86)"/><path class="cls-2" d="M397.82,27.55c-3.06,1.22-5.33,4.18-8.51,5.09-2,.57-3.24.27-4-.51,4.21-.83,8.43-2.64,11-5.49a9.44,9.44,0,0,0,2.5-6.36c0-3.2-3.61-6.55-2.92-9.57a2.49,2.49,0,0,0-.05-1.34H391c-.79,3.47.86,5.27,1.92,8.38,1.89,5.56-3.54,8.47-8.65,9.48.06-.59.16-1.18.27-1.73a12,12,0,0,0,.28-3.51,9.23,9.23,0,0,0-10.14-8.34,8.64,8.64,0,0,0-7.48,9.84c.88,5.46,6.2,8.82,11.39,9.14l.53,0A7.15,7.15,0,0,0,380,34.3c4.38,6.23,11.84,3.06,16.78-.38.68-.47,2.94-2.27,3.59-2,1.37.54,0,2-.38,2.46-1.16,1.44-2.95,2.38-4.13,3.89a17.65,17.65,0,0,0-3.55,10.23c-.17,3.22,4.83,3.21,5,0,.27-5,2.84-7.43,6.22-10.59,1.66-1.55,3.1-3.38,3.12-5.76C406.71,27.07,401.73,26,397.82,27.55ZM372.61,24c-.63-2.33.58-5.62,3.45-5.45,3.72.23,3.85,3.9,3.51,6.39-.13.94-.32,1.82-.48,2.68C376.61,27.39,373.28,26.46,372.61,24Z" transform="translate(292.44 -3.86)"/></svg>