<?xml version="1.0" encoding="utf-8"?>
<!-- Generator: Adobe Illustrator 21.0.0, SVG Export Plug-In . SVG Version: 6.00 Build 0)  -->
<svg version="1.1"
	 id="svg2" inkscape:export-filename="C:\Users\julio\Desktop\sistemas\sistemas\desarrollo\cartonnet\arte\iconpack\run.png" inkscape:export-xdpi="15.75" inkscape:export-ydpi="15.75" inkscape:version="0.91 r" sodipodi:docname="run.svg" xmlns:cc="http://creativecommons.org/ns#" xmlns:dc="http://purl.org/dc/elements/1.1/" xmlns:inkscape="http://www.inkscape.org/namespaces/inkscape" xmlns:rdf="http://www.w3.org/1999/02/22-rdf-syntax-ns#" xmlns:sodipodi="http://sodipodi.sourceforge.net/DTD/sodipodi-0.dtd" xmlns:svg="http://www.w3.org/2000/svg"
	 xmlns="http://www.w3.org/2000/svg" xmlns:xlink="http://www.w3.org/1999/xlink" x="0px" y="0px" viewBox="0 0 60.3 60.6"
	 style="enable-background:new 0 0 60.3 60.6;" xml:space="preserve">
<style type="text/css">
	.st0{fill:#FF2E00;}
	.st1{opacity:0.2;clip-path:url(#SVGID_2_);}
	.st2{fill-opacity:0.1961;}
	.st3{fill:#FFFFFF;}
</style>
<g>
	
		<sodipodi:namedview  bordercolor="#666666" borderopacity="1.0" id="base" inkscape:current-layer="layer1" inkscape:cx="-37.364092" inkscape:cy="97.708818" inkscape:document-units="px" inkscape:pageopacity="0.0" inkscape:pageshadow="2" inkscape:zoom="0.6515625" pagecolor="#ffffff" showgrid="false" units="px">
		</sodipodi:namedview>
	<g id="g3360" transform="matrix(1.25,0,0,-1.25,374.2857,586.64787)">
	</g>
	<g id="g3376" transform="matrix(1.25,0,0,-1.25,374.2857,586.64787)">
	</g>
	<path id="path3515" inkscape:connector-curvature="0" class="st0" d="M59.2,30.3c0,16.1-13,29.1-29.1,29.1S1,46.4,1,30.3
		c0-16.1,13-29.1,29.1-29.1S59.2,14.2,59.2,30.3"/>
	<g id="g3519" transform="matrix(1.25,0,0,-1.25,0,1052.3622)">
	</g>
	<g id="g3535" transform="matrix(1.25,0,0,-1.25,0,1052.3622)">
	</g>
	<g id="g3541" transform="matrix(2.482547,0,0,-2.482547,-38.406599,1091.3213)">
		<g>
			<defs>
				<rect id="SVGID_1_" x="14.9" y="406.9" width="28.9" height="38.4"/>
			</defs>
			<clipPath id="SVGID_2_">
				<use xlink:href="#SVGID_1_"  style="overflow:visible;"/>
			</clipPath>
			<g id="g3543" class="st1">
				<g id="g3545" transform="translate(28,19.3813)">
				</g>
			</g>
		</g>
	</g>
	<path id="path4488" inkscape:connector-curvature="0" class="st2" d="M48,27.4l-27.5,20l8.6,12c0.3,0,0.6,0,1,0
		c12.4,0,23.1-7.8,27.2-18.8L48,27.4z"/>
	<path id="path3555" inkscape:connector-curvature="0" class="st3" d="M23.7,49.1c-0.6,0-1.2-0.2-1.8-0.5C20.7,48,20,46.8,20,45.5
		V14.4c0-1.3,0.7-2.5,1.8-3.1c1.1-0.6,2.5-0.6,3.6,0l21.7,15.6c1.1,0.6,1.8,1.8,1.8,3.1c0,1.3-0.7,2.5-1.8,3.1L25.5,48.7
		C24.9,49,24.3,49.1,23.7,49.1"/>
</g>
</svg>
