<svg xmlns="http://www.w3.org/2000/svg" viewBox="0 0 762.89 71.94">
  <path d="M-292.22 33c.07 4.54-2.05 16.91 5.74 16.58 2.52-.11 4.6-1.95 6.29-3.61 1.87-1.84 3.53-4 5.27-6 1.11-1.26 3.71-5.5 5.27-6q1.64-2.58 2.14 2a29 29 0 01-1.8 2.64c-1.29 1.87-2.6 3.7-3.79 5.64-1.49 2.42-3.77 5.37-4.1 8.23-.24 2.19.74 4.3 3.12 4.69 1.16.19 1.92-.51 3-.59q2.37-2.06 2.9 2.5a22.51 22.51 0 01-1.11 3c-1.21 3 3.62 4.27 4.82 1.33 1.91-4.68 1.83-14.3-6-12.64-2 .42-2.16 1.5-.48-.36 1.41-1.56 2.33-4 3.5-5.82 2-3.11 5.4-6.38 5.61-10.32.29-5.46-5.19-8.9-9.66-5.52-3.93 3-7 7.7-10.28 11.37-1.57 1.78-3.93 5-5.33 1.76-.89-2.09-.1-6.68-.14-9 0-3.21-5-3.22-5 0z" transform="translate(292.44 -3.86)" fill="#d82727"/>
  <path d="M-218.82 8.66c-1.6 3-1.12 6 .9 8.71 1.48 2 4 3.23 5.16 5.48 1.83 3.54.24 8-2.88 10.19a11 11 0 01-7.7 1.93c-5.25-.83-3.95-7.11 1-6.35 7.82 1.2 5.41 13.24 4.29 18-.73 3.13 4.09 4.47 4.82 1.33 1.9-8.11 3.17-20-6.59-23.77-6.64-2.55-15.53 4.52-11.43 11.58s15.47 4.55 20.22-.15a13.25 13.25 0 003.82-11.42 11.79 11.79 0 00-2-5.05c-1.46-2.08-6.84-5.08-5.3-8s-2.8-5.37-4.32-2.52z" transform="translate(292.44 -3.86)" fill="#c4758b"/>
  <path d="M-146.48 30.75c-.87 1.65-1.28 3.65-2.21 5.24-1.54 2.65-4.27 4-7.14 2.16a40.34 40.34 0 01-3.81-3.15 46.23 46.23 0 00-13.66-8.34c-3.73-1.34-7.77-1.49-10.48 1.83a9.34 9.34 0 00-1.06 9.71c1.6 3.48 4.89 5.73 8.35 7.1 3.11 1.23 17.69 3.13 16.17 8.36-.43 1.5-5.69 3.15-7 3.92a15.64 15.64 0 00-4.38 3.49c-2.63 3.2-3.38 7.29-1.12 10.86 1.72 2.71 6 .21 4.32-2.52-4.9-7.74 15.68-8.94 13.18-18-2.56-9.26-15.37-7.77-21.8-11.94-2.9-1.88-6.84-8.85.77-8.58 2.43.09 6.09 2.66 8.07 3.92 4 2.53 7.27 6.59 11.57 8.6 3.1 1.44 6.76 1.56 9.5-.7s3.4-6.31 5-9.42c1.5-2.84-2.81-5.37-4.32-2.52z" transform="translate(292.44 -3.86)" fill="#46c8f5"/>
</svg>
