    <svg viewBox="0 0 177 92" xmlns="http://www.w3.org/2000/svg" class="svg-main">
        <path id="svg_9" fill="#d82727"
            d="m15.849653,45.869669c6.46,7.54 18.06,8.08 24.59,0.29c1.9,-2.26 4.75,-7 2.79,-10.07s-5.39,-1.15 -7.21,0.94c-4,4.65 -6.57,10.67 -9.64,15.95a61.11,61.11 0 0 1 -5.32,7.93a18.74,18.74 0 0 1 -3,3.33c-5.47,3.83 -9.67,-3.06 -3.48,-5.47c3.36,-1.31 7.92,-0.63 11.48,-1a70.45,70.45 0 0 0 7.28,-1.21c6.06,-1.34 13.06,-3.39 18.12,-7.14c8.88,-6.57 4.51,-17.46 -0.16,-25.34c-1.19,-2 -3.1,-4.34 -5.74,-3.92c-3.61,0.57 -4.67,5.82 -3.6,8.82c3.62,10.11 18.42,8.29 26.41,6.48c3.92,-0.89 7.81,-2 11.83,-2.34c1.93,-0.15 6.5,-0.84 6.35,2.93c-0.06,1.44 -2.19,3.38 -2.9,4.45c-1.78,2.69 -3.21,6.73 0.31,8.84c4.14,2.48 9.74,-2.15 12.72,-4.48q1.59,-1.24 3.1,-2.59c1.25,-1.12 4.29,-5.27 5.86,-5.51c4.09,-0.61 1.7,5.12 0.81,6.15c-1.52,1.75 -4.47,3 -6.37,4.42c-3.4,2.51 -22,18.32 -9.75,21.13c1.78,0.41 2.53,-2.32 0.75,-2.73c-6.21,-1.43 7.88,-13.95 9.29,-15.06c3.17,-2.48 8.51,-4.59 10.07,-8.61s-0.74,-10.39 -5.75,-8c-1.74,0.83 -2.95,2.39 -4.3,3.7a57.41,57.41 0 0 1 -8.08,6.79a23.6,23.6 0 0 1 -2.58,1.59c-3.24,1.6 -4.78,-1.15 -3.71,-4c0.72,-1.94 2.68,-3.2 3.25,-5.32c2.3,-8.61 -10,-6.61 -14.71,-5.69c-5.37,1.06 -10.62,2.84 -16.13,3a19.1,19.1 0 0 1 -9.44,-1.82a9.5,9.5 0 0 1 -3.84,-3.21c-3.66,-6.93 1.85,-5.72 3.69,-3.57c2,2.32 4.27,8.33 4.85,11.13c1.91,9.24 -7.23,12.92 -14.37,15.32a65.79,65.79 0 0 1 -17.64,3.32c-3.9,0.19 -8.43,-0.07 -11.46,2.86c-3.64,3.51 -2.71,9 2.34,10.05c9.36,1.87 15,-11.56 18.67,-18.1c1.48,-2.67 2.95,-5.34 4.61,-7.91c0.42,-0.65 3.45,-5.7 4.89,-2.42c0.51,1.16 -2.81,5 -3.31,5.49c-5.77,5.76 -14.55,4.55 -19.61,-1.36c-1.19,-1.39 -3.19,0.63 -2,2l0.04,-0.04z" />

        <path id="svg_10" fill="#46c8f5"
            d="m161.589653,47.439669c-10.72,6.88 -10.25,24.5 3.77,27c4.21,0.75 11.6,-1.06 11.28,-6.63c-0.33,-5.82 -6.27,-4.76 -9.48,-2.15c-5.11,4.15 -3.47,10.2 0.83,14.27c2.15,2 4.44,6.75 0.41,8.26c-2.54,0.95 -6.32,-0.66 -8.44,-1.94c-4.52,-2.74 -7.89,-7.27 -10.82,-11.57a44.32,44.32 0 0 1 -6.47,-13.09c-1.11,-4.07 -0.65,-8.82 -3,-12.49c-3,-4.61 -9,-4.55 -11.86,0.24c-3.77,6.44 2.57,15.22 8.6,17.63a9.91,9.91 0 0 0 4.32,0.7c2.19,-0.1 4.86,-1.63 7,-1.19c6.9,1.43 0.4,9.5 -0.92,11.68l-5.16,8.43a1.42,1.42 0 0 0 2.45,1.43c2.71,-4.49 5.62,-8.9 8.14,-13.49c1,-1.89 2.24,-4 1.89,-6.22c-0.92,-5.75 -7.31,-4.51 -11.3,-3.81a9.65,9.65 0 0 1 -9.42,-3c-2.24,-2.29 -5.68,-7.38 -3.17,-10.68q7.59,-3.06 8.26,3q0.38,2.45 0.69,4.9a35.08,35.08 0 0 0 0.75,3.62c2,7.28 6.41,14 11.22,19.68c3.85,4.59 9.17,9.16 15.52,9.14c4.31,0 8.31,-3.46 7.24,-8.06c-0.79,-3.43 -4.3,-4.77 -6,-7.59q-2.33,-3.29 0.28,-7a11.5,11.5 0 0 1 3.62,-2.3q3.23,4.12 -1.35,5.15a7.63,7.63 0 0 1 -2.89,0.4c-12.65,-0.07 -13.55,-16.1 -4.5,-21.91c1.53,-1 0.11,-3.44 -1.43,-2.45l-0.06,0.04z" />
        <path id="svg_11" fill="#c4758b"
            d="m95.709653,18.909669c3.69,10.91 18.78,14.46 25.41,3.93c2,-3.16 1.86,-8.34 -3,-8.65c-4.33,-0.28 -6.7,6 -6.84,9.49c-0.18,4.48 2.48,10.61 7.51,11.19s7.72,-4.64 8.36,-8.75a46.51,46.51 0 0 0 0.4,-10.21a31,31 0 0 0 -0.75,-5.2c-0.22,-0.91 -2,-4.79 -1.34,-5.59c1,-1.17 3.94,1.81 4.19,2.21a10.72,10.72 0 0 1 1.08,2.57a18,18 0 0 1 0.56,5.54a51.74,51.74 0 0 1 -1.76,12.26c-1.67,6.1 -5.19,8.33 -9.85,12.09a19.6,19.6 0 0 0 -5.88,7.8a20.85,20.85 0 0 0 1,18.08c0.87,1.6 3.32,0.18 2.45,-1.43a18,18 0 0 1 2.3,-20.51c4.3,-4.67 9.35,-6.17 11.79,-12.49c2.85,-7.37 6.2,-24.28 -2.91,-28.93c-2.31,-1.18 -6.06,0 -6.39,3c-0.26,2.34 1.91,5.44 2.32,7.78a38.74,38.74 0 0 1 0,12.33c-0.45,2.84 -2.2,9 -7.37,5.64c-1.77,-1.15 -2.7,-4.1 -2.86,-6a9.6,9.6 0 0 1 1.28,-5.62c1.17,-2 4.55,-3 4.16,0.21c-0.48,4 -6.28,6.64 -9.73,6.84c-5.33,0.3 -9.71,-3.39 -11.36,-8.27c-0.58,-1.72 -3.32,-1 -2.73,0.75l-0.04,-0.06z" />

    </svg>