
    <svg class="svg-main" xmlns="http://www.w3.org/2000/svg" viewBox="0 0 220 100">
        <path
            d="M83.4458 26.0954a18.53 18.53 0 01-9.32 11.6 14.85 14.85 0 01-7.21 1.78c-1.88-.1-5.11-1.55-4.77-4.16.57-4.41 3.42-2.26 5.18-1.1 7.12 4.7 12.31 13.5 21.92 13.09a11.11 11.11 0 007.85-3.63c2.64-3 1.8-9.17 6.85-9 5.93.14 13.49 8.38 17.32.81 1.32-2.61 1.51-5.69 2.2-8.49.53-2.17 1.13-4.26 2.79-5.86s3.64-2.17 5-3.79a8.24 8.24 0 001.88-6.39c-.28-2.44-.49-10.52 3.55-7.49 1.56 1.17.06 4-.36 5.65-1 4.13-2.27 9.23-4.95 12.63-1.78 2.26-5.95 2.2-6.68 5.28-.52 2.19 1.36 4.79 2.17 6.67 1.57 3.67 1 7.36-2.69 9.47-4 2.27-8.4.83-12.54 0-5.84-1.23-13.71-3.77-14.08 5s13.65 4.56 17.17 9.28l.85-2.08c-5.82.91-25.59 3.79-22.49 13.59.55 1.73 3.29 1 2.73-.75-2.11-6.66 16.56-9.49 20.51-10.11a1.42 1.42 0 00.85-2.08c-2.2-2.94-4.91-3.54-8.46-3.94-3.07-.35-8.58 0-8-5 .39-3.58 4.48-2 6.86-1.64 5.44.71 11 3.09 16.46 1 3.48-1.34 6.42-4.36 6.75-8.2a10.18 10.18 0 00-.7-4.27c-.48-1.38-2.56-4-2.36-5.26.3-1.79 3.55-2.73 4.75-3.8a14.22 14.22 0 003-4.55 69.15 69.15 0 004.54-13.8c.81-3.25.13-5.13-3.38-6.29-2.64-.88-4.2.52-5.69 2.85a7.41 7.41 0 00-1.36 4.79c.06.94.54 1.79.67 2.72.47 3.43-1.16 4.84-3.61 6.85-2.93 2.42-4.5 3.92-5.59 7.69-.6 2.07-.85 4.22-1.38 6.3a10.45 10.45 0 01-.59 2.07c-1.43 2.81-4.15 1.79-6.6.76-3.7-1.56-7.51-3-11.57-2.08-5.66 1.3-2.73 4.6-5.18 8.76-4.93 8.4-15.55.87-20.33-3.43-3-2.66-7-7.61-11.42-7.7-3-.06-4.81 3.67-4.79 6.4 0 3.5 3.23 5.57 6.4 6.05 9.55 1.45 18.19-6.77 20.64-15.34a1.42 1.42 0 00-2.73-.75z"
            fill="#46c8f5" />
        <path
            d="M159.9058 45.3054a37.77 37.77 0 01-16.7 7.66c-1.69.31-12.65 2.39-9.33-4.26 2.25-4.51 6.74.78 7.86 2.49a22 22 0 012.71 7.17c1.73 7.33 3 17.55 12 19.37s22.68-11.6 28.44.35c1.2 2.5 2.14 5.72 5 6.81 3.48 1.34 7.4-1.22 9.93-3.36 7.54-6.36 6.58-14.94 9.08-23.56.55-1.9 3.67-9.95 7.35-5.4 1.52 1.88.41 7.55-.1 9.43-1.47 5.44-5.6 8-8.37 12.48s.49 9.24-2.08 13.56c-2.17 3.64-6.65 5-10.65 4.12-2.84-.61-5.4-3.19-8.33-3.16-.9 0-1.73.61-2.52.68-4.29.37-4.8-5.71-3.32-8.8 1.61-3.36 5.24-5.44 5.74-9.4 1-7.91-9.23-10.3-14.41-6.12-10.29 8.3-1.48 24.7-11.78 32.74-1.44 1.12.58 3.11 2 2 3.89-3 5.53-7.4 6.18-12.18.57-4.15.21-8.42 1.12-12.53 1-4.51 4.48-11 10.2-9.23 9.24 2.8-.47 10.38-2.17 14.62-1.44 3.6 0 10.56 3.83 12.36 1.64.77 2.1-.25 3.42-.46 3.56-.55 4.72.81 7.84 1.8a13.53 13.53 0 0012.42-1.8c3.66-2.85 4.52-6.6 4.11-11-.5-5.32 2-6.93 5.07-10.58a22 22 0 004-7c1.35-3.91 2.19-10.16 0-13.94-2-3.4-5.93-2.29-8.37 0-3 2.81-4 6.91-4.66 10.81-1.23 7.32-1.87 14.45-8.47 19.19-2.08 1.49-5 3.29-7.59.54a11.72 11.72 0 01-1.5-3c-.87-1.89-1.69-3.83-3.31-5.22-3.4-2.93-8.32-2.6-12.36-1.47-7.38 2.07-16 8-21.36-1-3.14-5.28-2.72-11.82-5.1-17.39-1.68-3.93-5.84-9.83-10.88-7.9-3.35 1.28-6.78 5.54-4.41 9 2.7 4 9.74 2.64 13.6 1.93a40.76 40.76 0 0018-8.38c1.43-1.13-.59-3.12-2-2z"
            fill="#3c5a9a" />
        <path
            d="M23.2258 51.1954c3.18 3.73 1.54 8.52-2.65 10.33-2.11.91-4.7.79-7 .89-3.48.15-7.28.16-10.23 2.28-5.44 3.9-3.74 12.06 1.47 15.35 3.16 2 7.25 2 10.73.94 5.93-1.84 9.41-7.67 15.75-8.17 7.81-.63 10.88-5.17 10.33-13-.1-1.4-2.15-15.24 1.18-14.65-.86-.15.09 5.53 1.1 6.59 1.31 1.38 3.51 2 4.9.51 2-2.09.43-7.45-.09-9.79-1.36-6.2-4.57-12.65-2.9-19.13.51-2 2.06-6.51 5.75-2.62 1.39 1.46 1.25 4.67 1.12 6.51-.21 3.07-1.3 6-2.06 8.95-1.71 6.64-1.61 18.5 8.15 18.57a8.43 8.43 0 004.89-1.84c.74-.5 4.11-3.56 4.26.41.06 1.61-3.35 3.34-4.42 3.65-4.88 1.4-10.17-.5-15 1.59a7.7 7.7 0 00-4.9 8.21c.61 4.75 4.64 7.54 8.7 9.32 1.65.73 3.1-1.72 1.43-2.45-3.2-1.4-7.75-3.92-7.39-8.18.42-4.92 5.92-5.18 9.46-5.2s7.78.37 11.09-1.63c3.63-2.19 6.4-9.67-.19-10.3-1.53-.15-2.77 1-4 1.73-1.48.85-1.65 1.83-4 1.87-2.8.06-4.79-2.4-5.74-4.61-2.53-5.85 1.53-12.67 2.31-18.55.6-4.49-2.14-17-9.12-11.85-7.52 5.58-2 18.71-.44 25.52.22.94 1.33 7.07.93 7.09-2 .1-1.2-3.18-1.36-4.59s-.28-3.13-2.14-3.26c-2.16-.15-4 3.44-4.61 5.11-1.2 3.56-.51 7.39-.05 11 .3 2.4.64 5.32-.17 7.66-1.48 4.32-4.64 4.07-8.62 4.58-4.89.64-7.32 4-11.27 6.46-3.47 2.18-8.52 3.54-12.25 1.09-3.24-2.13-4.94-7.25-1.78-10.21 3.53-3.32 10.12-1.77 14.5-2.57 7.65-1.39 11.6-9.32 6.23-15.63-1.18-1.39-3.18.62-2 2z"
            fill="#d82727" />
    </svg>