
    <svg class="svg-main" xmlns="http://www.w3.org/2000/svg" viewBox="0 0 231 89">
        <path
            d="M41.9643 29.8282a6.28 6.28 0 006.19 7c4.11.13 7.2-3.42 8.57-7 1.22-3.16 1.3-6.62 2-9.91a33.73 33.73 0 014.44-11.09c1.43-2.28 4.88-8.24 8.11-4.67 2.51 2.76-1.35 10.19-2.42 13.07a167.14 167.14 0 01-10 22.45c-4.24 7.68-10.83 9.18-18.9 10.44-12.67 2-27 3.39-35.68 14.12-4.16 5.15-8.22 19 3 17.9a17.2 17.2 0 0011.59-6.98c1.44-2 1.54-4.56 2.77-6.44 1.46-2.23 4-2 4 .78.05 4.79-5 6.83-8.75 4.9-3.45-1.8-6-4.83-9.51-1.05-2.53 2.69-2.63 7-1.12 10.19 4.4 9.3 16.74 5.71 21.7-1 4.27-5.75 3.79-12.77 6.9-18.88.46-.91 2.4-3.94 2.81-2.55.23.77-.79 2.72-1 3.5a12.54 12.54 0 00-.7 5.3c.86 5.85 10.42 17 17.15 15.36 1.77-.42 1-3.15-.75-2.73-3.52.84-8.78-5.17-10.66-7.5-1.44-1.78-3-4-3-6.35s1.25-4.59 1.72-6.81c.38-1.83.74-4.11-1.52-4.73-3-.82-5.76 3.57-6.73 5.69-2.31 5.05-2.27 10.78-5 15.72a14.68 14.68 0 01-7.59 7.08c-4.84 1.77-11.18-.13-11.45-6.07 0-1.08.1-2.81.82-3.63 3.63-4.09 4-.06 5.85.68s3.48 1.8 5.8 1.62a8.51 8.51 0 007.75-7c.37-2.12.16-6-2.24-6.91-3.81-1.47-6.48 1.95-7.46 4.89a14.64 14.64 0 01-5.71 7.87c-3.21 2.18-10.36 4.58-10.44-1.75-.09-7 6.81-13 12.37-16 11.75-6.35 25.91-3.79 37.75-9.31 4.55-2.12 7.07-5.81 9.35-10.15a184.89 184.89 0 008.63-19.16c1.67-4.29 5.95-12.07 3.78-16.82-1.23-2.69-4.8-4.86-7.63-3.46-4.31 2.13-7.51 9.12-9.12 13.3a45.75 45.75 0 00-2.26 9.42 34.94 34.94 0 01-.86 4.56 10.49 10.49 0 01-2.19 4.29q-3.38 4.22-7.48-2.13c.23-1.8-2.6-1.79-2.83 0z"
            fill="#d82727" />
        <path
            d="M112.7443 13.9682c1.4 1.54 4.19 3.72 5.1 5.61 1.72 3.55-2.65 4.21-5.39 4.68-6.62 1.13-11-1.37-16.55-4.27-5.3-2.76-12.56-.72-12.62 6.23-.06 7.23 8.09 9.09 13.77 9.55a58.13 58.13 0 0028.17-4.61c7.15-3.22 12.13-8.15 13.43-16 .49-3 .51-6.95 5.08-7.26 2.93-.2 5.85 2.36 7.06 4.8 3.36 6.74-2.11 13.16-7.3 16.78-2.8 2-5.88 3.73-7.9 6.58-2.17 3.06-2.69 6.13-7.71 5.81-2.74-.18-5.5-1.51-8.1-2.33-3.53-1.11-7.41-2.16-11.15-1.5-6 1.06-8.92 6.16-15.77 4.18-6.62-1.91-16.26-9.39-22.46-2.16-2.07 2.41-3.38 6.94-1.79 9.91 2 3.84 8.79 6 12.33 7.95 1.6.88 3-1.57 1.43-2.45-2.61-1.43-5.22-2.85-7.82-4.3-3.82-2.14-4.6-6.72-1-9.61 5-4 11.29.49 16.22 2.51 3.28 1.34 6.83 2.28 10.32 1.13a23.37 23.37 0 004.13-2.23 14 14 0 0110.73-1.81c5.71 1.19 15 7 20.1 1.34 1.55-1.73 2.09-4.05 3.66-5.82a28.85 28.85 0 015.51-4.32c3.06-2.1 6-4.34 7.94-7.58 3.46-5.76 3.17-13.59-2.66-17.75-4.08-2.91-10-2.68-12.42 2.14-2.26 4.5-1 9.13-4.49 13.33-3.24 3.9-8.18 6.15-12.88 7.72a56.89 56.89 0 01-15.49 2.83c-4.76.2-12.87.74-16.51-3.08l-1.59-3.81q1.51-6.27 6-4.26a15.09 15.09 0 015.1 2.26 23.14 23.14 0 0019 2.07c2-.64 6.39-2 6.36-4.75 0-1-1-1.93-1.58-2.67-1.91-2.39-4.18-4.59-6.24-6.86-1.23-1.35-3.23.66-2 2z"
            fill="#c4758b" />
        <path
            d="M185.8343 41.1582a7.61 7.61 0 01-7.74 4.11c-3.49-.46-5.27-3.14-6.86-5.92-2-3.41-3.67-7-7.36-8.81-5.93-3-10.85 2.2-11 8.06-.53 17.05 27.41 23 39.51 17.37 3.13-1.46 4.92-3.52 7.18-6s4-4.31 5.38-.24c.71 2.08.74 4.36 1.68 6.38 2.66 5.74 8.69 1.92 10.38-2.49 1.32-3.45 1.13-7.39 1.37-11 .22-3.3 2.77-7.57 6.7-5.59 3.43 1.72 3.34 7 2.79 10.19-1.8 10.25-8.94 20.86-19.95 22.17a16.36 16.36 0 01-10.24-1.87c-1.5-.88-5.1-3.31-2.44-5.77 1.64-1.51 5.21-.11 6.46 1.18 7 7.17-5.07 14-10.71 15.11-3.37.66-12.79 4.17-11.29 9.08a1.42 1.42 0 002.73-.75l-.06-.26c-.41-1.82-3-1-2.73.75a1 1 0 00.11.39l2.73-.75a1.93 1.93 0 00-1.08-1.19c-1.61-.85-3 1.6-1.43 2.45l-.22-.5c.64 1.68 3.36 1 2.73-.75a1 1 0 01-.11-.39l-2.73.75.06.26 2.73-.75c-.46-1.49 4.77-4.24 5.88-4.73 2.07-.9 4.33-.92 6.49-1.57 4.31-1.3 8.27-3.8 10.22-8 2.93-6.31-1-15-8.84-13.63-2.56.45-5.17 2.49-5 5.32.21 3.8 4.88 6.44 8 7.55 9.06 3.21 18.81-.88 24.59-8.12 4.87-6.11 9.93-17.36 5.94-25-3.09-5.92-12.2-5.87-13.81 1.11-1.08 4.66.44 10.18-2.07 14.51-2 3.52-4.93.59-5.44-2.26a14.77 14.77 0 00-.23-1.91c-.48-1.62-1.22-3.92-2.77-4.88a6 6 0 00-5.89.41c-2.43 1.73-3.21 5-5.85 6.88a19.44 19.44 0 01-10.91 3.1c-7.39.14-17.2-2.06-22.74-7.23-3.21-3-6.15-8.92-3.17-13 4.86-6.73 9.81 2.17 12 5.88s4.7 6.93 9.11 7.39a10.6 10.6 0 0010.39-5.57c.88-1.6-1.56-3-2.45-1.43z"
            fill="#46c8f5" />
    </svg>