<svg version="1.1" id="macchiato" xmlns="http://www.w3.org/2000/svg" x="0" y="0" viewBox="0 0 183 112" xml:space="preserve"><style>.st2{fill:#503b36}.st5{fill:#352624}</style><path d="M56.6 56.6l-2.8-.6V36.2l9.7 1.9c1.2.2 2.2.9 3 1.8.8.9 1.2 2.1 1.3 3.3V46c0 1.1-.4 2.1-1.2 2.7-.8.7-2 .9-3 .7l-7-1.4v8.6zm0-11.4l7 1.4c.6.2 1.2-.2 1.4-.8v-3.2c-.1-.8-.7-1.5-1.5-1.7l-7-1.4c0 2.3 0 3.5.1 5.7zm26.6 6c.1.2.1.4.1.6 0 3.9 0 5.8-.1 9.7l-2.8-.5v-5.6L72 53.9v5.6l-2.8-.5v-9.8c0-.2 0-.4.1-.6 1.7-3 2.5-4.5 4.2-7.6.2-.5.8-.7 1.3-.5l2.8.6c.6.1 1.1.5 1.3 1 1.8 3.6 2.6 5.5 4.3 9.1zM72 51.1l8.5 1.7v-1.1c-1.5-3.2-2.2-4.8-3.7-8.1l-1.1-.2c-1.5 2.6-2.3 4-3.7 6.6v1.1zm18.3 11.8c-1.2-.2-2.2-.9-3-1.8-.8-.9-1.2-2-1.2-3.1 0-4.4.1-6.6.1-11.1 0-1.1.4-2.1 1.3-2.7.9-.7 2-.9 3.1-.7l5.7 1.1c1.2.2 2.2.9 3 1.8.8.9 1.2 2 1.2 3.2V51l-2.9-.6V49c0-.8-.6-1.5-1.4-1.7l-5.7-1.1c-.6-.2-1.2.2-1.4.8v.3c0 4.5-.1 6.7-.1 11.1 0 .8.6 1.5 1.4 1.7l5.6 1.1c.6.2 1.2-.2 1.4-.8v-1.7l2.9.5v1.4c0 1.1-.5 2-1.3 2.7-.9.6-2 .9-3 .7l-5.7-1.1zm27.3-8.6c0 .3-.1.7-.4.9l-3.3 2.5c1.3 1.5 1.9 2.2 3.3 3.7.3.3.4.6.4 1v5.4l-2.9-.5v-4.9c-1.4-1.6-2.1-2.3-3.4-3.9l-5.1-1c0 3.3-.1 4.9-.1 8.2l-2.9-.5c.1-7.8.2-11.3.3-19.3l2.8.6c0 3.4-.1 5-.1 8.3l5.1 1c1.4-1 2.1-1.6 3.5-2.7v-5l2.8.5v5.7zm-65.2 6.4v-1.4c22.2 4.2 44.4 8.4 66.6 12.3V73c-22.2-3.9-44.4-8.1-66.6-12.3z" fill="#474747"/><path d="M177.4 46l-27.6 60.5c-11.6-.3-22.7-4.4-31.8-11.5l17.8-63.3L177.4 46z" fill="#d6c6ad"/><path class="st2" d="M170 62.4l-10.6 23.5c-16.4-2-26.1-6.6-35.6-12.9l6.6-24.2c11.7 9.3 38.7 16 39.6 13.6z"/><path d="M159.2 77.8c-.7-.2 1.2-6.8 4.6-14.5s7.3-13.3 7.9-13-2.1 6.5-5.5 14.1-6.3 13.6-7 13.4zm-8.6 16c-.6-.4.6-3.2 2.3-6.6s3.3-6 4-5.7.1 3.4-1.7 6.9-4 5.8-4.6 5.4z" fill="#fff"/><path d="M122.7 94c.3-.2 1.3.9 3.5 2 2.8 1.6 5.7 2.9 8.7 4.1 7 2.7 13.3 3.1 13.3 3.9 0 .3-1.6.7-4.2.6-6.9-.3-13.4-2.8-18.8-7.1-.9-.6-1.6-1.4-2.2-2.3-.4-.6-.4-1.1-.3-1.2zm1.9-7.2c.7.3.7 1.6.3 2.9-.2.9-.7 1.7-1.4 2.2l-.7-.1c.2-.1.5-.1.7.1l-.7-.1c-.6-.8-.8-1.9-.4-2.8.4-1.6 1.5-2.5 2.2-2.2z" fill="#c9ab8d"/><path class="st2" d="M177.1 41.6l1.6-3.9s1.3-2.3-7-6.7-23.9-9.3-29.5-8c0 0-.8-.2-3.1 5.1 0 0-8.3 2.3-4.8 6.5 8 9.8 23.8 14.8 33.1 16.2 3.5.6 7.2.1 10.4-1.3l.4-1c.6-1.7.5-3.5-.2-5.1l-.9-1.8z"/><path class="st5" d="M147.9 27.6c-1.2-.4-2.3-1-3.4-1.7-.2-.1-.4-.3-.3-.5s.3-.3.5-.3c.5-.1 1 0 1.3.3.1.1.2.3.3.4.2.1.4.3.6.3l2 .7c.1 0 .2.1.3.2.1.2 0 .4-.2.5-.2.1-.4.1-.6.1-.5-.1-1-.2-1.4-.4"/><path class="st5" d="M143 25.5c-.1 0-.2-.1-.3-.5 0-.5.3-1 .8-1.2.7-.3 1.4-.4 2.1-.3.7.1 1.5.1 2.4.2 4.6.6 9.2 1.6 13.6 3.1 4.5 1.5 8.7 3.6 12.6 6.2.7.5 1.4 1 2 1.5.8.5 1 1.5.7 2.3-.3.5-.9.7-1.5.5-.4-.2-.3-.5-.2-.5h.4c.2 0 .4-.2.4-.4v-.1c0-.1-.1-.1-.1-.2-.2-.2-.3-.3-.6-.4-.5-.3-1.3-.7-2-1.1-4-2.1-8.2-3.9-12.5-5.3-5-1.7-9.7-2.9-13.1-3.8l-2.4-.6c-.5-.2-1-.2-1.5-.2-.6.2-.7.8-.8.8z"/><path class="st5" d="M142.7 25.8c.2-.3 1.9.6 4.9 1.5s7.2 2.2 11.7 3.9c2.3.8 4.4 1.6 6.3 2.4s3.7 1.5 5.1 2c2.8 1.1 4.7 1.2 4.8 1.5 0 .2-.5.4-1.4.5-1.3.1-2.6 0-3.9-.3-1.8-.4-3.6-.9-5.4-1.6-2-.7-4.2-1.4-6.4-2.2-4.5-1.6-8.6-3.2-11.5-4.6s-4.4-2.8-4.2-3.1zm-1.9 3.1c.2-.3 2.2.5 5.3 1.8s7.5 3.1 12.4 5.1c4 1.7 8.3 3 12.6 3.9 3.3.6 5.4.6 5.5 1s-2.1 1-5.7.8c-4.6-.4-9.1-1.5-13.3-3.3-4.2-1.7-8.3-3.6-12.2-5.8-3.1-1.9-4.8-3.2-4.6-3.5zm-4.5 2.7c.2-.1.5.5 1.2 1.3 1.1 1.2 2.3 2.1 3.7 2.9 3.6 2.2 8.4 5.3 14.2 7.5 5 1.8 10.3 2.9 15.6 3.2 1.6.1 3.2.1 4.8.1 1.1-.1 1.7-.4 1.8-.3s-.3.8-1.5 1.2c-1.6.5-3.4.8-5.1.8-5.6.3-11.3-.6-16.5-2.6-2.9-1.1-5.7-2.5-8.3-4.1-2.1-1.3-4.1-2.8-6.1-4.3-1.4-1-2.6-2.3-3.5-3.9-.5-1-.5-1.7-.3-1.8z"/><path d="M175 42.5c.5-.5 1.7 0 2.2 1.2s.1 2.3-.6 2.4-1.4-.5-1.8-1.3c-.4-.7-.3-1.6.2-2.3zm-4.6-4.9c.2-.3.7-.3 1.2-.3s1.2.1 1.9.2 1.4.2 1.9.3 1 .3 1.1.6-.1.8-.7 1.2c-1.7 1-3.8.7-5.2-.7-.3-.6-.4-1.1-.2-1.3zm-13.7-11.1c.2-.7 4.8 0 9.7 2.6s8.1 6 7.6 6.5-4.1-1.8-8.9-4.2-8.6-4.2-8.4-4.9z" fill="#75635f"/><path d="M146.2 76.4c-1.4-.1-2.6-.8-3.4-2-.7-1.1-1.3-2.4-1.6-3.7l-.7-2.1c-.1-.3-.2-.7-.2-1 .1-.4.2-.7.4-1 .3-.5.7-.9 1.2-1.2 1.1-.5 2.4-.3 3.3.5.8.8 1.5 1.8 2 2.8l1 1.8c.3.6.6 1.2.7 1.8 0 .7-.1 1.5-.4 2.2-.2.6-.5 1.1-1 1.5-.5.4-1.2.4-1.7-.1" fill="#90452c"/><path d="M147.3 76.3c-.4.1-.8-.4-1.4-1.3-.9-1.1-1.6-2.3-2.2-3.6-1.5-3-2.2-5.6-1.6-5.9s2.4 1.8 3.9 4.8c.7 1.3 1.2 2.6 1.6 4 .2 1.1 0 1.9-.3 2z" fill="#723220"/><path d="M29.8 79.4c.1.2.2.3.2.3 0 .1.1.1.2.1.5 0 .9-.1 1.2-.3.3-.2.6-.3.9-.5.3-.2.7-.5 1.1-.9.5-.4.8-.7 1.1-.9.6-.5 1.2-1 1.7-1.6s1.1-1.2 1.7-1.7c.2-.2.3-.4.4-.6.1-.2.3-.3.5-.5.1-.2.3-.3.5-.4.2-.1.3-.2.4-.5 0-.1.1-.2.1-.2.1 0 .1 0 .2-.1l.2-.2c.1-.1.2-.1.2-.2s.2 0 .2 0c.1 0 .1.2.1.3 0-.2.1-.3.2-.4h.1s0 .1.1.2c.1-.1.1 0 .1 0 0 .1 0 .2-.1.4h.2c0 .1.1.1.2.2s.2.1.2.3c0 .1 0 .1-.1 0 0-.1 0-.1-.1 0v.6c0 .3 0 .5-.1.7-.1.2-.2.4-.4.6-.1.4-.3.7-.6 1-.3.3-.5.6-.7.8-.2.3-.5.6-.9 1l-.9.9-2.1 2c-.1.2-.3.3-.4.4-.2.1-.3.2-.5.3-.2.1-.3.3-.5.4-.2.1-.4.3-.6.5-.3.2-.6.4-.8.5-.2.1-.4.2-.7.3-.2.1-.5.2-.7.2-.3.1-.6.2-1 .4h-1.7c-.1 0-.3-.1-.5-.2-.1-.1-.3-.1-.5-.2l-.6-.3-.3-.3c.1.4 0 .2 0 .1-.1-.1-.2-.3-.2-.4-.1-.1-.1-.3-.2-.4-.2-.4-.3-.7-.3-1.1v-1.1c0-.2 0-.4.1-.6.1-.2.1-.4.2-.6.1-.4.2-.7.4-1.1.2-.3.3-.7.4-1 0-.1.1-.2.1-.3 0 0 .1-.1.1-.2.2-.5.5-1 .8-1.4.3-.5.6-.9.8-1.4.1-.2.3-.6.6-.9.3-.4.5-.7.7-.9.4-.5.5-.8.5-1 0-.2-.1-.3-.3-.3s-.5.1-.8.3l-.9.6c-.2.2-.5.4-.8.7s-.6.5-.7.7l-1 1c-.3.3-.6.7-.9 1.1-.2.1-.3.3-.5.5s-.3.4-.5.5c-.3.4-.7.8-1.1 1.2-.4.4-.7.8-1 1.2-.2.3-.3.5-.5.6-.2.2-.3.4-.5.7l-.2.2-.3.3-.3.3c0 .1-.1.1-.1.1-.1 0-.3.1-.4.1-.1 0-.3.1-.4.1-.4.1-.7 0-.9-.2-.2-.2-.3-.3-.4-.3-.1 0-.2-.2-.3-.4-.1-.2-.2-.5-.2-.8s0-.5.1-.8c.1-.3.3-.6.5-.9.2-.3.4-.6.5-.9 0-.1 0-.1.1-.2 0-.1.1-.1.1-.2.2-.3.4-.7.7-1.1.2-.4.5-.8.7-1.2.2-.4.4-.8.7-1.2L22 70c.1-.1.1-.3.2-.3s.1-.1.1-.2c0 0 .1-.1.1-.2s.1-.2.1-.3c.2-.5.3-1 .3-1.3 0-.4-.3-.4-.9-.1-.6.3-1 .6-1.4.9-.3.3-.7.7-1.2 1.1-.2.3-.4.5-.7.8l-.8.8c-.2.2-.4.5-.6.7-.2.2-.3.5-.6.7l-1.8 2.7c-.6.9-1.1 1.8-1.7 2.7-.1.3-.3.5-.4.6l-.5.5c-.1.1-.1.2-.1.2l-.2-.1s-.1.1-.2.1c-.1.1-.3.1-.4 0-.1 0-.2 0-.3.1-.1-.1-.2-.1-.2-.1h-.2c-.1-.1-.3-.2-.4-.3-.1-.1-.3-.2-.5-.3-.1-.2-.1-.4-.1-.6v-.6c0-.3 0-.5.1-.7l.3-.6c.1-.2.2-.3.3-.5.1-.1.3-.3.4-.5.4-.7.8-1.4 1.2-2s.7-1.2 1-1.7l.6-.9c.2-.4.3-.7.5-1 .3-.6.5-1 .6-1.3.1-.3.3-.6.6-1 .3-.5.6-1 .8-1.5.2-.5.5-1.1.8-1.6 0-.1.1-.1.1-.2.1-.1.1-.1.1-.2.1-.1.1-.2.2-.3 0-.1.1-.2.2-.3l.3-.6c.1-.2.3-.3.4-.4.1-.1.2-.3.3-.4.1-.1.2-.3.3-.4l.2-.2c.1-.1.2-.1.2-.1h.2c.1 0 .2 0 .3-.1.2-.1.5-.1.9 0s.6.4.7.7c0 .1.1.2.2.2.1.1.1.2.1.3.1.2.1.3.1.5 0 .1 0 .2-.1.3 0 .1-.1.2-.2.3-.1.1-.1.2-.2.4 0 .1-.1.2-.3.4-.2.2-.3.4-.3.4v.1c-.1.2-.3.3-.3.4-.1.1-.2.2-.2.3-.1.1-.1.1 0 .1.2-.1.4-.3.7-.5.3-.2.5-.3.8-.5.2-.1.5-.3.6-.4.2-.1.3-.2.4-.2.3-.2.6-.3.7-.3.1 0 .3-.1.5-.1.8-.1 1.4 0 1.8.3.4.3.7.8.8 1.6 0 .5 0 1-.2 1.5s-.5 1.1-.8 1.9c0 0 .1-.1.3-.2.1-.1.3-.3.5-.4s.3-.3.5-.4l.2-.2.4-.4.4-.4c.3-.3.7-.5 1.1-.7l1.2-.6c.3-.1.6-.2.8-.3.2-.1.5-.2.8-.3h.7c.2 0 .5 0 .7.1.2 0 .4 0 .8.1.3.1.6.2.7.4l.3.3c.1.1.2.2.2.3.1.1.3.4.4.8s.2.9 0 1.4c-.1.5-.3 1-.7 1.5-.3.5-.7 1-1.1 1.7-.3.4-.5.8-.7 1.2-.2.4-.5.8-.7 1.2-.3.5-.6 1.1-1 1.8s-.8 1.7-1.1 2.4c-.1.1-.1.4-.1.6 0 .3 0 .6-.1.8z"/><path d="M50.6 68.4c.2-.3.4-.4.6-.4.2 0 .5-.1.7-.1h.4s.1.1.3.1c.1 0 .1.1.1.3 0 .1 0 .1.1.1s.1-.1.2 0c0 .1 0 .2.1.1.1 0 .1 0 .1.1 0 .2.1.4.2.5s0 .3-.1.5c0 .1-.1.3-.3.4 0 .2-.1.4-.3.6-.1.2-.3.5-.4.7-.2.2-.3.4-.5.6-.2.2-.3.4-.4.5-.4.5-.7.9-1.1 1.4-.4.5-.7.9-1 1.4-.4.7-.8 1.2-1.1 1.7-.3.5-.7 1.1-1.2 1.9-.2.5-.4.9-.6 1.3-.2.4-.3 1-.4 1.7-.1.4 0 .6.3.8.1.1.3.1.4.1.1 0 .3 0 .4-.1.3 0 .6-.2 1-.4s.8-.5 1.1-.8c.3-.2.7-.6 1.2-1.1s1-1 1.5-1.6c.5-.5.9-1 1.3-1.5s.7-.8.9-1c.1-.1.2-.2.3-.4.2-.1.3-.2.4-.3 0 0 .1-.1 0-.2 0-.1 0-.1.1-.1.1-.1.2-.1.3-.2s.2-.2.2-.3c.1-.1.2-.1.4-.2s.4-.1.5-.1c.1 0 .1 0 .1.1 0 0 .1 0 .1-.1.1 0 .2-.1.1-.2 0-.1 0-.1.1-.2 0 0 .1-.1.1 0h.1c0 .1-.1.1-.1.1v.1s.1 0 .1-.1 0-.1.1-.1v.1s0 .1.1.1c.1-.1.1-.1.1 0l.2-.1v.1l.1-.1v.4c0 .1 0 .2.1.4l.1-.1-.2.7s.1 0 .1-.1c0 0 .1-.1.2-.1 0 0 0 .1-.1.1s0 .1 0 .1c-.1.2-.2.3-.3.5-.1.2-.2.4-.3.5-.1.2-.4.6-.9 1.1-.4.5-.9 1-1.4 1.5-.5.5-1 1-1.4 1.5s-.8.8-1 1c-.4.4-.7.8-1.1 1.1-.4.4-.8.7-1.2.9l-.1.1s-.1 0-.1.1c-.5.4-1 .7-1.6 1-.6.3-1.3.5-1.9.6-.3.6-.9.6-1.4.4s-1-.4-1.4-.9c-.2-.3-.4-.6-.4-1-.2-.3-.2-.6-.2-.9 0-.3.1-.6.1-1 0-.2.1-.3.1-.5 0-.1.1-.3.2-.6l-.3.3c-.1.1-.2.1-.3.1-.4.4-.9.7-1.3 1.1-.5.3-.9.6-1.3.9-.1.1-.2.2-.3.2-.1.1-.2.1-.3.2-.3.2-.7.4-1.1.5s-.7.2-1 .3c-1.1.2-1.9.1-2.5-.3-.6-.3-1-.9-1.2-1.6-.1-.4-.1-.8-.1-1.1 0-.3 0-.7.1-1.1.1-.1.1-.2.1-.3s.1-.3.2-.4c.2-.4.3-.8.4-1.2s.3-.7.5-1c0-.1.1-.2.3-.3.1-.1.2-.2.2-.4.1-.3.3-.5.4-.7.2-.2.3-.4.4-.7.4-.6.8-1.1 1.3-1.6l1.4-1.4c0-.1.1-.2.3-.3.1-.1.3-.2.4-.4l.4-.4.3-.3c.5-.4 1-.9 1.6-1.3.5-.4 1.1-.8 1.7-1.2.6-.4 1.2-.6 1.8-.9.6-.2 1.2-.4 1.9-.4.1 0 .2 0 .2-.1h.3c.5.1.9.2 1.2.3s.5.3.6.4c.1.2.2.3.3.5.1.2.1.4.2.7l.4-.6zm-3 2.2H47.3c-.1.1-.2.1-.3.1-.1 0-.2.1-.3.1-.1 0-.2.1-.3.1-.1 0-.1 0-.2.1s-.2.1-.2.2h-.2s0 .1-.1.1c-.3.1-.5.2-.7.3-.1.1-.4.3-.7.5-.5.4-1.1.9-1.8 1.5-.6.6-1.2 1.2-1.8 1.7-.2.2-.3.3-.3.4-.1.1-.1.2-.2.3-.1.1-.1.2-.2.3l-.3.3c-.5.5-1 1.1-1.3 1.8-.4.6-.5 1.1-.5 1.6s.2.7.7.7c.4 0 1.2-.4 2.2-1.2.3-.3.6-.5.8-.6.3-.2.5-.4.8-.7.4-.4.8-.7 1.2-1.1.4-.4.8-.8 1.3-1.4.7-.6 1.2-1.2 1.7-1.9 0-.1.1-.2.1-.2s0-.1.1-.1c0-.2.1-.3.2-.3.1-.1.2-.2.2-.3.1-.1.2-.3.3-.4.1-.1.2-.2.2-.3l.3-.5c0-.3 0-.5-.1-.8 0-.2-.1-.4-.3-.3zm10.2 3.9s.1 0 0 0z"/><path d="M63.8 72.9c-.1-.1-.2-.1-.3-.1 0 0-.1 0-.1.1-.3.1-.6.2-.8.3-.3.1-.5.2-.6.4-.2 0-.3.1-.5.2s-.3.2-.5.3l-1.9 1.6c-.2.1-.3.3-.5.5s-.3.4-.6.6c-.2.3-.4.5-.5.8-.2.3-.4.5-.5.8-1 1.5-1.6 2.9-1.6 4.2 0 0 0 .1-.1.2v.2c.1.3.1.6.2.8 0 .2.2.4.5.6.3.1.6.2.9.2.3 0 .7 0 1.2-.1s.9-.2 1.1-.3.6-.2 1.1-.4c.3-.1.6-.3 1-.5s.9-.4 1.3-.7.9-.5 1.3-.7c.4-.2.7-.5 1-.6.2-.1.5-.3.9-.6s.7-.5 1.1-.8c.4-.3.7-.5 1.1-.8.3-.3.6-.5.8-.7.1-.1.2-.2.4-.3s.2-.2.3-.4c.3-.2.4-.4.6-.4.1-.1.3-.2.4-.4l.2-.2c0-.1.1-.1.3-.1v.2c-.1 0-.2.1-.2.1v.2h.2c.1-.1.1-.1.1 0s.1.1.2 0h.2l.1-.1v.4c0 .1 0 .3-.1.4v.1h.1v.3h.3c0 .1 0 .2-.1.3 0 .1-.1.3-.1.4-.2.2-.4.5-.5.9 0 .1 0 .3-.1.4 0 .1-.1.2-.1.3-.5.4-1.1 1-1.8 1.7S67.8 83.5 67 84c-.1.1-.3.2-.4.2-.1.1-.2.1-.4.2-.3.2-.6.5-1 .7-.4.3-.8.5-1.3.7s-.9.2-1.4.4c-.4.2-.8.3-1 .5-.3.1-.6.3-.9.4-.3.2-.6.3-.9.3-.4.2-.9.3-1.5.4-.6.1-1.2.1-1.9 0-.6-.1-1.3-.2-1.8-.4-.6-.2-1.1-.4-1.4-.7-.4-.3-.6-.7-.8-1-.2-.3-.3-.6-.4-1-.1-.3-.1-.7-.1-1.1 0-.4 0-.8.1-1.4.2-.9.4-1.8.7-2.5.3-.8.6-1.6 1.2-2.6.3-.3.5-.7.7-1 .2-.3.4-.6.7-.9.4-.5.8-.9 1.2-1.4s.8-.9 1.3-1.3c.4-.3.7-.6 1.1-.9.3-.3.7-.6 1.1-.9.2-.1.4-.3.6-.5.2-.2.4-.3.7-.4.3-.2.6-.3.9-.5.3-.1.6-.3.9-.4.4-.2.9-.3 1.5-.3s1.1 0 1.5.1c.1 0 .2.1.3.1l.1.1c.2 0 .4.1.6.3.2.2.4.6.5 1 .1.4.2.9.2 1.4 0 .6-.1 1.1-.3 1.8-.1.4-.3.7-.5 1-.2.3-.4.6-.6 1-.2.2-.3.4-.4.5-.1.1-.1.2-.2.3s-.2.2-.2.3c-.1.1-.2.3-.3.5-.1.1-.2.2-.3.2-.1.1-.2.1-.3.2l-.8.9c-.2.2-.4.4-.8.4-.1 0-.1.1-.1.1 0 .1-.1.1-.1.2h-1.2c-.2 0-.4-.2-.4-.4 0-.1-.1-.1-.1-.1s-.1 0-.1-.1c0-.2-.1-.4-.1-.6 0-.2 0-.5.1-.8 0-.1 0-.2.1-.2.1-.1.1-.1.1-.2.1-.1.2-.3.4-.6s.4-.4.6-.5c.1 0 .1-.1.2-.1l.2-.2.1-.1v.2l.1-.1c.3-.3.4-.5.5-.6.1-.1.2-.3.5-.6.1-.1.2-.3.3-.4.1-.1.2-.3.3-.4.1 0 .1-.1.1-.2-.7 0-.7 0-.7-.1z"/><path d="M77.8 75.5c-.1-.1-.2-.1-.3-.1s-.1 0-.1.1c-.3.1-.6.2-.8.3-.3.1-.5.2-.6.4-.2 0-.3.1-.5.2s-.3.2-.5.3l-1.9 1.6c-.2.1-.3.3-.5.5s-.3.4-.6.6c-.2.3-.4.5-.5.8-.2.3-.4.5-.5.8-1 1.5-1.6 2.9-1.6 4.2 0 0 0 .1-.1.2v.2c.1.3.1.6.2.8 0 .2.2.4.5.6.3.1.6.2.9.2.3 0 .7 0 1.2-.1s.9-.2 1.1-.3.6-.2 1.1-.4c.3-.1.6-.3 1-.5s.9-.4 1.3-.7.9-.5 1.3-.7c.4-.2.7-.5 1-.6.2-.1.5-.3.9-.6s.7-.5 1.1-.8c.4-.3.7-.5 1.1-.8s.6-.5.8-.7c.1-.1.2-.2.4-.3.1-.1.2-.2.3-.4.3-.2.4-.4.6-.4.1-.1.3-.2.4-.4l.2-.2c0-.1.1-.1.3-.1v.2c-.1 0-.2.1-.2.1v.2h.2c.1-.1.1-.1.1 0s.1.1.2 0h.2l.1-.1v.4c0 .1 0 .3-.1.4v.1c0 .1.1 0 .1 0v.3h.3c0 .1 0 .2-.1.3 0 .1-.1.3-.1.4-.2.2-.4.5-.5.9 0 .1 0 .3-.1.4 0 .1-.1.2-.1.3-.5.4-1.1 1-1.8 1.7s-1.4 1.3-2.2 1.8c-.1.1-.3.2-.4.2s-.2.2-.4.2c-.3.2-.6.5-1 .7-.4.3-.9.5-1.3.7-.5.2-.9.4-1.3.6s-.8.3-1 .5c-.3.1-.6.3-.9.4-.3.2-.6.3-.9.3-.4.2-.9.3-1.5.4-.6.1-1.2.1-1.9 0-.6-.1-1.3-.2-1.8-.4-.6-.2-1.1-.4-1.4-.7-.4-.3-.6-.7-.8-1-.2-.3-.3-.6-.4-1s-.1-.7-.1-1.1c0-.4 0-.8.1-1.4.2-.9.4-1.8.7-2.5.3-.8.6-1.6 1.2-2.6.3-.3.5-.7.7-1 .2-.3.4-.6.7-.9.4-.5.8-.9 1.2-1.4.4-.5.8-.9 1.3-1.3.4-.3.7-.6 1.1-.9.3-.3.7-.6 1.1-.9.2-.1.4-.3.6-.5.2-.2.4-.3.6-.4.3-.2.6-.3.9-.5.3-.1.6-.3.9-.4.4-.2.9-.3 1.5-.3s1.1 0 1.5.1c.1 0 .2.1.3.1l.1.1c.2 0 .4.1.6.3.2.2.4.6.5 1 .1.4.2.9.2 1.4 0 .6-.1 1.1-.3 1.8-.1.4-.3.7-.5 1-.2.3-.4.6-.6 1-.2.2-.3.4-.4.5-.1.1-.1.2-.2.3-.1.1-.2.2-.2.3-.1.1-.2.3-.3.5-.1.1-.2.2-.3.2-.1.1-.2.1-.3.2l-.8.9c-.2.2-.4.4-.8.4-.1 0-.1.1-.1.1 0 .1-.1.1-.1.2h-1.2c-.2 0-.4-.2-.4-.4 0-.1-.1-.1-.1-.1s-.1 0-.1-.1c0-.2-.1-.4-.1-.6 0-.2 0-.5.1-.8 0-.1 0-.2.1-.2.1-.1.1-.1.1-.2.1-.1.2-.3.4-.6s.4-.4.6-.5c.1 0 .1-.1.2-.1.1-.1.1-.2.2-.2l.1-.1v.2l.1-.1c.3-.3.4-.5.5-.6.1-.1.2-.3.5-.6.1-.1.2-.3.3-.4.1-.1.2-.3.3-.4.1 0 .1-.1.1-.2s-.7-.3-.7-.3z"/><path d="M90.1 80.8c-.1.1-.3.2-.6.4-.2.2-.5.4-.8.6-.3.2-.5.5-.8.7s-.4.4-.6.5c-1 .9-1.9 1.7-2.5 2.6-.2.2-.4.4-.5.7-.1.2-.2.4-.4.6-.1.2-.2.3-.2.3s-.1.1-.2.3l-.3.3c-.1.1-.1.2-.2.3 0 .1-.1.2-.1.3s-.1.3-.2.4c-.2.2-.4.4-.6.7-.2.3-.3.5-.4.8-.1.2-.2.4-.3.5-.1.1-.2.3-.3.6-.1.2-.2.3-.2.3s-.1 0-.3.1c-.2.1-.3.2-.3.3s-.1.2-.3.2c-.5.1-.9.1-1.3 0s-.8-.3-1-.7c-.1-.1-.1-.2-.2-.3-.1-.1-.1-.2-.2-.3 0-.1-.1-.2-.1-.4v-.3c.1-.1.1-.3.1-.5 0-.1 0-.1.1-.2s.1-.2.2-.3c.1-.3.2-.5.3-.8.1-.3.3-.5.4-.8l.9-1.5c.3-.5.6-1 .9-1.6.4-.7.7-1.2 1-1.7.3-.5.5-.9.8-1.3.2-.4.5-.9.7-1.3.3-.5.6-1 1-1.6l1.3-2.2 1.3-2.3c.4-.7.7-1.2 1.1-1.7s.6-.9.9-1.4l.6-1c.1-.2.2-.4.3-.5.1-.1.2-.2.2-.3.2-.3.3-.5.4-.7.1-.2.2-.4.3-.7.1-.1.2-.3.3-.5.1-.2.3-.3.4-.4.1-.1.3-.1.4-.2.2 0 .3-.1.4-.1s.4 0 .7.1c.3.1.5.1.7.2.2.1.4.2.5.4l.3.6.2.5c0 .1.1.2.1.3v.5c0 .2-.1.3-.2.5l-.4.7c-.1.1-.2.2-.2.4-.1.1-.2.2-.2.3l-.7 1.1c-.2.3-.4.6-.5.9s-.4.6-.5.9c-.1.2-.2.3-.3.4-.1 0-.2.2-.3.4-.2.3-.4.7-.6 1-.2.3-.4.6-.6.8-.4.7-.8 1.3-1.1 1.7-.3.5-.5.7-.5.7-.1.1-.2.3-.2.4l-.2.4s.1 0 .2-.1.2-.1.3-.2c.1-.1.2-.2.3-.2.1-.1.1-.1.2-.1.3-.3.6-.5 1-.8.4-.3.7-.6 1.1-.8.4-.2.7-.5 1-.7.3-.2.6-.3.8-.4.6-.2.9-.3 1-.4.1 0 .3-.1.5-.1h.5c.1 0 .3 0 .6.1.2.1.4.2.8.3.3.1.5.3.6.4.2.3.4.6.6 1 .2.3.2.7.2 1.1l-.1.5c-.2.7-.5 1.2-.8 1.7-.4.5-.7.9-1 1.3-.3.4-.6.7-.9 1-.2.3-.5.6-.7.9l-1.8 2.4c-.5.8-1.1 1.8-1.7 3-.1.1-.1.3-.2.5v.4c0 .1.1.2.2.3.1.1.4 0 .7-.1.2 0 .4-.2.7-.4.3-.2.7-.4 1-.7s.7-.5.9-.7c.3-.2.5-.4.7-.5l2.3-2 .7-.7.9-.9.9-.9c.3-.3.5-.5.7-.8.2-.2.4-.4.5-.4s.3-.1.6-.2c0 .1-.1.2-.2.3-.1.1-.1.2-.2.3h.3l.1-.1s.1-.1.2-.1c.1-.1.1-.1.3-.1.1.1.1.1 0 .2s-.1.1 0 .2c.1 0 .2.1.2.1h.3c0 .1.1.2.1.3l.2.2v.2s.1.1.1.2 0 .2-.1.3-.2.1-.3.1c0 .1-.1.2 0 .3v.5c0 .1-.1.1-.1.2-.1.2-.3.4-.5.6l-.7.7-.7.7-.5.5c-.1.1-.1.2-.2.2l-.2.2c-.3.4-.7.7-1 1s-.7.6-1 .9l-1.5 1.2c-.5.4-1 .8-1.5 1.1-.1 0-.2.1-.3.1-.1.1-.1.2-.2.3-.1 0-.2.1-.3.1-.1 0-.2 0-.2.1-.1.1-.1.1-.2.1-.3.2-.6.3-.8.4s-.6.2-.9.4c-.1.1-.3.1-.5.1h-1.4c-.2 0-.4 0-.5-.1-.3-.1-.6-.1-.9-.2-.3-.1-.5-.2-.7-.4l-.1-.8c-.3-.3-.4-.6-.5-.9V91c0-.3 0-.6.1-.9.1-.3.1-.6.2-.8.2-.5.4-1.1.7-1.6s.5-1 .9-1.6c.6-1 1.1-1.9 1.7-2.6.6-.7 1.2-1.5 1.9-2.2.3-.3.5-.6.7-.9.2-.3.3-.6.2-.7-.1-.2-.3-.2-.7 0-.4 0-1.1.4-2 1.1z"/><path d="M103.3 80c.1 0 .2.1.3.2.1.1.2.1.3.2.1 0 .2.1.2.2s.1.3.1.4c.1.1.1.3.2.4 0 .2 0 .4-.1.6-.1.2-.2.4-.2.6-.4.9-.8 1.7-1.4 2.4-.5.8-1.1 1.5-1.7 2.2-.6.7-1.1 1.4-1.6 2.1-.5.7-.9 1.4-1.1 2.1-.1.2-.1.4 0 .6.1.2.3.2.6.2.2-.1.4-.1.4-.2 0 0 .2-.1.4-.1.5-.2 1.2-.6 1.8-1s1.3-.9 1.8-1.2c.2-.1.5-.4.9-.7.4-.3.8-.7 1.2-1.1s.8-.8 1.2-1.1.7-.6.9-.8l.3-.3.4-.4c.2-.1.3-.1.3-.2s0-.2.1-.3h.1c.1 0 .1-.1.1-.1-.1 0-.1 0-.1-.1l.2-.2c.1 0 .2-.1.4-.3.2-.1.3-.2.4-.2.1 0 .2 0 .2.1s.1.1.1.2c.1-.1.2-.1.2 0s.1.2.3.3l.3-.3v.1l-.3.5v.3c.1 0 .2-.1.2-.1s.1-.1.2-.1c0 .1-.1.2-.1.2s-.1.1-.1.2v.3c-.1.1-.2.3-.2.4-.1.1-.2.3-.2.4-.1.1-.3.3-.5.6s-.5.5-.7.8c-.3.3-.5.6-.7.8-.2.3-.4.5-.5.6l-.5.5-.7.7-.7.7c-.2.2-.4.4-.6.5-.4.3-.7.5-.9.7-.2.1-.3.3-.4.4-.1.1-.2.2-.4.3-.1.1-.4.3-.7.5-.5.3-1 .6-1.6.8-.6.3-1.1.5-1.7.7-.6.2-1.1.3-1.7.4-.6.1-1.2 0-1.7-.1-.9-.2-1.5-.6-1.8-1.1-.3-.5-.4-1.2-.4-1.8.1-.7.2-1.4.5-2.1.3-.7.6-1.3.8-1.8.2-.3.3-.5.3-.6s.1-.1.1-.2l.1-.1s.1-.2.3-.4l.3-.6c.1-.2.2-.4.3-.5.1-.2.2-.3.3-.3 0-.1.1-.1.1-.2s.1-.1.1-.2c.1-.1.2-.3.4-.5l.9-1.3c.5-.8 1-1.5 1.3-1.9.4-.4.7-.8 1.1-1.2l.3-.3c.1-.1.2-.1.3-.2l.2-.2c.1 0 .2-.1.2-.1h.2c.2 0 .3.1.4.1.4.2.5.2.7.2zm1.4-.3c-.2 0-.4 0-.5-.1-.1 0-.3-.1-.4-.3-.2-.1-.3-.2-.5-.4-.1-.2-.2-.4-.2-.6v-1c0-.2.1-.3.3-.5l.3-.3c.1-.1.3-.2.5-.3h1.1c.3 0 .6 0 .9.1.4.2.7.5.8 1 .1.5.1.9 0 1.2 0 0-.1.1-.1.2s-.1.1-.1.2c-.1.2-.2.3-.4.5l-.6.3c-.2 0-.4.1-.7.1 0 0-.2-.1-.4-.1z"/><path d="M119.6 81.2c.2-.3.4-.4.6-.4.2 0 .5-.1.7-.1h.4s.1.1.3.1c.1 0 .1.1.1.3 0 .1 0 .1.1.1s.1-.1.2 0c0 .1 0 .2.1.1.1 0 .1 0 .1.1 0 .2.1.4.2.5.1.1 0 .3-.1.5 0 .1-.1.3-.3.4 0 .2-.1.4-.3.6-.1.2-.3.5-.4.7-.2.2-.3.4-.5.6-.2.2-.3.4-.4.5-.4.5-.7.9-1.1 1.4-.4.5-.7.9-1 1.4-.4.7-.8 1.2-1.1 1.7-.3.5-.7 1.1-1.2 1.9-.2.5-.4.9-.6 1.3-.2.4-.3 1-.4 1.7-.1.4 0 .6.3.8.1.1.3.1.4.1.1 0 .3 0 .4-.1.3 0 .6-.2 1-.4s.8-.5 1.1-.8c.3-.2.7-.6 1.2-1.1.5-.5 1-1 1.5-1.6.5-.5.9-1 1.3-1.5s.7-.8.9-1c.1-.1.2-.2.3-.4.2-.1.3-.2.4-.3 0 0 .1-.1.1-.2s0-.1.1-.1c.1-.1.2-.1.3-.2s.2-.2.2-.3c.1-.1.2-.1.4-.2s.4-.1.5-.1c.1 0 .1 0 .1.1 0 0 .1 0 .1-.1.1 0 .2-.1.1-.2 0-.1 0-.1.1-.2 0 0 .1-.1.1 0h.1c0 .1-.1.1-.1.1v.1s.1 0 .1-.1.1-.1.1-.1v.1s0 .1.1.1c.1-.1.1-.1.1 0l.2-.1v.1l.1-.1v.4c0 .1 0 .2.1.4l.3.3-.2.7s.1 0 .1-.1c0 0 .1-.1.2-.1 0 0 0 .1-.1.1v.1c-.1.2-.2.3-.3.5-.1.2-.2.3-.3.5-.2.2-.4.6-.9 1.1-.4.5-.9 1-1.4 1.5-.5.5-1 1-1.4 1.5s-.8.8-1 1l-1.1 1.1c-.4.4-.8.7-1.2.9l-.1.1s-.1 0-.1.1c-.5.4-1 .7-1.6 1-.6.3-1.3.5-1.9.6s-1.2.1-1.8-.1-1-.4-1.4-.9c-.2-.3-.4-.6-.4-1-.1-.4-.1-.7-.1-.9 0-.3.1-.6.1-1 0-.2.1-.3.1-.5 0-.1.1-.3.2-.6l-.3.3c-.1.1-.2.1-.3.1-.4.4-.9.7-1.3 1.1-.5.3-.9.6-1.3.9-.1.1-.2.2-.3.2-.1.1-.2.1-.3.2-.3.2-.7.4-1.1.5-.4.1-.7.2-1 .3-1.1.2-1.9.1-2.5-.3-.6-.3-1-.9-1.2-1.6-.1-.4-.1-.8-.1-1.1s0-.7.1-1.1c.1-.1.1-.2.1-.3s.1-.3.2-.4c.2-.4.3-.8.4-1.2s.3-.7.5-1c0-.1.1-.2.3-.3.1-.1.2-.2.2-.4.1-.3.3-.5.4-.7.2-.2.3-.4.4-.7.4-.6.8-1.1 1.3-1.6l1.4-1.4c0-.1.1-.2.3-.3.1-.1.3-.2.4-.4s.3-.3.4-.4l.3-.3c.5-.4 1-.9 1.6-1.3.5-.4 1.1-.8 1.7-1.2.6-.4 1.2-.6 1.8-.9.6-.2 1.2-.4 1.9-.4.1 0 .2 0 .2-.1h.3c.5.1.9.2 1.2.3.3.1.5.3.6.4.1.2.2.3.3.5.1.2.1.4.2.7l.4-.5zm-3 2.2H116.3c-.1.1-.2.1-.3.1-.1 0-.2.1-.3.1-.1 0-.2.1-.3.1-.1 0-.1 0-.2.1s-.2.1-.2.2h-.2s0 .1-.1.1c-.3.1-.5.2-.7.3-.1.1-.4.3-.7.5-.5.4-1.1.9-1.8 1.5-.6.6-1.2 1.2-1.8 1.7-.2.2-.3.3-.3.4-.1.1-.1.2-.2.3-.1.1-.1.2-.2.3l-.3.3c-.5.5-1 1.1-1.3 1.8-.3.7-.5 1.2-.5 1.7 0 .4.2.7.7.7.4 0 1.2-.4 2.2-1.2.3-.3.6-.5.8-.6.3-.2.5-.4.8-.7.4-.4.8-.7 1.2-1.1.4-.4.8-.8 1.3-1.4.7-.6 1.2-1.2 1.7-1.9 0-.1.1-.2.1-.2s0-.1.1-.1c0-.2.1-.3.2-.3.1-.1.2-.2.2-.3.1-.1.2-.3.3-.4.1-.1.2-.2.2-.3l.3-.5c0-.3 0-.5-.1-.8 0-.3-.1-.5-.3-.4zm10.2 3.9z"/><path d="M129.2 80.8H127c-.4 0-.7.1-1 .1h-.7c-.2 0-.3-.1-.5-.1-.1-.1-.3-.1-.5-.2-.1-.1-.2-.2-.3-.4-.1-.2-.1-.3-.2-.5-.1-.1-.1-.2-.1-.4v-.4c0-.1 0-.2.1-.3.2-.2.4-.4.5-.6.1-.1.2-.2.4-.2.2-.1.3-.1.4-.1.2 0 .4-.1.5 0 .2 0 .3 0 .4.1.7.1 1.2.2 1.6.2.4 0 .8.1 1.2.1h.7c.1 0 .4 0 .7.1h.6c.1 0 .2 0 .3-.2.1-.1.2-.3.2-.4.1-.2.2-.3.3-.5.1-.1.2-.3.3-.5.1-.2.2-.4.4-.6.2-.2.3-.4.3-.6 0-.1.1-.3.3-.4.2-.1.3-.2.4-.4.1-.1.2-.1.3-.1.2-.1.3-.1.4-.2s.2-.1.3-.1h.3c.1 0 .2.1.4.2s.3.2.4.3c.1.1.2.2.3.4.1.1.1.3.2.4 0 .2.1.3.1.4v.5c0 .2-.1.3-.2.5 0 0-.1.1-.2.3-.1.1-.2.3-.3.4s-.2.3-.3.4c-.1.1-.1.3-.1.3h.4c.4 0 .8 0 1 .1.2 0 .6.1 1 .1h1.9c.2.1.4.1.7.1h.7c.2 0 .3.1.5.1s.3 0 .4.1c.1.1.2.1.3.1.1 0 .2 0 .3.1 0 0 .1.1.2.1s.2 0 .2.1.1.1.2 0 .1 0 .2 0 .1.1.1.2l.2.4c0 .1 0 .2-.1.2s-.2 0-.2.1.1.2.1.4c.1.2.1.3.1.4h-.2s-.1.1-.3.1c-.1.1-.1.1 0 .2s0 .1-.1.1h-.3c-.1 0-.2.1-.2.2-.1.1-.3.1-.5.1h-.5c-.1 0-.3 0-.6-.1s-.4-.1-.5 0h-1c-.3 0-.6-.1-.9-.1-.3 0-.6-.1-.9-.1h-.5c-.3 0-.6 0-1-.1s-.8-.1-1.4 0c-.3 0-.5 0-.6-.1-.1 0-.2 0-.4.2-.1.1-.3.4-.7.9s-.7.9-1.2 1.4-.8 1-1.2 1.4c-.4.4-.6.7-.7.9-.1.2-.2.3-.3.4 0 .1-.1.1-.1.1l-.1.1c-.1.1-.2.2-.3.4-.5.8-1 1.4-1.2 1.8-.3.4-.5.7-.7 1-.2.3-.4.5-.5.8-.2.3-.4.7-.7 1.2-.3.6-.6 1.1-.9 1.5-.3.4-.5 1-.7 1.6-.1.2-.2.3-.2.5s-.1.3-.1.6c-.1.3-.1.5 0 .6l.3.3c.1.1.3.1.4 0 .1 0 .3 0 .4-.1.9-.4 1.7-.9 2.4-1.3.7-.5 1.4-1 2-1.5.6-.6 1.3-1.1 2-1.8.7-.6 1.5-1.3 2.4-2.1l.1-.1s.1-.1.2-.1l.4-.4c.1-.1.3-.2.6-.3h.2c.1 0 .1-.1.2-.1l.1.1v.1c.1 0 .1 0 .1-.1s0-.1.1-.1h.1c.1 0 .1.1.1.2 0 0 0 .1-.1.2v.1c.1 0 0 0-.1.1-.1 0-.1.1 0 0h.1c-.1 0-.1.2-.1.4.2.1.3.2.1.4 0 .1 0 .2.1.2s.1.1 0 .2c0 0-.1.1-.1.2s0 .2-.1.3l.1.1c0 .1-.1.2-.2.4s-.2.2-.3.3c-.1 0-.1.1-.1.1l-.1.1c-.1.1-.3.4-.6.6-.3.3-.6.6-1 .9-.3.3-.7.6-1 .9-.3.3-.6.5-.7.6-.4.4-.9.9-1.7 1.5-.7.6-1.5 1.2-2.4 1.8-.9.6-1.8 1.1-2.8 1.5-.9.4-1.8.6-2.6.5-.2 0-.5 0-.8-.1s-.5-.2-.7-.3l-.3-.3c-.3-.3-.5-.6-.7-1-.1-.4-.2-.8-.2-1.1 0-.6.1-1.1.2-1.4.1-.4.2-.8.4-1.3.2-.7.5-1.5.9-2.4.4-.9.8-1.7 1.1-2.3.2-.3.3-.5.4-.7.1-.2.2-.3.2-.4.1-.1.2-.3.3-.4.1-.2.2-.4.4-.7.3-.4.4-.6.5-.7l.2-.2c0-.1.1-.2.3-.3.1-.2.4-.5.8-1.1l3.7-4.7s0-.1.1-.1c.2-.1.2-.2.3-.3zm6.6 8.4s.1 0 0 0c.1 0 .1 0 0 0z"/><path d="M141.5 84.4c.1-.1.3-.1.5-.2.2 0 .4-.1.6-.2.1 0 .3-.1.4-.1h.8c.1 0 .2 0 .3-.1.3 0 .6.1.9.2.1 0 .3 0 .5.1s.3.2.4.3c.3.2.5.4.7.6.2.2.3.4.4.8.2.5.3 1.1.3 1.6 0 .6-.1 1.1-.2 1.6s-.5 1.3-.9 2.4c-.5 1.1-1.2 2.2-2.3 3.5l-.2.2-.3.3-.3.3c-.1.1-.1.2-.2.2h.3c.2 0 .4 0 .7-.1.2 0 .6-.1 1-.1l.9-.3c.2-.1.5-.2.7-.4.2-.1.4-.3.6-.5.2-.2.4-.3.7-.5.3-.3.7-.7 1.1-1 .4-.4.8-.7 1.1-1l.4-.3c-.1-.2-.1-.3.1-.3v.1c0 .1.1.2.1.2v.1l-.1.1c.2-.1.3-.2.3-.3 0-.1.1-.2.3-.3v.2c0 .1.1.1.2.1h.2c.1 0 .1 0 .2-.2 0-.1.1-.2.2-.2 0 .1-.1.2-.1.2.1 0 .2-.1.3-.1 0 0 .1-.1.2-.1 0 .1 0 .3-.2.3s-.1.2 0 .3c.1-.2.2-.3.3-.3l.2.2-.1.2c0 .1-.1.2-.1.2-.1.1-.1.1-.1.2h.2c-.1.2-.3.4-.4.5-.1.2-.2.3-.2.5-.1.1-.2.2-.3.4-.1.1-.1.3-.3.4-.2.3-.4.6-.6.8-.2.2-.4.4-.6.7-.1.1-.2.2-.2.3-.1.1-.1.1-.2.1-.3.3-.6.5-.8.7-.3.2-.6.4-1 .6-.3.2-.8.4-1.4.6s-1.2.4-1.8.4c-.2 0-.7.1-1.3.1-.6.1-1.2.1-1.7 0-.1.1-.3 0-.6 0-.3-.1-.5-.1-.6.1-.2.1-.3.2-.3.2v.1l-.3.3c-.2.2-.3.2-.3.3l-.1.1s0 .1-.1.1l-.3.3c-.3.2-.5.4-.7.6s-.5.4-.9.6c-.4.2-.8.4-1.3.6-.5.2-1 .3-1.5.4-.4.1-.7.1-1 .2h-1c-.3-.1-.6-.1-.9-.3-.3-.1-.6-.3-.8-.4l-.5-.5c-.2-.2-.3-.3-.4-.5-.2-.2-.3-.3-.3-.6 0-.2 0-.4-.1-.6 0-.1-.1-.3-.1-.4v-.4c-.1-.2-.1-.4.1-.8.1-.9.4-1.8.7-2.6.3-.8.7-1.6 1.3-2.5.2-.3.3-.6.5-.9.2-.3.3-.6.5-.9.1-.1.2-.3.3-.4.1-.1.2-.2.4-.3 0-.2.1-.2.2-.2.5-.6 1-1.2 1.5-1.7s1.1-1.1 1.7-1.6c.2-.1.3-.2.4-.2.1 0 .2-.1.3-.2.1-.1.3-.2.4-.4.1-.2.3-.3.4-.3.1 0 .2-.1.3-.1l.2-.2 2.7-.9zm-3.6 12.7c-.2-.2-.4-.4-.7-.6-.3-.2-.5-.4-.6-.7-.2-.3-.3-.5-.4-.7-.1-.2-.2-.4-.2-.6 0-.2-.1-.4-.1-.6v-.8.2c-.2.1-.3.3-.6.5s-.4.5-.5.7c0 .1-.1.2-.1.2 0 .1 0 .1-.1.2s-.1.1-.1.2-.1.2-.2.4c-.3.4-.4.8-.6 1.3-.1.4-.2.8-.4 1.3v1l.2.4h.4c.1-.1.2-.1.3-.1h.4c.1-.1.2-.1.3-.1s.2-.1.3-.1c.2-.1.3-.2.5-.3.1-.1.3-.2.5-.3.2-.1.3-.2.4-.2h.1l.1-.1.3-.3c.2-.1.3-.2.3-.2.1 0 .1-.1.2-.1s.1-.1.2-.1.1-.1.2-.2c.1 0 .1-.1.1-.1-.3-.1-.3-.1-.2-.2zm1.7-2c.1 0 .1-.1.2-.3s.2-.2.2-.2c.3-.3.6-.7 1-1.1.4-.5.7-1 1-1.4s.6-.9.8-1.3c.2-.4.4-.7.5-.9.1-.2.1-.4.2-.5.1-.1.1-.3.1-.4 0-.1.1-.2.1-.3 0-.1 0-.2.1-.4.1-.4-.1-.6-.4-.8-.3-.2-.7-.2-1.1 0-.6.3-1.2.6-1.7 1s-.8.7-.9.8c-.1.1-.2.3-.4.5s-.3.4-.3.5c-.2.3-.3.4-.3.5 0 .1-.1.3-.2.5 0 .2 0 .3-.1.4 0 .1-.1.2-.1.3 0 .1 0 .3-.1.5v.8c.2.7.6 1.3 1.4 1.8z"/></svg>