<svg version="1.1" id="mocaccino" xmlns="http://www.w3.org/2000/svg" x="0" y="0" viewBox="0 0 183 112" xml:space="preserve"><style>.st0{fill:#becbca}.st2{fill:#c68b60}.st6{fill:#54a374}.st7{fill:#fff}.st8{fill:#474747}</style><path class="st0" d="M10.3 47.5l20.9 55.6c9.4 1 18.5-1.2 27.2-7l-9.1-58.6c-14.1-1-27.2 2.1-39 10z"/><path class="st0" d="M11.1 49.6s-9-19.5 11.6-24.8S48.2 28 50 40.2L11.9 50"/><path d="M14.6 51.6l-1.7-4.8c-.2-.4-.2-.8-.2-1.2.2-.5.7-.9 1.2-1.2 5.8-3.6 12-7.2 18.9-7.6 2.7-.2 5.5.2 8.2 0 1.8-.1 3.8-.5 5.3.4 1.6 1.1 2.1 3.3 1 4.9-1.2 1.7-2.8 3-4.8 3.6-1.9.8-4 1.2-5.9 2-2.3.9-4.3 2.2-6.7 2.9-5 1.4-10.3-.6-15.3.5" fill="#f9eadb"/><path class="st2" d="M32.5 100.6s15.1 2.6 23.2-7c.8-.9-7.3-51.3-7.3-51.3L14 51.7l18.5 48.9z"/><path class="st2" d="M14.9 52.6c-.7-.2-.4-1.1.1-1.7 1.9-2.2 5.3-2.9 8.3-3.1s6.2-.1 9-1.4c1.3-.6 2.5-1.3 3.7-2.2 1.6-1 3.3-1.8 5-2.5 1.8-.7 3.9-1.3 5.6-.5 1.6.9 2.4 2.8 1.7 4.6-.7 1.8-2 3.3-3.6 4.3-3.6 2.6-7.7 4.4-12 5.3-3 .9-6.2 1.1-9.3.7-1.6-.3-3.2-.8-4.8-1.4-1.6-.6-3.5-1.4-3.8-3"/><path class="st0" d="M49.8 42.2c.2.3-1.5 1.7-4.6 3.5-4 2.3-8.4 4.1-12.9 5.3-4.5 1.3-9.1 1.9-13.8 2.1-3.6 0-5.8-.3-5.8-.7 0-.8 8.7-1 18.8-3.9s17.9-7 18.3-6.3z"/><path fill="#70d699" d="M30.9 40.5l-2.7-39 5-.7 2.3 39.6z"/><path d="M39.4 38.2c.2.2 0 1-1.1 1.9-1.3 1-3 1.6-4.7 1.6-1.6.1-3.3-.2-4.7-1-1.1-.6-1.6-1.2-1.5-1.5s.9-.4 2-.3c1.4.2 2.7.2 4.1.2 1.3-.1 2.6-.3 3.9-.7 1.1-.2 1.8-.4 2-.2z" fill="#e8c7aa"/><path d="M36.7 24.6c.2.3-.1.9-.8 1.5-1 .8-2.3 1.2-3.5 1.3-1.3.1-2.5-.2-3.6-.8-.8-.5-1.2-1-1-1.4.3-.6 2.3-.3 4.5-.5s4-.7 4.4-.1z" fill="#8a9695"/><path class="st6" d="M34.6 34c.5.5 0 1.7-1.1 2.4s-2.3.6-2.6 0 .3-1.6 1.3-2.2 1.9-.7 2.4-.2z"/><ellipse transform="rotate(-39.322 32.605 31.191)" class="st6" cx="32.6" cy="31.2" rx="2.3" ry="1.3"/><ellipse transform="rotate(-39.286 31.98 27.249)" class="st6" cx="32" cy="27.2" rx="2.3" ry="1.3"/><path class="st6" d="M34.1 19.9c.5.5 0 1.8-1 2.8s-2.3 1.5-2.8 1-.1-1.8 1-2.8c1-1.1 2.3-1.5 2.8-1zM33.9 14.5c.5.5-.1 1.8-1.2 3s-2.3 1.8-2.9 1.4-.2-1.9 1-3.2c1.2-1.2 2.6-1.7 3.1-1.2zM33.3 9.4c.5.5.2 1.8-.9 2.9s-2.3 1.7-2.8 1.2-.1-1.8.9-2.9 2.2-1.7 2.8-1.2zM33.1 4.6c.5.5.3 1.8-.7 2.9s-2.1 1.7-2.7 1.3-.3-1.7.7-2.9 2.2-1.7 2.7-1.3z"/><path class="st7" d="M12.2 41.7c-.3.1-1-1-1-2.9 0-2.5.8-4.9 2.3-6.9 1.5-2 3.5-3.5 5.8-4.3 1.8-.6 2.9-.5 3-.2s-.8.9-2.2 1.9c-1.7 1.2-3.3 2.6-4.6 4.2-1.1 1.6-2 3.5-2.5 5.5-.3 1.6-.4 2.6-.8 2.7z"/><circle transform="rotate(-19.312 25.231 26.435)" class="st7" cx="25.2" cy="26.4" r="1.3"/><path class="st7" d="M24.7 73.8c-.7.3-3.4-5.5-6.1-12.8S14.3 47.5 15 47.3s3.4 5.5 6.1 12.8 4.2 13.4 3.6 13.7zM28.3 82.1c-.6.4-1.7-.3-2.3-1.7-.4-.7-.4-1.6-.1-2.4l.6-1.1.2.3c.2.4.1.8-.3 1.1l-.1.1.8-.7c.6.4 1.1 1 1.3 1.7.5 1.1.5 2.3-.1 2.7zM44.5 96.6c.2.3-1 1.3-3.1 2.2-1.3.6-2.6 1-4 1.2-.9.1-1.8.1-2.7-.1-1.1-.2-2.1-.8-2.8-1.7-.6-.8-1-1.8-1.2-2.8-.2-.8-.4-1.6-.5-2.3-.3-1.5-.6-2.8-.7-3.9-.3-2.3-.4-3.7 0-3.8s1 1.2 1.8 3.3c.4 1.1.8 2.3 1.3 3.8l.7 2.2c.2.6.4 1.3.8 1.8.6.8 2 1.1 3.3 1 1.2-.1 2.5-.3 3.7-.6 1.8-.3 3.2-.6 3.4-.3z"/><path class="st8" d="M66.7 67.4l-2.8.5V48.1c3.9-.5 5.9-.8 9.8-1.5 1.1-.2 2.2.1 3 .8.8.7 1.3 1.7 1.3 2.8V53c0 1.2-.4 2.3-1.2 3.2-.8.9-1.8 1.5-3 1.7-2.8.5-4.2.7-7 1.1v8.4zm0-11.2c2.8-.4 4.2-.7 7-1.1.8-.2 1.3-.8 1.3-1.6v-2.8c0-.6-.5-1.2-1.1-1.2h-.3c-2.8.5-4.2.7-7 1.1l.1 5.6zM93.2 52.4c.1.2.1.4.1.6 0 3.9-.1 5.8-.1 9.7l-2.8.5v-5.5c-3.4.6-5.1.9-8.4 1.5v5.6l-2.8.5v-9.7c0-.2.1-.4.1-.6l4.2-9.1c.2-.5.7-.9 1.3-1l2.8-.5c.5-.2 1 .1 1.3.6 1.8 2.9 2.7 4.4 4.3 7.4zm-11.1 4c3.4-.6 5.1-.9 8.4-1.5v-1.1l-3.7-6.6-1.1.2c-1.5 3.2-2.2 4.8-3.7 7.9.1.5.1.7.1 1.1zM100.2 61.4c-1 .3-2.2 0-3-.7-.8-.6-1.2-1.7-1.1-2.7.1-4.4.1-6.6.2-11.1 0-1.2.5-2.3 1.3-3.2.8-.9 1.8-1.6 3-1.8l5.7-1.1c1.1-.2 2.2 0 3 .7.8.7 1.3 1.7 1.2 2.8v1.4l-2.8.5v-1.4c0-.6-.4-1.1-1-1.2h-.4l-5.7 1c-.8.2-1.4.8-1.4 1.7 0 4.5 0 6.7-.1 11.1 0 .6.4 1.1 1 1.2h.4l5.7-1.1c.8-.2 1.4-.8 1.4-1.7v-1.4l2.8-.5v1.4c0 1.2-.5 2.3-1.3 3.2-.8.9-1.8 1.6-3 1.8l-5.9 1.1zM127.6 42.6c0 .4-.2.7-.4 1l-3.3 3.7c1.3 1 2 1.5 3.3 2.5.3.2.4.5.4.9v5.4l-2.9.6v-4.9c-1.4-1-2.1-1.6-3.5-2.6l-5.2 1c-.1 3.3-.1 4.9-.2 8.2l-2.8.6c.2-7.8.3-11.4.4-19.4l2.8-.5c-.1 3.4-.1 5.1-.2 8.4l5.1-1 3.5-4v-5l2.8-.5c.2 2.3.2 3.4.2 5.6zM62.4 73.1v-1.4c22.3-3.9 44.4-8 66.6-12.4v1.4c-22.1 4.4-44.3 8.5-66.6 12.4z"/><path d="M52.4 97.3c.2.1.3.2.3.2.1.1.1.1.2 0 .5-.2.8-.5 1.1-.7.2-.3.4-.5.6-.8.2-.3.4-.7.7-1.2.3-.5.6-.9.7-1.2.4-.6.7-1.4 1-2.1.3-.8.6-1.5 1-2.1.1-.3.2-.5.2-.7.1-.2.1-.4.3-.7.1-.2.2-.4.3-.5.2-.1.2-.3.2-.6 0-.1 0-.2.1-.2s.1-.1.2-.1c0-.1.1-.1.1-.2s.1-.2.2-.3c.1-.1.1-.1.2-.1s.1.1.2.3c0-.2 0-.3.1-.4h.1s0 .1.2.1c.1-.1.1-.1.1 0s.1.2.1.4h.2c0 .1.1.1.3.1.2 0 .2.1.3.2 0 .1 0 .1-.1 0s-.1-.1-.1 0 .1.1.1.3c.1.1.1.2.1.3.1.3.1.5.1.7 0 .2-.1.4-.2.7.1.4 0 .7-.2 1.1-.2.4-.3.7-.4 1-.1.4-.2.8-.5 1.3-.2.5-.4.9-.6 1.2l-1.3 2.6c-.1.2-.2.4-.3.5-.1.2-.2.3-.3.5l-.3.6c-.1.2-.3.4-.4.7-.2.3-.4.6-.6.8-.2.2-.3.4-.5.5-.2.1-.4.3-.6.5-.2.2-.5.4-.8.7-.2.1-.4.2-.6.2-.2.1-.4.2-.5.2-.2.1-.3.1-.5.2-.1.1-.3.1-.5 0h-.6c-.2 0-.5 0-.7-.1-.1-.1-.3-.1-.4-.1-.1 0-.3-.1-.4-.3-.1-.1-.3-.2-.4-.3l-.3-.3c-.3-.3-.5-.6-.6-.9-.1-.3-.2-.7-.4-1-.1-.2-.1-.4-.1-.6v-.6V96v-1.1-.3-.2c0-.5.1-1.1.2-1.6.1-.6.2-1.1.2-1.6 0-.3.1-.6.2-1.1.1-.5.2-.8.3-1.1.2-.6.2-1 .1-1.2-.1-.2-.2-.2-.4-.2-.2.1-.4.3-.6.5l-.6.9c-.1.3-.3.6-.5 1s-.3.7-.4.9c-.3.5-.4.9-.6 1.3s-.3.8-.5 1.3l-.3.6c-.1.2-.2.5-.2.7l-.6 1.5c-.2.5-.4 1-.5 1.5-.1.3-.2.6-.3.8s-.2.5-.2.9c-.1.1-.1.2-.1.3 0 .2-.1.3-.1.4-.1.1-.1.2-.1.4 0 .1 0 .2-.1.2-.1.1-.2.2-.4.2-.1.1-.2.2-.4.2-.3.2-.6.3-.9.1-.2-.1-.4-.1-.5-.2-.1 0-.3-.1-.4-.3-.2-.2-.3-.4-.4-.7-.1-.3-.2-.5-.2-.8 0-.3 0-.7.1-1.1.1-.4.1-.7.1-1V97c0-.1 0-.1.1-.2.1-.4.1-.8.2-1.2s.2-.9.2-1.4c0-.5.1-.9.2-1.4.1-.5.1-.9.1-1.4v-.3-.2-.2-.4c0-.6 0-1-.2-1.4-.2-.3-.5-.3-.9.2s-.8.9-1 1.3-.4.9-.7 1.5c-.1.3-.2.7-.4 1-.2.4-.3.7-.4 1l-.3.9-.3.9c.5 1.2.2 2.3 0 3.3-.2 1.1-.4 2.1-.6 3.1 0 .3-.1.5-.2.7l-.3.6v.3c0 .1 0 0-.2 0 0 0-.1.1-.1.2-.1.1-.2.2-.4.2-.1 0-.2.1-.3.2h-.5c-.2-.1-.3-.1-.5-.1s-.4-.1-.6-.1c-.1-.2-.2-.3-.3-.5-.1-.2-.2-.3-.3-.5-.1-.3-.1-.5-.1-.7v-.7c0-.2 0-.4.1-.6.1-.2.1-.4.2-.6.2-.8.3-1.6.4-2.3.1-.7.2-1.4.3-1.9.1-.3.2-.7.2-1.1 0-.4.1-.7.1-1.1.1-.6.1-1.1.2-1.4 0-.3.1-.7.2-1.2s.2-1.1.2-1.7c0-.6.1-1.2.2-1.8 0-.1 0-.1.1-.2s.1-.2.1-.2v-.3-.4c0-.2 0-.5.1-.7.1-.2.1-.4.2-.6 0-.2.1-.3.1-.5s.1-.3.2-.5c0-.1.1-.2.1-.3.1-.1.1-.1.2-.1s.1 0 .2-.1c.1 0 .1-.1.2-.2.2-.2.5-.3.8-.3.4 0 .7.1.9.4l.2.2c.1.1.2.1.2.3.1.2.2.3.2.4v.3c0 .1 0 .2-.1.3v.5c0 .1 0 .2-.1.5s-.2.4-.2.5v.1c-.1.2-.1.4-.2.5 0 .1-.1.2-.1.4v.2c.1-.2.3-.4.5-.7s.4-.5.5-.7c.2-.2.3-.4.5-.6.1-.2.2-.3.3-.3.3-.3.5-.5.6-.5s.3-.2.5-.3c.7-.4 1.4-.5 1.8-.4.5.1.9.5 1.4 1.2.2.5.3 1 .3 1.5s-.1 1.2-.1 2.1c0 0 .1-.1.2-.3l.3-.6.3-.6c.1-.2.1-.3.1-.3.1-.1.1-.3.2-.5s.2-.4.3-.5c.2-.4.5-.7.8-1.1.3-.3.6-.7.9-1 .3-.2.5-.4.7-.6s.4-.4.7-.5c.2-.1.4-.2.6-.2.2-.1.5-.1.7-.2.2-.1.4-.1.8-.2.3-.1.6 0 .8.1.1.1.2.1.4.2s.3.1.3.2c.2.1.4.3.7.6.3.4.5.8.5 1.3.1.5.1 1.1-.1 1.7s-.3 1.2-.4 2c-.1.5-.2.9-.3 1.4s-.2.9-.2 1.4c-.1.6-.2 1.3-.3 2-.1.7-.1 1.4-.2 2.1 0 .2 0 .4.1.7.3.2.4.5.4.7z"/><path d="M64.1 79.5c.1-.1.2-.2.4-.3.2-.1.3-.2.5-.4.1-.1.2-.2.4-.2.1-.1.3-.1.4-.2h.3c.1 0 .1-.1.2-.2.3-.1.6-.1.9-.1.1-.1.3-.1.5-.1s.4.1.5.1c.3.1.6.2.8.3.2.1.5.3.7.5.4.4.6.9.8 1.4.2.5.3 1 .4 1.5v2.5c0 1.1-.4 2.7-.9 4.3 0 0-.1.1-.1.2-.1.1-.1.2-.2.4-.1.1-.1.3-.2.4s-.1.2-.1.2.1 0 .3-.1l.6-.3c.2-.1.5-.3.9-.5.3-.2.5-.4.7-.6.2-.2.4-.4.5-.6.1-.2.3-.4.4-.6.1-.2.3-.5.5-.7.2-.4.4-.9.7-1.4.3-.5.5-1 .7-1.4l.3-.4c-.1-.1-.1-.2 0-.2l.1.1c.1.1.1.1.2.1 0 .1 0 .1.1.1v.1c.2-.1.2-.3.2-.3s0-.2.2-.3v.2s.1.1.2.1.2 0 .2-.1c.1 0 .1-.1.1-.2s0-.2.1-.3v.2c.1-.1.2-.1.2-.2s.1-.1.1-.2c.1.1.1.2 0 .4-.1.1 0 .2.2.3 0-.2.1-.3.1-.4.1 0 .2.1.2.2v.7c.2 0 .2-.1.2-.1-.1.2-.1.4-.2.6v.6c-.1.1-.1.3-.1.4 0 .1 0 .3-.1.5-.1.4-.2.7-.3.9-.1.3-.2.6-.4.9-.1.1-.1.2-.1.3 0 .1-.1.2-.1.2-.2.3-.3.7-.5 1-.2.3-.4.6-.7.9-.2.3-.6.6-1.1 1.1s-1 .8-1.5 1.1l-1.2.6c-.6.3-1.1.5-1.6.6-.1.1-.3.2-.6.2s-.4.1-.5.3c-.1.2-.2.2-.2.3v.2l-.2.4c-.1.2-.2.3-.2.4v.2l-.2.4c-.2.3-.3.5-.5.8-.1.3-.4.6-.7.9-.3.3-.6.7-1 1-.4.4-.8.7-1.3.9-.3.2-.6.4-.9.5-.3.2-.6.3-.9.3-.3.1-.6.1-.9.1-.3 0-.6 0-.9-.1l-.6-.3c-.2-.1-.4-.2-.5-.4-.2-.1-.4-.2-.5-.4l-.3-.6c-.1-.1-.1-.2-.2-.3-.1-.1-.1-.2-.1-.3-.1-.1-.2-.4-.2-.8-.2-.9-.3-1.8-.3-2.7 0-.9.1-1.8.3-2.8.1-.3.1-.6.1-1s.1-.7.1-1c.1-.2.1-.3.2-.5s.1-.3.2-.5c0-.2 0-.2.1-.3.2-.7.5-1.4.8-2.1.3-.7.7-1.4 1-2.1.1-.2.2-.3.3-.3.1-.1.2-.2.2-.3.1-.1.2-.3.3-.5.1-.2.2-.3.3-.4.1-.1.2-.1.2-.2s.1-.2.1-.2l2.1-2.4zm1.1 13.2c-.2-.1-.5-.2-.9-.3-.3-.1-.6-.2-.8-.4-.3-.2-.5-.4-.6-.5-.2-.2-.3-.3-.4-.5l-.3-.6c-.1-.2-.2-.5-.3-.8v.2c-.1.2-.2.4-.3.7-.1.3-.2.6-.2.8v1.1c-.4.6-.4 1.1-.3 1.5 0 .4.1.9.1 1.3 0 .2.1.4.2.5.1.2.1.3.2.5l.3.3c.1 0 .2-.1.2 0 0 0 .1 0 .2-.1 0-.1.1-.1.3-.2.2 0 .3-.1.3-.2s.1-.2.2-.2c.1-.1.2-.2.3-.2.1-.2.2-.3.3-.4.1-.1.2-.3.4-.4.1-.2.2-.3.3-.3l.1-.1v-.1c0-.1.1-.2.2-.4.1-.1.2-.3.2-.3.1-.1.1-.1.1-.2 0 0 .1-.1.1-.2s.1-.2.1-.3c0-.1.1-.1.1-.1l-.1-.1zm.9-2.5c0-.1.1-.2.1-.3 0-.2.1-.3.1-.3.2-.4.4-.8.5-1.4.2-.6.3-1.1.4-1.7.1-.6.2-1.1.3-1.6.1-.5.1-.8.1-1v-.6-.4-.3c0-.1 0-.2-.1-.4-.1-.4-.3-.6-.6-.6-.4-.1-.7.1-1 .4-.5.5-.9 1-1.2 1.5s-.5.9-.5 1.1c0 .1-.1.4-.2.6-.1.3-.1.5-.1.6-.1.3-.1.5-.1.6v.6c.1.1.1.3.1.4v.3c0 .1.1.1.1.3 0 .2.1.4.2.8.3.8.9 1.2 1.9 1.4z"/><path d="M81.6 79.3h-.3c-.1 0 0 0-.1.1-.2.2-.5.4-.7.6-.2.2-.4.4-.5.6-.1.1-.3.2-.4.4-.1.2-.2.3-.3.5l-1.2 2.2-.3.6c-.1.2-.2.5-.3.8-.1.3-.2.6-.2.9-.1.3-.2.6-.2.9-.4 1.7-.4 3.2-.1 4.5v.2c0 .1 0 .2.1.2.2.3.3.5.4.7.1.2.3.3.7.4.3 0 .6 0 1-.1.3-.1.7-.2 1.1-.5.4-.2.8-.5 1-.7.2-.2.5-.5.9-.8.2-.2.5-.5.8-.9.3-.4.7-.7 1-1.1.3-.4.7-.8 1-1.1.3-.4.5-.7.7-1 .2-.2.4-.5.6-.9.2-.4.5-.8.7-1.1.3-.4.5-.8.7-1.1.2-.4.4-.7.5-.9.1-.1.2-.3.2-.5.1-.2.1-.3.2-.4.2-.3.3-.5.4-.6.1-.1.2-.3.2-.5 0-.1.1-.2.1-.2l.2-.2s.1.1.1.2l-.1.1v.2c.1 0 .1 0 .2-.1 0-.1.1-.1.1-.1.1.1.1.1.2 0l.1-.1.1-.2c0 .1.1.3.1.4.1.1.1.3 0 .4v.1h.1c0 .1.1.2.1.3h.2c0 .1 0 .2.1.3v.4c-.1.3-.2.7-.2 1 0 .1 0 .3.1.4v.3c-.3.6-.7 1.3-1.1 2.2-.4.9-.9 1.7-1.4 2.4l-.3.3-.3.3c-.2.3-.4.7-.7 1.1-.3.4-.6.8-1 1.1-.3.4-.7.7-1 1l-.8.8-.7.7c-.2.3-.5.5-.7.6-.3.3-.7.6-1.3.9-.5.3-1.1.5-1.8.7-.6.2-1.2.3-1.9.3-.6 0-1.1 0-1.5-.1-.5-.2-.8-.4-1.1-.6s-.5-.5-.7-.8c-.2-.3-.4-.6-.5-1s-.3-.8-.4-1.3c-.1-.9-.2-1.8-.3-2.6 0-.8 0-1.8.2-2.8.1-.4.2-.8.3-1.1.1-.3.2-.7.3-1.1.2-.6.4-1.2.6-1.7.2-.6.5-1.1.7-1.7.2-.4.5-.9.7-1.3.2-.4.5-.8.8-1.2.2-.2.3-.4.4-.6.1-.2.3-.5.5-.6.2-.3.4-.5.7-.8l.7-.7c.3-.3.7-.6 1.3-.8s1-.3 1.4-.4h.5c.2-.1.4 0 .7.1.3.1.5.4.8.7.3.3.5.8.7 1.3s.3 1.1.3 1.8c0 .4 0 .8-.1 1.1-.1.4-.1.7-.2 1.1-.1.3-.1.4-.2.6 0 .1-.1.3-.1.4 0 .1-.1.3-.1.4 0 .1-.1.3-.2.5-.1.1-.1.2-.2.3 0 .1-.1.2-.2.3l-.4 1.1c-.1.3-.3.5-.6.6 0 0-.1.1-.1.2s0 .1-.1.2c-.2.1-.4.2-.5.2-.1.1-.3.1-.6.2-.2 0-.4 0-.5-.2-.1 0-.1-.1-.1 0s-.1 0-.1 0c-.1-.2-.2-.3-.4-.5-.1-.2-.2-.4-.2-.7v-.2-.2c0-.2.1-.4.2-.7.1-.3.2-.6.3-.7 0 0 .1-.1.1-.2s.1-.2.1-.3c0-.1 0-.2.1-.1v.2l.1-.1c.1-.4.2-.6.3-.7 0-.1.1-.4.2-.7 0-.2.1-.3.1-.5.1-.2.1-.4.1-.5.1-.1.1-.1 0-.2.1-.5.1-.6.1-.6z"/><path d="M97.5 74.3c.1-.3.2-.5.4-.6l.6-.3c.2-.1.3-.1.4-.1h.3c.1 0 .2.1.2.2s.1.1.1.1.1-.1.2-.1c0 .1.1.1.1.1h.1c.1.2.2.3.3.5s.1.3.1.5c0 .1 0 .3-.1.5v.7c0 .3-.1.5-.2.8-.1.3-.1.5-.2.8s-.2.5-.2.6c-.2.6-.4 1.1-.5 1.7s-.3 1.1-.4 1.6c-.2.8-.3 1.4-.4 2-.1.6-.3 1.3-.4 2.2 0 .5-.1 1-.1 1.5s0 1.1.2 1.8c.1.4.2.6.5.6.2 0 .3 0 .4-.1.1-.1.2-.1.4-.2.3-.2.5-.4.8-.8.3-.4.5-.7.8-1.1.2-.3.5-.8.7-1.5.3-.6.6-1.3.8-2s.5-1.3.7-1.9c.2-.6.4-1 .5-1.2 0-.1.1-.3.2-.4.1-.2.2-.3.3-.4v-.2-.1c.1-.1.1-.2.2-.3 0-.1.1-.2.1-.3 0-.1.1-.2.3-.4.2-.2.3-.3.4-.3h.2c.1 0 .1 0 .1-.1.1-.1.1-.1.1-.2s0-.1.1-.2c0-.1 0-.1.1-.1h.1V77.9c.1 0 .1 0 .1-.1v-.1s.1 0 .1.1l.1.1.1-.1c0 .1 0 0 .1-.1v.1l.1-.1c.1.1.1.2.2.3 0 .1.1.2.2.3v-.2.7s0-.1.1-.1l.1-.1v.2c0 .2 0 .4-.1.6v.6c-.1.3-.2.7-.4 1.3-.2.6-.5 1.3-.8 1.9s-.5 1.3-.8 1.9c-.3.6-.5 1-.6 1.3-.2.5-.4 1-.6 1.4-.2.5-.5.9-.8 1.3 0 .1 0 .1-.1.1l-.1.1c-.3.5-.7 1-1.2 1.5s-1 .9-1.6 1.2c-.6.3-1.1.5-1.7.6-.6.1-1.1 0-1.7-.3-.3-.2-.6-.4-.8-.8-.2-.3-.3-.6-.4-.8-.1-.2-.2-.6-.3-1 0-.2-.1-.3-.1-.5v-.6c0 .1-.1.2-.2.4l-.2.2-.9 1.5c-.3.5-.6.9-.9 1.3-.1.1-.1.2-.2.3-.1.1-.2.2-.2.3-.2.3-.5.6-.8.9-.3.3-.6.5-.9.7-.9.5-1.7.7-2.4.6-.7-.1-1.3-.5-1.7-1.1-.2-.4-.4-.7-.5-.9-.1-.3-.2-.6-.3-1.1v-.4-.4-1.2c-.1-.4 0-.8.1-1.1 0-.1 0-.3.1-.4.1-.1.1-.3.1-.4 0-.3.1-.6.1-.8s.1-.5.2-.8c.1-.7.4-1.3.7-2 .3-.6.6-1.3.8-1.8 0-.1.1-.2.1-.4s.2-.3.2-.5c.1-.2.2-.3.2-.5.1-.2.1-.3.2-.4.3-.6.6-1.2 1-1.8.4-.6.7-1.2 1.1-1.7.4-.5.8-1 1.3-1.4.5-.4 1-.8 1.6-1 .1 0 .1-.1.2-.1s.2-.1.3-.1c.5-.1.9-.2 1.2-.2.3 0 .6.1.7.2.2.1.3.2.5.4.1.2.3.4.4.5l.7-1.1zm-2 3.1c-.1 0-.1.1 0 0l-.1.1c-.1.1-.1.1-.1 0h-.1c-.1.1-.1.2-.2.2l-.2.2c-.1.1-.2.1-.2.2-.1 0-.1.1-.2.2s-.1.2-.2.2l-.2.1v.2l-.5.5c-.1.1-.2.4-.4.7-.4.5-.8 1.2-1.1 2-.4.8-.7 1.5-1.1 2.3-.1.2-.2.4-.2.5 0 .1-.1.2-.1.3 0 .1-.1.2-.1.3s-.1.3-.2.4c-.3.7-.5 1.4-.6 2.1-.1.7 0 1.3.1 1.7.2.4.4.6.9.4.4-.1 1-.8 1.7-1.9.2-.4.4-.6.6-.9.2-.2.4-.6.5-.9.3-.5.5-1 .7-1.5.2-.5.4-1.1.7-1.7.4-.8.7-1.6.9-2.4v-.2s0-.1.1-.1c0-.2 0-.3.1-.4.1-.1.1-.2.1-.3 0-.2.1-.3.2-.5.1-.1.1-.3.1-.3l.1-.6c-.1-.2-.2-.5-.3-.7s-.6-.3-.7-.2zm10.9.1c0-.1 0-.1 0 0z"/><path d="M111.4 73.8h-.3l-.1.1c-.2.2-.5.4-.7.6-.2.2-.4.4-.5.6-.1.1-.3.2-.4.4-.1.2-.2.3-.3.5l-1.2 2.2-.3.6c-.1.2-.2.5-.3.8-.1.3-.2.6-.2.9-.1.3-.2.6-.2.9-.4 1.7-.4 3.2-.1 4.5v.2c0 .1 0 .2.1.2.2.3.3.5.4.7.1.2.3.3.7.4.3 0 .6 0 1-.1s.7-.2 1.1-.5c.4-.2.8-.5 1-.7.2-.2.5-.5.9-.8.2-.2.5-.5.8-.9.3-.3.7-.7 1-1.1.3-.4.7-.8 1-1.1s.5-.7.7-1c.2-.2.4-.5.6-.9.2-.4.5-.8.7-1.1.3-.4.5-.8.7-1.1.2-.4.4-.7.5-.9.1-.1.2-.3.2-.5.1-.2.1-.3.2-.4.2-.3.3-.5.4-.6.1-.1.2-.3.2-.5 0-.1.1-.2.1-.2l.2-.2s.1.1.1.2l-.1.1v.2c.1 0 .1 0 .2-.1 0-.1.1-.1.1-.1.1.1.1.1.2 0l.1-.1.1-.2c0 .1.1.3.1.4s.1.3 0 .4v.1h.1c0 .1.1.2.1.3h.2c0 .1 0 .2.1.3v.4c-.1.3-.2.7-.2 1 0 .1 0 .3.1.4s0 .3 0 .3c-.3.6-.7 1.3-1.1 2.2-.4.9-.9 1.7-1.4 2.4l-.3.3-.3.3c-.2.3-.4.7-.7 1.1-.3.4-.6.8-1 1.1-.3.4-.7.7-1 1.1l-.8.8-.7.7c-.2.3-.5.5-.7.6-.3.3-.7.6-1.3.9-.5.3-1.1.5-1.8.7-.6.2-1.2.3-1.9.3-.6 0-1.1 0-1.5-.1-.5-.2-.8-.4-1.1-.6-.3-.2-.5-.5-.7-.8-.2-.3-.4-.6-.5-1s-.3-.8-.4-1.3c-.1-.9-.2-1.8-.3-2.6 0-.8 0-1.8.2-2.8.1-.4.2-.8.3-1.1.1-.3.2-.7.3-1.1.2-.6.4-1.2.6-1.7.2-.6.5-1.1.7-1.7.2-.4.5-.9.7-1.3.2-.4.5-.8.8-1.2.2-.2.3-.4.4-.6.1-.2.3-.5.5-.6.2-.3.4-.5.7-.8l.7-.7c.3-.3.7-.6 1.3-.8.5-.2 1-.3 1.4-.4h.5c.2-.1.4 0 .7.1s.5.4.8.7c.3.3.5.8.7 1.3.2.5.3 1.1.3 1.8 0 .4 0 .8-.1 1.1-.1.4-.1.7-.2 1.1-.1.3-.1.4-.2.6 0 .1-.1.3-.1.4 0 .1-.1.3-.1.4 0 .1-.1.3-.2.5-.1.1-.1.2-.2.3 0 .1-.1.2-.2.3l-.4 1.1c-.1.3-.3.5-.6.6 0 0-.1.1-.1.2s0 .1-.1.2c-.2.1-.4.2-.5.2-.1.1-.3.1-.6.2-.2 0-.4 0-.5-.2-.1 0-.1-.1-.1 0s-.1 0-.1 0c-.1-.2-.2-.3-.4-.5-.1-.2-.2-.4-.2-.7v-.2-.2c0-.2.1-.4.2-.7.1-.3.2-.6.3-.7 0 0 .1-.1.1-.2s.1-.2.1-.3c0-.1.1-.2.1-.1v.2l.1-.1c.1-.4.2-.6.3-.7 0-.1.1-.4.2-.7 0-.2.1-.3.1-.5.1-.2.1-.4.1-.5.1-.1.1-.1 0-.2.1-.5.1-.6.1-.7z"/><path d="M125.4 71.3h-.3l-.1.1c-.2.2-.4.4-.7.6s-.4.4-.5.6c-.1.1-.3.2-.4.4-.1.2-.2.3-.3.5l-1.2 2.2-.3.6c-.1.2-.2.5-.3.8-.1.3-.2.6-.2.9-.1.3-.2.6-.2.9-.4 1.7-.4 3.2-.1 4.5v.2c0 .1 0 .2.1.2.2.3.3.5.4.7.1.2.3.3.7.4.3 0 .6 0 1-.1.3-.1.7-.2 1.1-.5.4-.2.8-.5 1-.7.2-.2.5-.5.9-.8.2-.2.5-.5.8-.9.3-.4.7-.7 1-1.1.3-.4.7-.8 1-1.1.3-.4.5-.7.7-1 .2-.2.4-.5.6-.9.2-.4.5-.8.7-1.1.3-.4.5-.8.7-1.1.2-.4.4-.7.5-.9.1-.1.2-.3.2-.5.1-.2.1-.3.2-.4.2-.3.3-.5.4-.6.1-.1.2-.3.2-.5 0-.1.1-.2.1-.2 0-.1.1-.1.2-.2 0 0 .1.1.1.2l-.1.1v.2c.1 0 .1 0 .2-.1 0-.1.1-.1.1-.1.1.1.1.1.2 0l.1-.1.1-.2c0 .1.1.3.1.4.1.1.1.3 0 .4v.1h.1c0 .1.1.2.1.3h.2c0 .1 0 .2.1.3v.4c-.1.3-.2.7-.2 1 0 .1 0 .3.1.4s0 .3 0 .3c-.3.6-.7 1.3-1.1 2.2-.4.9-.9 1.7-1.4 2.4l-.3.3-.3.3c-.2.3-.4.7-.7 1.1s-.6.8-1 1.1c-.3.4-.7.7-1 1l-.8.8-.7.7c-.2.3-.5.5-.7.6-.3.3-.7.6-1.3.9-.5.3-1.1.5-1.8.7-.6.2-1.2.3-1.9.3-.6 0-1.1 0-1.5-.1-.5-.2-.8-.4-1.1-.6s-.5-.5-.7-.8c-.2-.3-.4-.6-.5-1s-.3-.8-.4-1.3c-.1-.9-.2-1.8-.3-2.6 0-.8 0-1.8.2-2.8.1-.4.2-.8.3-1.1.1-.3.2-.7.3-1.1.2-.6.4-1.2.6-1.7.2-.6.5-1.1.7-1.7.2-.4.5-.9.7-1.3.2-.4.5-.8.8-1.2.2-.2.3-.4.4-.6.1-.2.3-.5.5-.6.2-.3.4-.5.7-.8l.7-.7c.3-.3.7-.6 1.3-.8s1-.3 1.4-.4h.5c.2-.1.4 0 .7.1.3.1.5.4.8.7.3.3.5.8.7 1.3.2.5.3 1.1.3 1.8 0 .4 0 .8-.1 1.1-.1.4-.1.7-.2 1.1-.1.3-.1.4-.2.6 0 .1-.1.3-.1.4 0 .1-.1.3-.1.4s-.1.3-.2.5c-.1.1-.1.2-.2.3 0 .1-.1.2-.2.3l-.4 1.1c-.1.3-.3.5-.6.6 0 0-.1.1-.1.2s0 .1-.1.2c-.2.1-.4.2-.5.2-.1.1-.3.1-.6.2-.2 0-.4 0-.5-.2-.1 0-.1-.1-.1 0h-.1c-.1-.2-.2-.3-.4-.5s-.2-.4-.2-.7v-.2-.2c0-.2.1-.4.2-.7s.2-.6.3-.7c0 0 .1-.1.1-.2s.1-.2.1-.3 0-.2.1-.1v.2l.1-.1c.1-.4.2-.6.3-.7 0-.1.1-.4.2-.7 0-.2.1-.3.1-.5s.1-.4.1-.5c.1-.1.1-.1 0-.2.1-.5.1-.5.1-.6z"/><path d="M134.7 69.4c.1 0 .2 0 .4.1.1 0 .3 0 .4.1.1 0 .2 0 .3.1l.3.3.3.3c.1.2.2.4.1.6v.6c0 .9-.2 1.8-.4 2.7-.2.9-.5 1.8-.8 2.6-.3.9-.5 1.7-.8 2.5-.2.8-.3 1.6-.3 2.4 0 .3.1.4.2.5.2.1.4.1.6-.1.2-.1.3-.2.3-.3 0-.1.1-.1.3-.3.4-.4.9-.9 1.4-1.6.5-.7.9-1.3 1.2-1.8.1-.2.3-.5.6-1s.5-.9.7-1.4c.2-.5.5-1 .7-1.5.2-.5.4-.8.6-1.1 0-.1.1-.3.1-.4.1-.1.1-.3.2-.5.2-.1.2-.2.2-.3-.1-.1 0-.2 0-.3h.1c.1-.1.1-.1 0-.1h-.1l.2-.2c0-.1.1-.2.3-.4.1-.2.2-.3.3-.3.1 0 .2-.1.3 0l.2.2c.1-.1.1-.1.2 0 0 .1.2.1.4.1 0-.2.1-.3.2-.4 0 .1 0 .1.1.1v.6c0 .1.1.2.1.3.1-.1.2-.1.1-.2 0 0 0-.1.2-.2v.4c.1.1.1.2.1.2s0 .1.1.1c0 .2 0 .3-.1.5s0 .3-.1.4c0 .2-.1.4-.2.7-.1.3-.2.7-.4 1-.1.4-.3.7-.4 1-.1.3-.2.6-.3.7-.1.1-.2.3-.3.6-.1.3-.3.5-.4.8-.1.3-.3.6-.4.9s-.3.5-.4.7c-.3.4-.5.7-.6.9-.1.2-.2.4-.3.5-.1.1-.1.3-.2.4-.1.2-.2.4-.4.7-.4.4-.8.9-1.2 1.3-.4.5-.9.9-1.3 1.3-.5.4-1 .7-1.5 1-.5.3-1.1.5-1.6.5-.9.1-1.6 0-2.1-.4s-.8-.9-1-1.6c-.2-.7-.3-1.4-.2-2.1 0-.8.1-1.4.1-2 0-.3.1-.5.1-.6 0-.1 0-.2.1-.2 0 0 0-.1.1-.2 0-.1.1-.2.1-.5 0-.2.1-.4 0-.6 0-.2 0-.4.1-.6.1-.2.1-.3.1-.4v-.2-.3c0-.1.1-.3.1-.6l.4-1.6c.2-1 .4-1.7.6-2.2l.6-1.5c0-.1.1-.2.2-.3.1-.1.1-.2.2-.3 0 0 .1-.1.1-.3.1-.1.1-.1.2-.1s.1 0 .2-.1c.2 0 .3-.1.4-.1-.1.7.1.6.3.5zm1.1-.8c-.2.1-.4.1-.5.1-.1 0-.3 0-.5-.1-.2 0-.4-.1-.6-.2-.2-.1-.3-.3-.4-.5-.1-.2-.1-.3-.2-.5 0-.2-.1-.3-.1-.5s0-.4.1-.6c0-.1.1-.3.2-.4.1-.1.2-.3.4-.4.1 0 .1 0 .1-.1l.1-.1c.3-.1.5-.2.8-.3.2-.1.5-.2.9-.2.5 0 .8.2 1.1.7.3.4.5.8.5 1.1v.4c0 .2-.1.4-.2.6-.1.2-.3.3-.4.5l-.6.3c-.2.1-.4.2-.7.2z"/><path d="M146.9 70.8c-.1.1-.2.3-.4.6s-.4.6-.5.9c-.2.3-.4.6-.5.9-.2.3-.3.5-.4.7-.3.6-.6 1.1-.8 1.7-.2.5-.4 1-.5 1.6-.1.3-.2.6-.2.8s-.1.5-.2.8c0 .2-.1.3-.1.3s0 .1-.1.3c-.1.2-.1.3-.2.4 0 .1-.1.2-.1.3v.8c-.1.3-.2.5-.2.9 0 .3-.1.6-.1.9 0 .2-.1.3-.1.4-.1 0-.1.2 0 .4 0 .2 0 .3-.1.3s-.1.1-.2.2c-.2.2-.2.3-.2.4 0 .1 0 .2-.2.3-.4.2-.8.4-1.2.5-.4.1-.8 0-1.1-.3-.1-.1-.1-.2-.1-.3 0-.1-.1-.1-.2-.2s-.1-.2-.2-.3c-.1-.2-.1-.3-.1-.3 0-.2 0-.3-.1-.5v-.2c0-.1.1-.2.1-.3 0-.3 0-.6.1-.9s.1-.6.1-.9l.5-3.5c.1-.8.2-1.4.3-1.9.1-.5.1-1 .2-1.5 0-.5.1-1 .2-1.5s.2-1.1.3-1.9c.1-.3.1-.7.2-1 .1-.4.1-.7.1-1.1.1-.4.1-.6.2-.8.1-.2.1-.4.1-.7.1-.6.4-1 .9-1.4.1-.1.3-.1.5-.1h.5c.9 0 1.5.4 1.7 1.4 0 0 0 .2-.1.5 0 .3-.1.6-.1.9-.1.3-.1.7-.1.9 0 .3-.1.4-.1.5V70.6l.1-.1c0-.1.1-.2.2-.3.1-.1.1-.2.2-.3 0-.1.1-.2.1-.2.2-.3.4-.7.6-1.1.2-.4.5-.8.7-1.1s.5-.7.7-.9c.2-.3.4-.5.6-.6.5-.4.7-.6.8-.7.1-.1.3-.2.5-.3.2-.1.4-.2.5-.2s.3-.1.6-.1h.8c.3 0 .6.1.7.2.3.2.6.4.9.7.3.3.5.6.6 1l.1.5c.1.7 0 1.3-.1 1.9-.2.6-.3 1.1-.5 1.6s-.3.9-.4 1.2c-.1.4-.2.7-.3 1.1-.3 1-.6 1.9-.8 2.9-.2 1-.4 2.1-.5 3.4v.5c0 .2.1.4.1.5s.2.2.3.2.4-.1.6-.3l.6-.6c.2-.3.5-.6.7-1 .2-.4.4-.7.6-1s.3-.6.4-.8l1.5-2.7c.1-.3.3-.6.4-.9.2-.4.3-.7.5-1.1.2-.4.3-.8.5-1.1.2-.4.3-.7.4-1 .1-.3.2-.5.3-.6s.3-.2.5-.4v.3c0 .1-.1.2-.1.3l.1-.1h.1c.1 0 .1 0 .1-.1s0-.1.1-.2c0-.1.1-.1.1-.2s.1-.1.2-.2c.1 0 .1.1.1.2v.2h.3s.1-.1.3-.1c.1.1.1.2.2.2 0 0 .1 0 .2.1v.2s.1.1.1.2.1.2 0 .3c-.1.1-.2.2-.3.2 0 .1 0 .2.1.2 0 .1.1.1.1.2.1 0 .1.1.1.2v.2c0 .2-.1.4-.3.7-.1.3-.3.6-.4.9s-.3.6-.4.9c-.1.3-.2.5-.3.7 0 .1-.1.2-.1.3 0 .1-.1.1-.1.2-.2.5-.4.9-.6 1.3l-.6 1.2c-.3.6-.6 1.1-.9 1.7-.3.5-.7 1.1-1.1 1.6-.1.1-.2.1-.2.2 0 .2 0 .3-.1.3s-.2.1-.2.2c-.1 0-.1.1-.2.2 0 .1-.1.1-.1.2-.2.3-.4.5-.6.7l-.7.7c-.1.1-.3.2-.4.3s-.4.2-.6.2c-.2.1-.4.1-.6.2-.2.1-.4.1-.5.1-.3.1-.6.1-.9.1-.3 0-.6-.1-.8-.2l-.5-.3c-.3-.1-.6-.4-.8-.7-.2-.3-.3-.6-.4-1-.1-.3-.2-.6-.2-.8-.1-.3-.1-.6-.1-.9 0-.6 0-1.1.1-1.7s.2-1.1.3-1.8c.2-1.1.4-2.1.6-3 .2-.9.6-1.8 1-2.7.2-.4.3-.8.4-1.1.1-.3.1-.5 0-.6-.1-.1-.3.1-.7.4-.6-.2-1.1.4-1.8 1.3z"/><path d="M162.1 61.8c.1-.1.2-.2.4-.3.2-.1.3-.2.5-.4.1-.1.2-.2.4-.2.1-.1.3-.1.4-.2h.3c.1 0 .1-.1.2-.2.3-.1.6-.1.9-.1.1-.1.3-.1.5-.1s.4.1.5.1c.3.1.6.2.8.3.2.1.5.3.7.5.4.4.6.9.8 1.4.2.5.3 1 .4 1.5v2.5c-.1 1.2-.4 2.5-.9 4.1 0 0-.1.1-.1.2-.1.1-.1.2-.2.4-.1.1-.1.3-.2.4-.1.1-.1.2-.1.2s.1 0 .3-.1l.6-.3c.2-.1.5-.3.9-.5.3-.2.5-.4.7-.6.2-.2.4-.4.5-.6.1-.2.3-.4.4-.6s.3-.5.5-.7c.2-.4.4-.9.7-1.4.3-.5.5-1 .7-1.4l.3-.4c-.1-.1-.1-.2-.1-.3l.1.1c.1.1.1.1.2.1 0 .1 0 .1.1.1s0 0 0 .1c.2-.1.2-.3.2-.3s0-.2.2-.3v.2s.1.1.2.1.2 0 .2-.1c.1 0 .1-.1.1-.2s0-.2.1-.3v.2c.1-.1.2-.1.2-.2 0 0 .1-.1.1-.2.1.1.1.2 0 .4-.1.1 0 .2.2.3 0-.2.1-.3.1-.4.1 0 .2.1.2.2v.7c.2 0 .2-.1.2-.1-.1.2-.1.4-.2.6v.6c-.1.1-.1.3-.1.4 0 .1 0 .3-.1.5-.1.4-.2.7-.3.9-.1.3-.2.6-.4.9-.1.1-.1.2-.1.3 0 .1-.1.2-.1.2-.2.3-.3.7-.5 1-.2.3-.4.6-.7.9-.2.3-.6.6-1.1 1.1-.5.5-1 .8-1.5 1.1l-1.2.6c-.6.3-1.1.5-1.6.6-.1.1-.3.2-.6.2s-.4.1-.5.3c-.1.2-.2.2-.2.3v.2l-.2.4c-.1.2-.2.3-.2.4v.2l-.2.4c-.2.3-.3.5-.5.8s-.4.6-.7.9c-.3.3-.6.7-1 1-.4.4-.8.7-1.3.9-.3.2-.6.4-.9.5-.3.2-.6.3-.9.3-.3.1-.6.1-.9.1-.3 0-.6 0-.9-.1l-.6-.3c-.2-.1-.4-.2-.5-.4-.2-.1-.4-.2-.5-.4l-.3-.6c-.1-.1-.1-.2-.2-.3-.1-.1-.1-.2-.1-.3-.1-.1-.2-.4-.2-.8-.2-.9-.3-1.8-.3-2.7 0-.9.1-1.8.3-2.8.1-.3.1-.6.1-1s.1-.7.1-1c.1-.2.1-.3.2-.5s.1-.3.2-.5c0-.2 0-.2.1-.3.2-.7.5-1.4.8-2.1.3-.7.7-1.4 1-2.1.1-.1.2-.3.3-.3.1-.1.2-.2.2-.3.1-.1.2-.3.3-.5.1-.2.2-.3.3-.4.1-.1.2-.1.2-.2s.1-.2.1-.2l2.2-2.1zm1.1 13.2c-.2-.1-.5-.2-.9-.3-.3-.1-.6-.2-.8-.4-.3-.2-.5-.4-.6-.5-.2-.2-.3-.3-.4-.5-.1-.2-.2-.3-.3-.6-.1-.2-.2-.5-.3-.7v.2c-.1.2-.2.4-.3.7-.1.3-.2.6-.2.8v1.1c-.1.5-.1.9-.1 1.4 0 .4.1.9.1 1.3 0 .2.1.4.2.5.1.2.1.3.2.5l.3.3c.1 0 .2-.1.2 0 0 0 .1 0 .2-.1 0-.1.1-.1.3-.2s.3-.1.3-.2.1-.2.2-.2c.1-.1.2-.2.3-.2.1-.2.2-.3.3-.4.1-.1.2-.3.4-.4.1-.2.2-.3.3-.3s.1-.1.1-.1v-.1l.2-.4c.1-.2.2-.3.2-.3.1-.1.1-.1.1-.2 0 0 .1-.1.1-.2s.1-.2.1-.3c0-.1.1-.1.1-.1l-.3-.1zm.8-2.6c0-.1.1-.2.1-.3 0-.2.1-.3.1-.3.2-.4.4-.9.5-1.4.2-.6.3-1.1.4-1.7.1-.6.2-1.1.3-1.6.1-.5.1-.8.1-1v-.6-.4-.3c0-.1 0-.2-.1-.4-.1-.4-.3-.6-.6-.6s-.7.1-1 .4c-.5.5-.9 1-1.2 1.5-.3.5-.5.9-.5 1.1 0 .1-.1.4-.2.6-.1.3-.1.5-.1.6-.1.3-.1.5-.1.6v.6c.1.1.1.3.1.4v.3c0 .1.1.3.1.5s.1.4.2.8c.4.6 1 1.1 1.9 1.2z"/></svg>