<svg version="1.1" id="expresso" xmlns="http://www.w3.org/2000/svg" x="0" y="0" viewBox="0 0 183 112" xml:space="preserve"><style>.st0{fill:#becbca}.st6{fill:#474747}</style><path class="st0" d="M5.1 49.9s1.5 8.8 6.3 14.3c4 4.6 14.6 14.6 18.1 17.9.8.7 1.8 1.1 2.8 1.1 3.8 0 13.2-.8 20.8-6.7.8-.6 1.3-1.4 1.5-2.4C55.8 68.5 60 47.6 59 42l-1.5-4.4-1.5-4.4c-.5-1.3-1.5-2.4-2.8-2.8-3.2-1-9.9-2-21.5 2C14.3 38.2 4.6 44 5.1 49.9z"/><path class="st0" d="M58.2 35.2s10.2-6.4 13.5 3.1-15.8 25-16.5 31.9l1.4-13.4s12.3-9.6 10.9-16-8.6.4-8.6.4l-2-5.4 1.3-.6z"/><path d="M9.6 55.4l-1.1-2.8s1.3-7.5 20.3-14 25.6-1.4 25.6-1.4l.4 1.3c1.2 4.1 1.7 8.4 1.5 12.6-.5 7.3-1.6 18.1-4.2 20.6-4.5 4.2-15.8 8.2-22 6.6-4.3-1.1-11.9-10-16.1-15.2-1.9-2.2-3.4-4.9-4.4-7.7z" fill="#0f0503"/><path d="M56.3 51.3c1.2-5.2-1.3-12.6-1.8-14.1 0 0-3.7-5.9-25 1.1S8.2 52 8.2 52c1.3 4 3.2 7.7 5.6 11.2 0 0 4.7 7.2 20.8 1.8 1.6-.5 6.5-2.3 8-3.1 4.7-2.5 11.4-7.2 13.7-10.6z" fill="#ca8319"/><path d="M52.8 37.6c.2.3-1.7 2.1-4.9 4.8-1.9 1.6-4 3-6.2 4.3-2.7 1.6-5.5 2.8-8.4 3.8-1.5.5-3 1-4.6 1.3-1.5.3-3 .6-4.4.8-2.5.3-4.9.6-7.4.7-1.7.1-3.3 0-5-.2-1.2-.2-1.8-.4-1.8-.6s.7-.3 1.8-.4 2.8-.3 4.9-.6 4.5-.7 7.2-1.2c1.3-.3 2.8-.5 4.2-.9s2.9-.8 4.3-1.3c2.8-.9 5.5-2.1 8.1-3.4 2.4-1.3 4.5-2.6 6.3-3.7 3.4-2.4 5.7-3.7 5.9-3.4z" fill="#7c541e"/><path class="st0" d="M54.7 31.5c.1 0 .7.7 1.2 2.3.3 1.1.2 2.2-.1 3.2-.4 1.3-1 2.6-1.8 3.7-2.1 2.9-4.7 5.3-7.8 7.2-3.7 2.2-7.6 3.9-11.6 5.2-4 1.4-8.1 2.4-12.3 3-1.9.2-3.8.3-5.6.2-1.6-.1-3.2-.3-4.8-.6-1.4-.1-2.7-.5-4-1.1-1-.5-1.8-1.4-2.3-2.3-.8-1.6-.5-2.6-.4-2.6s.3.9 1.3 2.1c.5.7 1.3 1.2 2.1 1.6 1.2.4 2.4.6 3.6.6 1.4.1 3 .3 4.6.3 1.8 0 3.5-.1 5.2-.4 4-.7 8-1.8 11.8-3.2 3.9-1.2 7.6-2.8 11.2-4.8 2.9-1.6 5.4-3.7 7.5-6.2.8-.9 1.4-2 1.9-3.1.4-.8.5-1.7.5-2.6-.1-1.5-.4-2.4-.2-2.5z"/><path d="M39.4 73.9c.1.2-.3.5-1.1.9-1.2.5-2.4.8-3.7.8-1.9 0-3.7-.3-5.5-1-2.1-.8-4.1-2-5.8-3.5-1.7-1.4-3.2-3-4.6-4.6-1.2-1.3-2.3-2.7-3.3-4.2-1.7-2.5-2.4-4.3-2.1-4.5s1.5 1.2 3.6 3.3c1 1.1 2.2 2.3 3.6 3.7 1.4 1.4 2.9 2.9 4.6 4.2 1.5 1.3 3.2 2.4 5 3.3 1.5.7 3 1.1 4.7 1.4 2.7.4 4.4-.2 4.6.2z" fill="#fff"/><path d="M38.4 39.3c.1.7-6.7 2.3-14.6 5.6-2 .8-3.8 1.6-5.5 2.4-1.5.6-2.8 1.4-4.1 2.3-2.2 1.5-2.6 3.2-2.9 3.2-.2 0-.3-.5-.1-1.4.3-1.2 1-2.3 1.9-3.2 1.3-1.2 2.7-2.2 4.3-3 1.8-1 3.7-1.9 5.6-2.7 3.5-1.4 7.1-2.5 10.8-3.1 2.8-.5 4.6-.4 4.6-.1z" fill="#fca83a"/><path class="st6" d="M66.7 67.4l-2.8.5V48.1c3.9-.5 5.9-.8 9.8-1.5 1.1-.2 2.2.1 3 .8.8.7 1.3 1.7 1.3 2.8V53c0 1.2-.4 2.3-1.2 3.2-.8.9-1.8 1.5-3 1.7-2.8.5-4.2.7-7 1.1v8.4zm0-11.2c2.8-.4 4.2-.7 7-1.1.8-.2 1.3-.8 1.3-1.6v-2.8c0-.6-.5-1.2-1.1-1.2h-.3c-2.8.5-4.2.7-7 1.1l.1 5.6zM93.2 52.4c.1.2.1.4.1.6 0 3.9-.1 5.8-.1 9.7l-2.8.5v-5.5c-3.4.6-5.1.9-8.4 1.5v5.6l-2.8.5v-9.7c0-.2.1-.4.1-.6l4.2-9.1c.2-.5.7-.9 1.3-1l2.8-.5c.5-.2 1 .1 1.3.6 1.8 2.9 2.7 4.4 4.3 7.4zm-11.1 4c3.4-.6 5.1-.9 8.4-1.5v-1.1l-3.7-6.6-1.1.2c-1.5 3.2-2.2 4.8-3.7 7.9.1.5.1.7.1 1.1zM100.2 61.4c-1 .3-2.2 0-3-.7-.8-.7-1.2-1.7-1.1-2.7.1-4.4.1-6.6.2-11.1 0-1.2.5-2.3 1.3-3.2.8-.9 1.8-1.6 3-1.8l5.7-1.1c1.1-.2 2.2 0 3 .7.8.7 1.3 1.7 1.2 2.8v1.4l-2.8.5v-1.4c0-.6-.4-1.1-1-1.2h-.4l-5.7 1c-.8.2-1.4.8-1.4 1.7 0 4.5 0 6.7-.1 11.1 0 .6.4 1.1 1 1.2h.4l5.7-1.1c.8-.2 1.4-.8 1.4-1.7v-1.4l2.8-.5v1.4c0 1.2-.5 2.3-1.3 3.2-.8.9-1.8 1.6-3 1.8l-5.9 1.1zM127.6 42.6c0 .4-.2.7-.4 1l-3.3 3.7c1.3 1 2 1.5 3.3 2.5.3.2.4.5.4.9v5.4l-2.9.6v-4.9c-1.4-1-2.1-1.6-3.5-2.6l-5.2 1c-.1 3.3-.1 4.9-.2 8.2l-2.9.6c.2-7.8.3-11.4.4-19.4l2.8-.5c-.1 3.4-.1 5.1-.2 8.4l5.1-1 3.5-4v-5l2.8-.5c.3 2.3.3 3.4.3 5.6zM62.4 73.1v-1.4c22.3-3.9 44.4-8 66.6-12.4v1.4c-22.1 4.4-44.3 8.5-66.6 12.4z"/><path d="M43.9 95.4c-.2.6-.3 1.2-.3 1.9-.1.7-.1 1.3 0 1.8.1.3.2.7.3 1 .1.2.3.3.5.3h.7c.2 0 .4-.1.6-.1.3 0 .5-.1.7-.2 1-.6 2-1.4 2.9-2.3.4-.5.9-1 1.3-1.6.4-.6.8-1.2 1.2-1.9.4-.6.8-1.3 1.1-1.9.3-.6.6-1.1.9-1.6.1-.1.1-.2.2-.4l.3-.6.3-.6c.1-.2.2-.4.2-.5.1-.1.1-.3.2-.3.1-.1.2-.1.3-.1v-.1-.2c0-.1 0-.1.1-.2h.4s.1 0 .1.1c0-.1.1-.1.3-.2.2-.1.3 0 .4.2l.1.1.1.1s.1.1.1.2v.2h.2l-.5 1.8h.1c.1 0 .1 0 .1.1-.1.5-.3 1-.5 1.4-.5 1.1-1.1 2.3-1.9 3.6-.7 1.3-1.6 2.5-2.5 3.6-.9 1.1-1.9 2.1-3 2.9s-2.2 1.4-3.3 1.6c-.2 0-.5.1-1 .1s-.8.1-1 .1c-.3 0-.6 0-1-.1-.3-.1-.6-.2-.9-.4-.2-.1-.5-.3-.7-.5-.2-.2-.4-.5-.6-.7-.1-.1-.1-.2-.2-.3 0-.1-.1-.2-.1-.3-.2-.3-.3-.6-.4-.9-.1-.3-.1-.6-.2-1v-.7-.6-.6-.5-.5l.2-2c.3-1.2.6-2.3 1-3.5.4-1.1.9-2.2 1.5-3.2s1.2-1.9 2-2.7c.8-.8 1.6-1.4 2.7-1.8.3-.1.6-.1 1-.1s.7.1.9.2c.2 0 .4.2.6.3.5.4.8.8.9 1.4.1.3.2.6.2.9v1c-.1.1-.1.2-.1.3-.3 1.6-.7 2.9-1.2 4.2-.5 1.2-1.4 2.4-2.5 3.5-.2.2-.5.4-.8.5-.3.1-.7.2-1.2.2h-.1-.2l-.1-.1c-.2 0-.3-.1-.4-.2.3 0 .2-.1 0-.1zm.5-2.7c0 .1.1.2.1.2s.1 0 .1.1H44.9c.7-.4 1.3-1 1.7-1.8.4-.8.7-1.5 1-2.3.1-.2.1-.4.2-.6 0-.2.1-.3.1-.5v-.3c0-.1-.1-.2-.1-.3-.1-.2-.1-.2-.2-.2s-.2 0-.4.1l-.6.6c-.1.1-.3.3-.4.6-.4.5-.6.9-.7 1.2-.1.3-.2.5-.3.6-.1.2-.1.3-.2.5l-.4.8c-.1.1-.1.2-.1.3 0 .1 0 .3-.1.3v.4c0-.1 0 0 0 0v.3zm11.7-4.6c0 .1 0 .1 0 0z"/><path d="M54.4 91.3c0-.4-.1-.8-.1-1.2-.1-.4-.1-.8-.1-1.2l-.2-2.1c-.1-.4-.1-.9-.1-1.3s-.1-.8-.1-1.3c-.1-.2-.1-.4-.1-.7 0-.3 0-.7.1-1.2l.1-.1.1-.1c.2-.1.3-.3.3-.4l.7-.2h.5c.1 0 .3.1.4.2.1 0 .1 0 .1.1l.6.8c.1.1.2.2.2.4s0 .3.1.4l.2 2.6c0 .3.1.5.1.8v.7c0 .2 0 .3.1.4h.1v-.1l2.1-3.6c.2-.3.4-.6.5-.8.2-.3.3-.5.4-.8l.3-.6c.1-.2.2-.3.3-.5.1-.2.2-.3.3-.5.1-.2.3-.2.4-.3.2 0 .4-.1.5-.2.1-.1.3-.2.5-.2s.3.1.4.2c.4.1.7.3 1 .7.1.1.1.3.1.3v.3c0 .2 0 .4-.1.6-.1.2-.2.4-.3.5 0 .1-.1.1-.2.2s-.1.2-.2.3l-1 1.3c-.2.4-.5.8-.7 1.2-.2.4-.5.8-.7 1.2l-.9 1.3-.4.6-1.7 2.9c0 .1 0 .2-.2.3 0 .5.1 1 .3 1.7.2.7.3 1.3.5 1.7.1.5.4.9.6 1.1.1.2.2.3.4.4.2.1.3.1.4.1l.5-.2c.4-.3.8-.7 1.3-1.1.3-.3.5-.5.7-.8.2-.2.4-.4.5-.7.2-.2.3-.5.5-.7.2-.3.4-.5.6-.9.1-.2.3-.5.4-.9.1-.4.3-.8.5-1.3.2-.4.4-.9.5-1.3.2-.4.3-.7.4-.9l.3-.3c.1-.1.1-.2.2-.2s.2 0 .3-.1.1-.1.2-.1c.2 0 .3.1.3.2.1.1.2.2.3.2.2 0 .4.1.5.2l.2.4c.1.3.1.6 0 .8 0 .2-.1.4-.1.6-.1.2-.1.4-.3.7 0 .1-.1.4-.2.7-.1.3-.2.6-.3 1-.1.3-.2.7-.4 1-.1.3-.2.5-.3.6-.2.4-.4.8-.7 1.2-.2.4-.5.7-.7 1-.5.7-1 1.3-1.6 1.9-.6.6-1.2 1.1-1.9 1.6-.1.2-.3.3-.5.3l-.6.3c-.2.1-.4.2-.5.2-.2 0-.4 0-.6.1-.5.1-1 .1-1.5 0l-.3-.1c-.2-.1-.5-.2-.7-.4-.2-.1-.4-.3-.6-.5l-.5-.7-.5-1.1c0-.1-.1-.2-.1-.3-.1 0-.1-.1-.1-.3s-.1-.4-.1-.5c0-.2-.1-.4-.1-.5 0-.2-.1-.2-.1-.2l-.4.6c-.2.3-.3.6-.4.8-.1.2-.2.5-.4.8-.1.2-.2.4-.4.6-.2.3-.3.5-.5.6-.1.1-.1.2-.1.3 0 .1-.1.2-.2.2s-.1.1-.2.1l-.3.3c0 .1-.1.2-.1.1h-.1c0 .1-.1.1-.1.2 0 0-.1.1-.2.1 0 0-.1.1-.3 0h-.4c0-.1-.1-.2-.2-.2s-.2-.1-.2-.2l-.1-.1-.1-.1v-.4l-.3.2v-.5c0-.2 0-.3-.1-.5v-.3c0-.1 0-.2.1-.4l.5-.7c.3-.6.6-1.1.9-1.7.3-.5.6-1.1.9-1.6l1.9-3.1.3.1z"/><path d="M69.1 95.8c-.1.2-.1.4-.1.6v.8s0 .1-.1.1c-.1.1-.1.2-.1.3v.4c0 .1 0 .1-.1.3l-.1.5-.1.5v.8c0 .5-.1 1.1-.2 1.8s-.1 1.2-.1 1.6c-.1.1-.1.3-.1.5s0 .3-.1.6v.3c0 .1 0 .2.1.3 0 .1 0 .2-.1.4.1.4 0 .7-.2 1-.2.3-.4.5-.6.7-.1.1-.2.1-.3.1-.1 0-.2.1-.4.1-.1 0-.3 0-.4.1-.4 0-.8-.1-1.3-.6-.3-.5-.4-1.1-.3-1.8l.1-.7c0-.3.1-.7.1-1 0-.3.1-.6.1-.9 0-.2 0-.4.1-.5 0-.1.1-.2.1-.3 0-.1.1-.2.1-.3 0-.1.1-.3.1-.5v-.3-.1-.1s0-.2.1-.3c0-.2.1-.3.1-.4v-.1-.1-.4c0-.2.1-.5.2-.7.1-.3.1-.5.1-.7.1-.8.2-1.6.3-2.6 0-1 .1-1.9.3-2.9.1-.4.1-.8.2-1.1 0-.4.1-.7.1-1.1.1-.5.2-.9.2-1.4 0-.5.1-1 .2-1.5 0-.3.1-.7.1-1.1v-1.3c0-.4 0-.9.1-1.3 0-.4.1-.8.2-1.1.1-.4.2-.7.3-1 .1-.2.4-.5.7-.7.1-.1.3-.2.6-.1.1 0 .1.1.2.1 0 0 .1 0 .2.1l.3.1s.1 0 .1.1c0 0 .1 0 .1.1.1.1.3.2.4.3.1.2.2.4.4.5.1.1.1.2.2.4v.8c0 .3-.1.6-.1.9-.1.3-.1.5-.1.6.3-.6.7-1.2 1.1-1.7.4-.5.7-1 1-1.3.5-.8 1.2-1.3 1.8-1.7s1.3-.6 1.8-.7c.1 0 .1 0 .2-.1s.2-.1.3-.1h.4c.2 0 .3 0 .5.1.1 0 .4.1.7.2.3.1.6.2.7.4.1.2.2.3.4.4.1.1.2.3.3.5.1 0 .1.2.2.5s.2.7.3 1.1.1.8.2 1.2v.7c.1.6 0 1.3 0 1.9-.1.6-.2 1.3-.3 1.9-.1.7-.3 1.4-.5 2-.2.7-.5 1.3-.7 1.9-.2.3-.3.7-.5 1s-.3.7-.4 1c-.1.1-.1.2-.2.4s-.1.3-.3.4c-.2.3-.3.6-.5 1l-.6.9c-.4.4-.8.8-1.1 1.2-.3.3-.6.5-.9.6-.3.2-.7.3-1.1.4-.4.1-.8.1-1.2 0-.4-.1-.8-.3-1.3-.7-.2-.2-.3-.4-.5-.6-.2-.3-.3-.5-.5-.7 0 0-.1-.1-.1-.2-.7-.6-.8-.6-.8-.7zm1.4-4.5v.3c0 .1-.1.2-.1.3 0 .1.1.4.2.7.1.3.1.6.2.7 0 .1.1.3.2.4.1.2.2.3.4.4.2.1.4.2.5.2.2 0 .4 0 .6-.1.1 0 .2-.1.2-.1l.2-.2.5-.5c.1-.1.3-.3.5-.6.4-.5.8-1.2 1.1-2l.9-2.4c.5-1.3.7-2.7.7-4.4v-.4-.4c0-.2-.2-.4-.4-.5h-.7c-.2.2-.3.3-.5.3-.1.1-.3.2-.5.3-.5.4-1 .8-1.5 1.5-.5.6-.9 1.2-1.2 1.7-.4.5-.7 1.1-.9 2 0 .8-.2 1.7-.4 2.8z"/><path d="M97 82.1h.8c.1-.1.2-.1.3 0 0 .1.1.1.2.1.1.2.1.3.1.4 0 .1.1.1.2.2.1 0 .1.1 0 .2s-.1.1 0 .2c.1.2.1.3.1.4v.3c-.1.2-.1.5-.1.7 0 .2-.1.4-.2.7l-.3.6c-.1.2-.2.4-.3.7 0 .1-.1.3-.2.5s-.2.5-.4.7c-.1.3-.3.5-.4.7-.1.2-.2.4-.2.5-.1.3-.3.5-.4.7-.1.2-.2.3-.3.5s-.2.3-.3.5c-.1.2-.2.3-.4.5-.1.1-.2.2-.2.4-.1.1-.1.2-.2.3-.3.3-.5.7-.7 1-.2.3-.5.6-.7 1l-.4.4-.4.4c-.2.2-.3.4-.5.5-.2.1-.3.3-.6.4-.1.1-.3.2-.3.2-.1.1-.2.1-.2.2-.1.1-.2.1-.2.2-.1.1-.2.1-.4.3-1 .4-1.8.4-2.4.2-.6-.2-1.1-.7-1.6-1.3-.2-.6-.4-1.3-.4-2s0-1.3.1-2c.1-.4.1-.8.2-1.2l.3-1.2c.1-.3.2-.6.2-.9.1-.5.2-1 .4-1.3.1-.3.3-.7.4-1.2.2-.4.3-.8.5-1.1.1-.3.3-.7.4-1.2 0-.2.1-.4.4-.8.2-.4.4-.7.6-1 .2-.3.2-.5.2-.6 0-.1-.3 0-.7.3-.1.1-.3.2-.5.3s-.4.3-.7.4c-.2.1-.4.3-.6.4-.2.1-.4.2-.5.2-.1 0-.1.1-.2.1 0 .1-.1.1-.1.2l-.9 2.1c-.3.6-.6 1.4-.9 2.2-.2.3-.3.5-.5.7-.2.2-.4.3-.7.3h-.5c-.1 0-.2-.1-.3-.2l-.3-.3c-.1 0-.1 0-.1-.1v-.1-.1-.1-.2c-.1-.1-.1-.2 0-.3 0-.1.1-.1.1-.2.1-.1 0-.2 0-.3 0 0 .1-.1.1-.3.1-.2.1-.3.2-.5s.1-.4.2-.6c.1-.2.1-.3.1-.4.1-.3.2-.5.2-.7.1-.2.1-.3.2-.4 0-.1.1-.2 0-.2s-.1 0-.2.1-.2.1-.2 0c-.3.1-.6.1-1.1 0-.5-.1-.8-.2-.9-.4-.1-.1-.2-.3-.4-.5s-.3-.4-.3-.5c-.1-.2-.1-.5-.2-.9 0-.3 0-.7.1-1 .1-.2.1-.4.2-.5 0-.1.1-.2.1-.3s.1-.2.1-.3c.1-.1.1-.3.2-.5.2-.3.4-.6.6-.7.2-.1.4-.3.7-.6.1 0 .2-.1.3-.1s.2-.1.2-.2c.6-.3 1.2-.5 1.7-.5.5-.1 1 0 1.4.2.4.2.6.5.8.9.2.4.2 1 0 1.7.1.1.1.1.2.1.1-.1.5-.2 1-.6s1-.6 1.6-1c.6-.3 1.2-.6 1.7-.8.6-.2 1-.3 1.2-.2.2.1.3.2.5.2.2.1.3.2.4.3.1.1.2.3.3.5.1.2.2.4.2.7l.1.4c.1.6 0 1.1-.2 1.7-.2.6-.4 1.1-.6 1.6-.1.5-.4 1.1-.8 1.8s-.7 1.3-.9 1.9c-.1.2-.1.4-.1.5 0 .1-.1.2-.1.4 0 .1-.1.2-.1.4 0 .1-.1.3-.2.5-.1.3-.2.6-.3.8-.1.3-.2.5-.3.8-.1.3-.2.6-.2.9-.1.3-.2.7-.2 1.2-.2.6-.2 1-.1 1.2s.3.3.5.3.5-.2.8-.4c.3-.2.6-.5.7-.8.2-.2.4-.6.7-.9.3-.4.5-.7.8-1.1.2-.4.5-.8.7-1.1.2-.4.4-.7.4-.9.2-.4.5-.8.8-1.4.3-.6.6-1.1.8-1.5.2-.2.3-.5.5-.9s.4-.7.5-.9c.1-.2.1-.3.2-.3-.1-.2 0-.3.1-.3zm-13.6-3.5c-.1 0-.2 0-.3-.1s-.2.1-.3.4c-.1.2-.2.3-.2.3s0 .1-.1.4c-.1.2-.1.4-.1.5 0 .1.1.2.2.2h.3c.1 0 .2 0 .3-.1.1-.4.2-.8.3-1.1.1-.4.1-.5-.1-.5z"/><path d="M99.2 85.4c-.2.6-.3 1.2-.3 1.9-.1.7-.1 1.3 0 1.8.1.3.2.7.3 1 .1.2.3.3.5.3h.7c.2 0 .4-.1.6-.1.3 0 .5-.1.7-.2 1-.6 2-1.4 2.9-2.3.4-.4.9-1 1.3-1.6.4-.6.8-1.2 1.2-1.9.4-.6.8-1.3 1.1-1.9.3-.6.6-1.1.9-1.6.1-.1.1-.2.2-.4l.3-.6.3-.6c.1-.2.2-.4.2-.5.1-.1.1-.3.2-.3.1-.1.2-.1.3-.1v-.1-.2c0-.1 0-.1.1-.2h.4s.1 0 .1.1c0-.1.1-.1.3-.2.2-.1.3 0 .4.2l.1.1.1.1s.1.1.1.2v.2h.2l-.5 1.8h.1c.1 0 .1 0 .1.1-.1.5-.3 1-.5 1.4-.5 1.1-1.1 2.3-1.9 3.6-.7 1.3-1.6 2.5-2.5 3.6-.9 1.1-1.9 2.1-3 2.9-1.1.8-2.2 1.4-3.3 1.6-.2 0-.5.1-1 .1-.5.1-.8.1-1 .1-.3 0-.6 0-1-.1-.3-.1-.6-.2-.9-.4-.2-.1-.5-.3-.7-.5-.2-.2-.4-.5-.6-.7.4 0 .3-.1.3-.2s-.1-.2-.1-.3c-.2-.3-.3-.6-.4-.9-.1-.3-.1-.6-.2-1v-.7-.6-.6-.5-.5l.2-2c.3-1.2.6-2.3 1-3.5S97.4 79 98 78s1.2-1.9 2-2.7c.8-.8 1.6-1.4 2.7-1.8.3-.1.6-.1 1-.1s.7.1.9.2c.2 0 .4.2.6.3.5.4.8.8.9 1.4.1.3.2.6.2.9v1c-.1.1-.1.2-.1.3-.3 1.6-.7 2.9-1.2 4.2-.5 1.2-1.4 2.4-2.5 3.5-.2.2-.5.4-.8.5-.3.1-.7.2-1.2.2h-.1-.2l-.1-.1c-.2 0-.3-.1-.4-.2-.1-.1-.2-.2-.5-.2zm.6-2.7c0 .1.1.2.1.2s.1 0 .1.1H100.3c.7-.4 1.3-1 1.7-1.8.4-.8.7-1.5 1-2.3.1-.2.1-.4.2-.6 0-.2.1-.3.1-.5v-.3c0-.1-.1-.2-.1-.3-.1-.2-.2-.2-.2-.2s-.2 0-.4.1l-.6.6c-.1.1-.3.3-.4.6-.4.5-.6.9-.7 1.2-.1.3-.2.5-.3.6-.1.2-.1.3-.2.5l-.4.8c-.1.1-.1.2-.1.3 0 .1 0 .3-.1.3v.4c0-.1 0 0 0 0v.3zm11.7-4.6c0 .1 0 0 0 0z"/><path d="M125.5 77.3c-.1.1-.2.2-.1.3 0-.1.1-.1.2-.2l.1.4c.1 0 .1-.1.1-.1 0-.1 0-.1.1-.1l.2.1.2-.2c.1 0 .1 0 .1.1s.1 0 .2 0v.2c-.1.2-.1.3.1.4 0 .1.1.3.1.4.1.1 0 .3 0 .5v.1c-.2.9-.5 1.7-.9 2.4-.2.4-.4.8-.6 1.1-.3.4-.5.7-.7 1.1-.2.4-.5.8-.7 1.1-.2.3-.5.7-.8 1-.4.5-.9 1-1.3 1.4-.4.4-.9.9-1.4 1.3-.1.1-.2.1-.2.2s0 .1-.1.2-.1.1-.2.1c0 0-.1 0-.1.1-.2.2-.3.3-.5.4-.1.1-.3.3-.6.4l-.6.3-.6.3c-.5.2-1 .4-1.5.5-.5.1-1.1.2-1.7.2-.5 0-.9-.1-1.3-.2s-.8-.2-1.2-.4c-.4-.2-.8-.5-1.2-.9-.4-.4-.7-.8-.9-1.2-.2-.4-.4-.9-.6-1.4-.2-.5-.4-1-.5-1.4v-.1l-.1-.4h-.2c0-.1.1-.1 0-.2-.1 0-.1 0-.1.1v-.3c0-.1-.1-.2-.1-.4s0-.4.1-.7c.1-.3.2-.7.4-1.1.2-.4.4-.9.7-1.5v-.1c0-.1 0-.1.1-.2v-.1c.1-.4.3-.7.5-1.1s.4-.7.5-1c.2-.4.5-.9.7-1.4s.5-.9.7-1.4c.2-.6.5-1.1.8-1.6.4-.5.6-1.1.8-1.6.1-.3.3-.5.4-.8 0-.1.1-.1.1-.2l.2-.2c.3-.1.5-.3.6-.4.1-.2.2-.2.2-.2.1.1.2 0 .2-.2h.4s.1-.1.2-.1.2-.1.2-.1c0 .1 0 .1.1 0 0 0 .1 0 .1.1.1 0 .2.1.3.1.1.1.2.1.3.1.1 0 .2.1.2.3 0 .2.1.3.1.4.1 0 .2.1.2.3.1.2.1.4 0 .6-.1.2-.2.4-.4.7-.2.3-.1.9.1 1.5v.3c0 .1 0 .1.1.2v.1c.1.4.2.8.3 1.1.1.3.2.7.3 1.1l.5 2c.2.9.4 1.8.5 2.7.1.9.1 1.8.1 2.7 0 .2 0 .4-.1.6v.7c.2-.3.4-.5.7-.7.2-.2.4-.5.6-.7.5-.6 1-1.2 1.5-2s1-1.5 1.4-2.2c.1-.1.2-.3.3-.4.1-.1.2-.3.3-.5.1-.2.2-.3.2-.5s.1-.3.3-.4c0-.1.1-.1.1-.2s0-.1.1-.2.1-.3.2-.3l.3-.3v.2c0-.1.1-.1.1-.2s.1-.1.1-.2.1-.1.1-.2h.6zm-10.9.1c0 .1-.1.1-.1.2v.1c-.2.3-.3.6-.4 1-.1.3-.2.7-.4 1 0 .1-.1.2-.2.3-.1.1-.1.2-.1.3-.1.2-.2.5-.3.7-.1.3-.3.5-.3.7-.1.3-.2.6-.3.8 0 .2-.2.5-.4.8 0 .1-.1.2-.1.4s-.1.3-.1.4v.3c0 .1 0 .2-.1.2v.5c0 .2 0 .4.1.6 0 .1.1.3.1.6.1.3.1.5.2.6.1.2.2.4.4.6.2.2.4.3.5.4.2.1.4.1.5.1.1 0 .2 0 .4-.1.1 0 .3-.1.5-.2s.3-.2.4-.3c.1-.2.2-.4.4-.6.1-.2.2-.5.3-1 .1-.3.1-.5.1-.8 0-.3 0-.6.1-.8 0-.5-.1-.9-.1-1.4 0-.5-.1-.9-.2-1.4-.1-.3-.1-.6-.1-.9 0-.3-.1-.6-.2-.9l-.3-1.2c0-.1-.1-.2-.1-.3s-.2-.5-.2-.7z"/><path d="M140 74.7c-.1.1-.2.2-.1.3 0-.1.1-.1.2-.2l.1.4c.1 0 .1-.1.1-.1 0-.1 0-.1.1-.1l.2.1.2-.2c.1 0 .1 0 .1.1h.2v.2c-.1.2-.1.3.1.4 0 .1.1.3.1.4.1.1 0 .3 0 .5v.1c-.2.9-.5 1.7-.9 2.4-.2.4-.4.8-.6 1.1-.3.4-.5.7-.7 1.1-.2.4-.5.8-.7 1.1-.2.3-.5.7-.8 1-.4.5-.9 1-1.3 1.4s-.9.9-1.4 1.3c-.1.1-.2.1-.2.2s0 .1-.1.2-.1.1-.2.1c0 0-.1 0-.1.1-.2.2-.3.3-.5.4-.1.1-.3.3-.6.4l-.6.3-.6.3c-.5.2-1 .4-1.5.5-.5.1-1.1.2-1.7.2-.5 0-.9-.1-1.3-.2s-.8-.2-1.2-.4c-.4-.2-.8-.5-1.2-.9-.4-.4-.7-.8-.9-1.2-.2-.4-.4-.9-.6-1.4-.2-.5-.4-1-.5-1.4v-.1l-.1-.4h-.2c0-.1.1-.1 0-.2-.1 0-.1 0-.1.1v-.3c0-.1-.1-.2-.1-.4s0-.4.1-.7c.1-.3.2-.7.4-1.1.2-.4.4-.9.7-1.6v-.1c0-.1 0-.1.1-.2v-.1c.1-.4.3-.7.5-1.1s.4-.7.5-1c.2-.4.5-.9.7-1.4s.5-.9.7-1.4c.2-.6.5-1.1.8-1.6.4-.5.6-1.1.8-1.6.1-.3.3-.5.4-.8 0-.1.1-.1.1-.2l.2-.2c.3-.1.5-.3.6-.4.1-.2.2-.2.2-.2.1.1.2 0 .2-.2h.4s.1-.1.2-.1.2-.1.2-.1c0 .1 0 .1.1 0 0 0 .1 0 .1.1.1 0 .2.1.3.1.1.1.2.1.3.1.1 0 .2.1.2.3 0 .2.1.3.1.4.1 0 .2.1.2.3.1.2.1.4 0 .6-.1.2-.2.4-.4.7-.2.3-.1.9.1 1.5v.3c0 .1 0 .1.1.2v.1c.1.4.2.8.3 1.1.1.3.2.7.3 1.1l.5 2c.2.9.4 1.8.5 2.7.1.9.1 1.8.1 2.7 0 .2 0 .4-.1.6s0 .4 0 .6v.1c.2-.3.4-.5.7-.7.2-.2.5-.5.6-.7.5-.6 1-1.2 1.5-2s1-1.5 1.4-2.2c.1-.1.2-.3.3-.4.1-.1.2-.3.3-.5.1-.2.2-.3.2-.5s.1-.3.3-.4c0-.1.1-.1.1-.2s0-.1.1-.2.1-.3.2-.3l.3-.3v.2c0-.1.1-.1.1-.2s.1-.1.1-.2.1-.1.1-.2c.4.1.5.1.6.1zm-10.9.1c0 .1-.1.1-.1.2v.1c-.2.3-.3.6-.4 1-.1.3-.2.7-.4 1 0 .1-.1.2-.2.3-.1.1-.1.2-.1.3-.1.2-.2.5-.3.7-.1.3-.3.5-.3.7-.1.3-.2.6-.3.8 0 .2-.2.5-.4.8 0 .1-.1.2-.1.4s-.1.3-.1.4v.3c0 .1 0 .2-.1.2v.5c0 .2 0 .4.1.6 0 .1.1.3.1.6.1.3.1.5.2.6.1.2.2.4.4.6.2.2.4.3.5.4.2.1.4.1.5.1.1 0 .2 0 .4-.1.1 0 .3-.1.5-.2s.3-.2.4-.3c.1-.2.2-.4.4-.6.1-.2.2-.5.3-1 .1-.3.1-.5.1-.8 0-.3 0-.6.1-.8 0-.5-.1-.9-.1-1.4 0-.5-.1-.9-.2-1.4-.1-.3-.1-.6-.1-.9 0-.3-.1-.6-.2-.9l-.3-1.2c0-.1-.1-.2-.1-.3-.1-.3-.1-.5-.2-.7z"/><path d="M144.3 66.2c.1-.1.2-.2.4-.3.2-.1.3-.2.5-.4.1-.1.2-.2.4-.2.1-.1.3-.1.4-.2h.3c.1 0 .1-.1.2-.2.3-.1.6-.1.9-.1.1-.1.3-.1.5-.1s.4.1.5.1c.3.1.6.2.8.3s.5.3.7.5c.4.4.6.9.8 1.4.2.5.3 1 .4 1.5V71c-.1 1.2-.4 2.5-.9 4.1 0 0-.1.1-.1.2-.1.1-.1.2-.2.4s-.1.3-.2.4c-.1.1-.1.2-.1.2s.1 0 .3-.1l.6-.3c.2-.1.5-.3.9-.5.3-.2.5-.4.7-.6.2-.2.4-.4.5-.6.1-.2.3-.4.4-.6.1-.2.3-.5.5-.7.2-.4.4-.9.7-1.4.3-.5.5-1 .7-1.4l.3-.4c-.1-.1-.1-.2-.1-.3l.1.1c.1.1.1.1.2.1 0 .1 0 .1.1.1v.1c.2-.1.2-.3.2-.3-.1-.1 0-.2.2-.3v.2s.1.1.2.1.2 0 .2-.1c.1 0 .1-.1.1-.2s0-.2.1-.3v.2c.1-.1.2-.1.2-.2s.1-.1.1-.2c.1.1.1.2 0 .4-.1.1 0 .2.2.3 0-.2.1-.3.1-.4.1 0 .2.1.2.2v.7c.2 0 .2-.1.2-.1-.1.2-.1.4-.2.6v.6c-.1.1-.1.3-.1.4 0 .1 0 .3-.1.5-.1.4-.2.7-.3.9-.1.3-.2.6-.4.9-.1.1-.1.2-.1.3 0 .1-.1.2-.1.2-.2.3-.3.7-.5 1-.2.3-.4.6-.7.9-.2.3-.6.6-1.1 1.1-.5.5-1 .8-1.5 1.1l-1.2.6c-.6.3-1.1.5-1.6.6-.1.1-.3.2-.6.2s-.4.1-.5.3c-.1.2-.2.2-.2.3v.2l-.2.4c-.1.2-.2.3-.2.4v.2l-.2.4c-.2.3-.3.5-.5.8-.1.3-.4.6-.7.9-.3.3-.6.7-1 1-.4.4-.8.7-1.3.9-.3.2-.6.4-.9.5-.3.2-.6.3-.9.3-.3.1-.6.1-.9.1-.3 0-.6 0-.9-.1l-.6-.3c-.2-.1-.4-.2-.5-.4-.2-.1-.4-.2-.5-.4l-.3-.6c-.1-.1-.1-.2-.2-.3-.1-.1-.1-.2-.1-.3-.1-.1-.2-.4-.2-.8-.2-.9-.3-1.8-.3-2.7s.1-1.8.3-2.8c.1-.3.1-.6.1-1s.1-.7.1-1c.1-.2.1-.3.2-.5s.1-.3.2-.5c0-.2 0-.2.1-.3.2-.7.5-1.4.8-2.1.3-.7.7-1.4 1-2.1.1-.1.2-.3.3-.3.1-.1.2-.2.2-.3.1-.1.2-.3.3-.5.1-.2.2-.3.3-.4.1-.1.2-.1.2-.2s.1-.2.1-.2l2.2-2.1zm1.1 13.2c-.2-.1-.5-.2-.9-.3-.3-.1-.6-.2-.8-.4-.3-.2-.5-.4-.6-.5-.2-.2-.3-.3-.4-.5l-.3-.6c-.1-.2-.2-.5-.3-.8v.2c-.1.2-.2.4-.3.7-.1.3-.2.6-.2.8v1.1c-.1.5-.1.9-.1 1.4.1.4.1.9.1 1.3 0 .2.1.4.2.5.1.2.1.3.2.5l.3.3c.1 0 .2-.1.2 0 0 0 .1 0 .2-.1 0-.1.1-.1.3-.2.2 0 .3-.1.3-.2s.1-.2.2-.2.2-.2.3-.2c.1-.2.2-.3.3-.4.1-.1.2-.3.4-.4.1-.2.2-.3.3-.3l.1-.1v-.1l.2-.4c.1-.1.2-.3.2-.3.1-.1.1-.1.1-.2 0 0 .1-.1.1-.2s.1-.2.1-.3c0-.1.1-.1.1-.1s-.3.1-.3 0zm.9-2.5c0-.1.1-.2.1-.3s.1-.3.1-.3c.2-.4.4-.9.5-1.4.2-.6.3-1.1.4-1.7.1-.6.2-1.1.3-1.6.1-.5.1-.8.1-1V70v-.4-.3c0-.1 0-.2-.1-.4-.1-.4-.3-.6-.6-.6-.4-.1-.7.1-1 .4-.5.5-.9 1-1.2 1.5-.3.5-.5.9-.5 1.1 0 .1-.1.4-.2.6-.1.3-.1.5-.1.6-.1.3-.1.5-.1.6v.6c.1.2.1.3.1.4v.3c0 .1.1.3.1.5s.1.4.2.8c.4.6 1 1 1.9 1.2z"/></svg>