<svg version="1.1" id="affogato" xmlns="http://www.w3.org/2000/svg" x="0" y="0" viewBox="0 0 183 112" xml:space="preserve"><style>.st0{fill:#474747}.st1{fill:#becbca}.st3{fill:#724630}.st5{fill:#c68b60}.st6{fill:#fff}</style><path class="st0" d="M56.6 56.6l-2.8-.6V36.2l9.7 1.9c1.2.2 2.2.9 3 1.8.8.9 1.2 2.1 1.3 3.3V46c0 1.1-.4 2.1-1.2 2.7-.8.7-2 .9-3 .7l-7-1.4v8.6zm0-11.4l7 1.4c.6.2 1.2-.2 1.4-.8V42.6c-.1-.8-.7-1.5-1.5-1.7l-7-1.4c0 2.3 0 3.5.1 5.7zM83.2 51.2c.1.2.1.4.1.6 0 3.9 0 5.8-.1 9.7l-2.8-.5v-5.6L72 53.9v5.6l-2.8-.5v-9.8c0-.2 0-.4.1-.6 1.7-3 2.5-4.5 4.2-7.6.2-.5.8-.7 1.3-.5l2.8.6c.6.1 1.1.5 1.3 1 1.8 3.6 2.6 5.5 4.3 9.1zM72 51.1l8.5 1.7v-1.1c-1.5-3.2-2.2-4.8-3.7-8.1l-1.1-.2c-1.5 2.6-2.3 4-3.7 6.6v1.1zM90.3 62.9c-1.2-.2-2.2-.9-3-1.8-.8-.9-1.2-2-1.2-3.1 0-4.4.1-6.6.1-11.1 0-1.1.4-2.1 1.3-2.7.9-.7 2-.9 3.1-.7l5.7 1.1c1.2.2 2.2.9 3 1.8.8.9 1.2 2 1.2 3.2V51l-2.9-.6V49c0-.8-.6-1.5-1.4-1.7l-5.7-1.1c-.6-.2-1.2.2-1.4.8v.3c0 4.5-.1 6.7-.1 11.1 0 .8.6 1.5 1.4 1.7l5.6 1.1c.6.2 1.2-.2 1.4-.8v-1.7l2.9.5v1.4c0 1.1-.5 2-1.3 2.7-.9.6-2 .9-3 .7l-5.7-1.1zM117.6 54.3c0 .3-.1.7-.4.9l-3.3 2.5c1.3 1.5 1.9 2.2 3.3 3.7.3.3.4.6.4 1v5.4l-2.9-.5v-4.9c-1.4-1.6-2.1-2.3-3.4-3.9l-5.1-1c0 3.3-.1 4.9-.1 8.2l-2.9-.5c.1-7.8.2-11.3.3-19.3l2.8.6c0 3.4-.1 5-.1 8.3l5.1 1c1.4-1 2.1-1.6 3.5-2.7v-5l2.8.5v5.7zM52.4 60.7v-1.4c22.2 4.2 44.4 8.4 66.6 12.3V73c-22.2-3.9-44.4-8.1-66.6-12.3z"/><path class="st1" d="M173.7 44.9l-26.3 59.5s-11.9 5.9-28.6-8.5L130 30.5s27.9-7.9 43.7 14.4z"/><path d="M171.3 45.4l-26.2 57.9s-12.1 2.6-23.3-7.2l9.9-63.9 39.6 13.2z" fill="#d6c6ad"/><path class="st3" d="M157.5 76s.2-5.2-7.4-.6c-3.5 2.1-4.1-6.6-8.5-4.8-3.9 1.6-4.5 6-7.7 1-2.4-3.8-1.5-5.5-5.4-5.7-.9 0-1.2-1-1.7-1l5.1-32.7 39.5 13.1L157.5 76z"/><path d="M172 40.3c-.3 2.5-1.5 4.8-3.5 6.3-2 1.2-4.2 1.8-6.5 1.9-9.4.7-18.6-3.9-25.8-10.1-2.1-1.8-4.2-4-4.4-6.8 0-1.5.4-3.1 1.1-4.4 3.8-7.6 11.5-12.6 20.1-12.9 3.8-.1 7.8.9 10.6 3.5-1.6-1.2-4.1-.3-4.9 1.5-.7 1.9-.4 4 .9 5.6 1.2 1.5 2.7 2.9 4.4 4 1.7 1.3 3.4 2.7 5.1 4.2 2 1.8 3.1 4.3 3.1 7-.1 0-.2.1-.2.2z" fill="#ab704e"/><path class="st3" d="M167.4 46.8c1.7-1.5 1.9-4 1.3-6.1-.8-2.1-1.9-4-3.4-5.7-1.7-2.4-3.3-5-4.7-7.6-1-1.6-1.6-3.5-1.9-5.4-.2-2 .6-3.9 2.3-5-2.7.3-4.8 2.9-5.4 5.6-.4 2.7-.1 5.5.9 8.1 1 2.6 1.7 5.2 2.2 7.9.4 3.5-.6 7.1-2.6 10 2.5.3 5 .3 7.5 0 1.9-.2 4-.8 4.7-2.6"/><path class="st3" d="M144.6 44.8c2-1.8 2.7-4.7 2.9-7.4s-.1-5.4.4-8.1c.3-1.3.7-2.6 1.2-3.8.4-1.1 1-2.1 1.6-3 2.2-2.9 6.1-4 9.6-4.8-.9-1-2.5-.8-3.8-.4-3.6.9-6.9 2.7-9.6 5.2-2.5 2.4-4.1 5.5-5.6 8.6-1.2 2.5-2.5 5.1-2.6 7.9-.1.6 0 1.2.3 1.7.3.4.6.7 1 1l4 3.1"/><path class="st3" d="M158.3 15.8c-2.3.4-4.6.8-6.8 1.4-3.7.9-7.6 2.2-10.4 5-3.3 3.2-4.6 7.9-6.7 12.1-.4.7-1 1.6-1.7 1.4-.6-.1-.8-.8-.9-1.4-.4-3.1 1.8-5.9 3.8-8.2 2.2-2.5 4.4-5.1 7.3-6.6 2.2-1 4.5-1.8 6.9-2.1l6.4-1.3c.7-.2 1.4-.2 2 .2"/><path class="st5" d="M165.5 33.1c.1-.3.9-.5 2-.1 3.1 1.3 4.9 4.5 4.3 7.8-.3 1.2-.9 1.8-1.2 1.7s-.4-.8-.6-1.7c-.4-2.3-1.6-4.5-3.4-6.1-.6-.8-1.2-1.2-1.1-1.6zM154.4 22.4c.3.2-.2 1.4-.3 3.2 0 2.5.6 5 1.6 7.2.6 1.4 1.1 2.8 1.5 4.3.4 1.3.5 2.7.3 4-.1.9-.5 1.8-1 2.5-.4.5-.7.7-.9.6-.3-.2.2-1.4 0-3.2-.1-1.1-.4-2.2-.8-3.2-.4-1.2-1.1-2.5-1.6-4-.6-1.5-1-3-1.2-4.6-.2-1.3-.1-2.7.2-4 .2-.9.6-1.7 1.2-2.4.5-.4.8-.5 1-.4z"/><path class="st6" d="M149.2 90.2c-.7-.2 1.8-9.2 6.3-19.9s9.2-18.7 9.9-18.4-3 8.9-7.4 19.4-8.1 19.2-8.8 18.9zM136.5 100.1c.2-.3 1 0 2.1-.1.6 0 1.2-.1 1.8-.4.7-.3 1.2-.7 1.7-1.3.5-.6 1-1.4 1.5-2.2s1-1.4 1.4-1.9c.9-1 1.6-1.6 1.9-1.4s.2 1.1-.3 2.3c-.2.6-.5 1.4-.9 2.2-.4.9-.9 1.8-1.6 2.7-.8.9-1.8 1.6-3 1.9-.9.2-1.9.2-2.8-.1-1.6-.5-2-1.5-1.8-1.7z"/><path class="st1" d="M130.8 33.6c.4-.7 8.3 4.7 19.2 8.1s20.4 3.7 20.4 4.5c0 .3-2.4.7-6.3.6-2.3-.1-4.5-.3-6.8-.7-2.7-.5-5.5-1.2-8.1-2-2.7-.9-5.2-1.9-7.8-3.1-2-1-4-2.1-5.9-3.4-3.2-2.1-4.9-3.8-4.7-4z"/><path d="M40.5 67.2c.2-.3.4-.4.6-.4.2 0 .5-.1.7-.1h.4s.1.1.3.1c.1 0 .1.1.1.3 0 .1 0 .1.1.1s.1-.1.2 0c0 .1 0 .2.1.1.1 0 .1 0 .1.1 0 .2.1.4.2.5.1.1 0 .3-.1.5 0 .1-.1.3-.3.4 0 .2-.1.4-.3.6-.1.2-.3.5-.4.7-.2.2-.3.4-.5.6-.2.2-.3.4-.4.5-.4.5-.7.9-1.1 1.4-.4.5-.7.9-1 1.4-.4.7-.8 1.2-1.1 1.7s-.7 1.1-1.2 1.9c-.2.5-.4.9-.6 1.3-.2.4-.3 1-.4 1.7-.1.4 0 .6.3.8.1.1.3.1.4.1.1 0 .3 0 .4-.1.3 0 .6-.2 1-.4s.8-.5 1.1-.8c.3-.2.7-.6 1.2-1.1.5-.5 1-1 1.5-1.6.5-.5.9-1 1.3-1.5s.7-.8.9-1c.1-.1.2-.2.3-.4s.3-.2.4-.3c0 0 .1-.1.1-.2s0-.1.1-.1c.1-.1.2-.1.3-.2.1-.1.2-.2.2-.3.1-.1.2-.1.4-.2s.4-.1.5-.1c.1 0 .1 0 .1.1 0 0 .1 0 .1-.1.1 0 .2-.1.1-.2s0-.1.1-.2c0 0 .1-.1.1 0h.1c0 .1-.1.1-.1.1v.1s.1 0 .1-.1.1-.1.1-.1v.1s0 .1.1.1c.1-.1.1-.1.1 0s0 0 .2-.1v.1l.1-.1v.4c0 .1 0 .2.1.4l.1-.1-.2.7s.1 0 .1-.1c0 0 .1-.1.2-.1 0 0 0 .1-.1.1v.1c-.1.2-.2.3-.3.5-.1.2-.2.4-.3.5-.1.2-.4.6-.9 1.1-.4.5-.9 1-1.4 1.5-.5.5-1 1-1.4 1.5l-1 1-1.1 1.1c-.4.4-.8.7-1.2.9l-.1.1s-.1 0-.1.1c-.5.4-1 .7-1.6 1-.6.3-1.3.5-1.9.6-.6.1-1.2.1-1.8-.1-.6-.1-1-.4-1.4-.9-.2-.3-.4-.6-.4-1-.1-.4-.1-.7-.1-.9 0-.3.1-.6.1-1 0-.2.1-.3.1-.5 0-.1.1-.3.2-.6l-.3.3c-.1.1-.2.1-.3.1-.4.4-.9.7-1.3 1.1-.5.3-.9.6-1.3.9-.1.1-.2.2-.3.2-.1.1-.2.1-.3.2-.3.2-.7.4-1.1.5-.4.1-.7.2-1 .3-1.1.2-1.9.1-2.5-.3-.6-.3-1-.9-1.2-1.6-.1-.4-.1-.8-.1-1.1 0-.3 0-.7.1-1.1.1-.1.1-.2.1-.3 0-.1.1-.3.2-.4.2-.4.3-.8.4-1.2.1-.4.3-.7.5-1 0-.1.1-.2.3-.3.1-.1.2-.2.2-.4.1-.3.3-.5.4-.7.2-.2.3-.4.4-.7.4-.6.8-1.1 1.3-1.6l1.4-1.4c0-.1.1-.2.3-.3.1-.1.3-.2.4-.4l.4-.4.3-.3c.5-.4 1-.9 1.6-1.3.5-.4 1.1-.8 1.7-1.2.6-.4 1.2-.7 1.8-.9.6-.2 1.2-.4 1.9-.4.1 0 .2 0 .2-.1h.3c.5.1.9.2 1.2.3s.5.3.6.4c.1.2.2.3.3.5.1.2.1.4.2.7l.6-.1zm-3.1 2.2c0 .1 0 .1 0 0h-.2-.1c-.1.1-.2.1-.3.1-.1 0-.2.1-.3.1-.1 0-.2.1-.3.1-.1 0-.1 0-.2.1s-.2.1-.2.2h-.2s0 .1-.1.1c-.3.1-.5.2-.7.3-.1.1-.4.3-.7.5-.5.4-1.1.9-1.8 1.5-.6.6-1.2 1.2-1.8 1.7-.2.2-.3.3-.3.4s-.1.2-.2.3-.1.2-.2.3l-.3.3c-.5.5-1 1.1-1.3 1.8-.3.7-.5 1.2-.5 1.7 0 .4.2.7.7.7.4 0 1.2-.4 2.2-1.2.3-.3.6-.5.8-.6.3-.2.5-.4.8-.7.4-.4.8-.7 1.2-1.1.4-.4.8-.8 1.3-1.4.7-.6 1.2-1.2 1.7-1.9 0-.1.1-.2.1-.2s0-.1.1-.1c0-.2.1-.3.2-.3.1-.1.2-.2.2-.3.1-.1.2-.3.3-.4.1-.1.2-.2.2-.3l.3-.5c0-.3 0-.5-.1-.8 0-.3-.1-.4-.3-.4zm10.2 4c.1-.1.1-.1 0 0z"/><path d="M41.1 87c.1-.1.1-.3.1-.5-.1 0-.1.1-.1.2s0 .2-.1.2v-.4c-.2 0-.3.1-.5.2l-.3.3-.2-.2c-.1.2-.1.2-.2.2s-.2 0-.2-.1-.1-.1-.1-.2-.1-.1 0-.1l-.1-.1v-.3-.2h-.2c0-.1-.1-.3-.1-.4 0-.1 0-.3.1-.4.1-.1.1-.2.1-.2s0-.1.1-.2c0-.1 0-.1.1-.2v-.1c-.1-.2-.1-.3 0-.5.1-.1.1-.3.2-.4.1-.1.1-.2.1-.3.1-.1.1-.2.2-.3.4-.8.7-1.4 1-1.9.3-.5.5-.9.7-1.3s.5-.8.8-1.2c.3-.4.6-1.1 1.1-1.8 0-.1.2-.3.4-.7.2-.3.5-.7.7-1.1.3-.4.5-.7.7-1.1s.3-.6.4-.7c0 0 0-.1.1-.3-.1 0 0-.1.1-.3.1-.2.3-.4.4-.6s.3-.4.4-.6c.1-.2.1-.3.1-.3h-1.6c-.2 0-.4 0-.6-.1-.2-.1-.4-.1-.6-.2-.2-.1-.3-.2-.4-.4-.1-.1-.1-.4-.1-.7 0-.1-.1-.2-.1-.4-.1-.2-.1-.4 0-.5 0-.1.1-.2.3-.2.2 0 .3-.1.3-.2 0-.2.1-.3.3-.3.1 0 .2 0 .3-.1.1-.1.2-.1.3 0h.3-.2c.1 0 .2 0 .2.1h1.3c.2 0 .3 0 .5.1h.3c.1 0 .2-.1.2-.1h1.2l.1-.1.1-.1c.2-.3.3-.5.4-.5.1-.1.1-.1.2-.1 0 0 .1 0 .1-.1 0 0 .1-.2.3-.4.1-.1.2-.2.2-.3 0-.1.1-.2.2-.3.2-.2.4-.5.6-.7s.4-.4.6-.7c.1-.1.3-.4.6-.7.4-.3.8-.7 1.3-1.1.5-.4.9-.7 1.4-1.1.5-.3.8-.6 1.1-.7.4-.2.8-.4 1.1-.5.3-.2.7-.3 1.1-.3.4-.1.7-.1 1.1-.1s.9 0 1.4.1l.5.1c.4.1.7.2.9.4.2.2.5.4.7.6.1.1.1.2.1.4s.1.3.2.4c.1.1.1.2.1.4v.6c0 .2-.1.4-.1.6 0 .2-.1.2-.1.2-.3.7-.5 1.3-.8 1.8-.3.5-.6.8-.8 1.2-.3.3-.5.6-.7.7-.2.2-.4.3-.6.5-.1.1-.2.1-.3.1-.1 0-.3 0-.4.1h-.2s-.1 0-.1.1l-.1-.1-.1-.1c-.3-.1-.4-.1-.5-.2 0-.1-.1-.2-.3-.3-.1-.1-.1-.2-.2-.2s-.1-.1-.2-.1c0-.1 0-.3-.1-.4-.1-.2-.1-.3-.1-.4 0-.1.1-.3.3-.5.2-.2.3-.5.5-.8.2-.3.4-.6.6-.8.2-.3.3-.5.4-.7.1-.2.1-.3 0-.4-.1-.1-.3 0-.6.1s-.6.3-.8.4c-.2.1-.4.3-.7.5-.5.4-1 .7-1.2 1-.3.3-.7.6-1.1 1.1l-.4.4-.2.2c0 .1-.1.1-.2.2s-.2.3-.4.6l-.1.2s-.1.1-.1.2-.1.2-.1.2c.2.1.3.1.3.1H55.3c.2 0 .4.1.5.1.2 0 .3.1.5.1.1.1.2.2.3.2.1.1.1.2.2.3 0 .1 0 .1.1.2s.1.1.1.2c.1.1.1.3.1.3v.3c0 .1-.1.2-.2.4-.1.1-.2.2-.2.4-.2.3-.4.4-.7.4h-1c-.2 0-.4 0-.4.1-.1 0-.2 0-.3-.1-.2 0-.4 0-.6-.1-.2-.1-.4-.1-.6-.1H53h-1.1c-.2 0-.5 0-.9.1-.1 0-.2.1-.3.3-.1.2-.3.4-.4.6-.1.2-.3.5-.4.7-.1.2-.2.4-.3.5-.1.2-.4.6-.6 1-.3.5-.6.9-.9 1.4-.3.5-.6 1-.9 1.4-.3.4-.5.8-.6 1-.3.5-.5.8-.6 1l-.3.6-.3.6c-.1.2-.3.5-.6 1s-.5.9-.6 1.1c-.1.3-.2.5-.3.7-.1.2-.2.4-.4.7-.1.3-.3.6-.6 1.1 0 .1 0 .2-.1.3-.1.2-.2.5-.3.7-.1.2-.3.4-.6.6-.7.3-.8.2-.8.1z"/><path d="M50.9 88.8c.1-.1.1-.3.1-.5-.1 0-.1.1-.1.2s0 .2-.1.2v-.4c-.2 0-.3.1-.5.2l-.3.3-.2-.2c-.1.1-.1.2-.2.2s-.2 0-.2-.1-.1-.1-.1-.2-.1-.1 0-.1l-.1-.1V88v-.2H49c0-.1-.1-.3-.1-.4 0-.1 0-.3.1-.4.1-.1.1-.2.1-.2 0-.1 0-.1.1-.2 0-.1 0-.1.1-.2v-.1c-.1-.2-.1-.3 0-.5.1-.1.1-.3.2-.4.1-.1.1-.2.1-.3.1-.1.1-.2.2-.3.4-.8.7-1.4 1-1.9.3-.5.5-.9.7-1.3.2-.4.5-.8.8-1.2.3-.4.6-1.1 1.1-1.8 0-.1.2-.3.4-.7.2-.3.5-.7.7-1.1.3-.4.5-.7.7-1.1.2-.3.3-.6.4-.7 0 0 0-.1.1-.3-.1 0 0-.1.1-.3.1-.2.3-.4.4-.6.2-.2.3-.4.4-.6.1-.2.1-.3.1-.3h-1.6c-.2 0-.4 0-.6-.1-.5.2-.7.2-.9.1-.2-.1-.3-.2-.4-.4-.1-.1-.1-.4-.1-.7 0-.1-.1-.2-.1-.4-.1-.2-.1-.4 0-.5 0-.1.1-.2.3-.2.2 0 .3-.1.3-.2 0-.2.1-.3.3-.3.1 0 .2 0 .3-.1.1-.1.2-.1.3 0h.3c.1-.1.1-.1.2-.1s.2 0 .2.1h.8c.2 0 .3 0 .5.1.2 0 .3 0 .5.1h.3c.1 0 .2-.1.2-.1h1.2l.1-.1.1-.1c.2-.3.3-.5.4-.5.1-.1.1-.1.2-.1s.1 0 .1-.1c0 0 .1-.2.3-.4.1-.1.2-.2.2-.3 0-.1.1-.2.2-.3.2-.2.4-.5.6-.7.2-.2.4-.4.6-.7.1-.1.3-.4.6-.7.4-.3.8-.7 1.3-1.1.5-.4.9-.7 1.4-1.1.5-.3.8-.6 1.1-.7.4-.2.8-.4 1.1-.5.3-.2.7-.3 1.1-.3.4-.1.7-.1 1.1-.1s.9 0 1.4.1l.5.1c.4.1.7.2.9.4.2.2.5.4.7.6.1.1.1.2.1.4s.1.3.2.4c.1.1.1.2.1.4v.6c0 .2-.1.4-.1.6 0 .2-.1.2-.1.2-.3.7-.5 1.3-.8 1.8-.3.5-.6.8-.8 1.2-.3.3-.5.6-.7.7-.2.2-.4.3-.6.5-.1.1-.2.1-.3.1-.1 0-.3 0-.4.1h-.2c-.1 0-.1 0-.1.1l-.1-.1-.1-.1c-.3-.1-.4-.1-.5-.2 0-.1-.1-.2-.3-.3-.1-.1-.1-.2-.2-.2s-.1-.1-.2-.1c0-.1 0-.3-.1-.4-.1-.2-.1-.3-.1-.4 0-.1.1-.3.3-.5.2-.2.3-.5.5-.8.2-.3.4-.6.6-.8.2-.3.3-.5.4-.7.1-.2.1-.3 0-.4-.1-.1-.3 0-.6.1s-.6.3-.8.4c-.2.1-.4.3-.7.5-.5.4-1 .7-1.2 1-.3.3-.7.6-1.1 1.1l-.4.4-.2.2c0 .1-.1.1-.2.2s-.2.3-.4.6l-.1.2s-.1.1-.1.2-.1.2-.1.2c.2.1.3.1.3.1H65.2c.2 0 .4.1.5.1.2 0 .3.1.5.1.1.1.2.2.3.2.1.1.1.2.2.3 0 .1 0 .1.1.2s.1.1.1.2c.1.1.1.3.1.3v.3c0 .1-.1.2-.2.4-.1.1-.2.2-.2.4-.2.3-.4.4-.7.4h-1c-.2 0-.4 0-.4.1-.1 0-.2 0-.3-.1-.2 0-.4 0-.6-.1-.2-.1-.4-.1-.6-.1h-.1-1.1c-.2 0-.5 0-.9.1-.1 0-.2.1-.3.3-.1.2-.3.4-.4.6-.1.2-.3.5-.4.7s-.2.4-.3.5c-.1.2-.4.6-.6 1-.3.5-.6.9-.9 1.4-.3.5-.6 1-.9 1.4-.3.4-.5.8-.6 1-.3.5-.5.8-.6 1s-.9.4-.9.6l-.3.6c-.1.2-.3.5-.6 1s-.5.9-.6 1.1c-.1.3-.2.5-.3.7-.1.2-.2.4-.4.7-.1.3-.3.6-.6 1.1 0 .1 0 .2-.1.3-.1.2-.2.5-.3.7-.1.2-.3.4-.6.6-.3 0-.3-.1-.3-.2zM72.2 72.3c.1-.1.3-.1.5-.2.2 0 .4-.1.6-.2.1 0 .3-.1.4-.1h.8c.1 0 .2 0 .3-.1.3 0 .6.1.9.2.1 0 .3 0 .5.1s.3.2.4.3c.3.2.5.4.7.6s.3.4.4.8c.2.5.3 1.1.3 1.6 0 .6-.1 1.1-.2 1.6s-.4 1.3-.9 2.4c-.5 1.1-1.2 2.2-2.3 3.5l-.2.2-.3.3-.3.3c-.1.1-.1.2-.2.2h.3c.2 0 .4 0 .7-.1.2 0 .6-.1 1-.1l.9-.3c.2-.1.5-.2.7-.4.2-.1.4-.3.6-.5.2-.2.4-.3.7-.5.3-.3.7-.7 1.1-1 .4-.4.8-.7 1.1-1l.4-.3c-.1-.2-.1-.3.1-.3v.1c0 .1.1.2.1.2v.1l-.1.1c.2-.1.3-.2.3-.3 0-.1.1-.2.3-.3v.2c0 .1.1.1.2.1h.2c.1 0 .1 0 .2-.2 0-.1.1-.2.2-.2 0 .1-.1.2-.1.2.1 0 .2-.1.3-.1 0 0 .1-.1.2-.1 0 .1 0 .3-.2.3-.1.1-.1.2 0 .3.1-.2.2-.3.3-.3l.2.2c0 .1-.1.2-.1.2 0 .1-.1.2-.1.2-.1.1-.1.1-.1.2h.2c-.1.2-.3.4-.4.5s-.2.3-.2.5c-.1.1-.2.2-.3.4-.1.1-.1.3-.3.4-.2.3-.4.6-.6.8-.2.2-.4.5-.6.7-.1.1-.2.2-.2.3-.1.1-.1.1-.2.1-.3.3-.6.5-.8.7-.3.2-.6.4-1 .6-.3.2-.8.4-1.4.6-.6.3-1.2.4-1.8.4-.2 0-.7.1-1.3.1-.6.1-1.2.1-1.7 0-.1.1-.3 0-.6 0-.3-.1-.5-.1-.6 0-.2.1-.3.2-.3.2v.1l-.3.3c-.2.2-.3.2-.3.3l-.1.1s0 .1-.1.1l-.3.3c-.3.2-.5.4-.7.6-.2.2-.5.4-.9.6-.4.2-.8.4-1.3.6-.5.2-1 .3-1.5.4-.4.1-.7.1-1 .2h-1c-.3-.1-.6-.1-.9-.3-.3-.1-.6-.3-.8-.4l-.5-.5c-.2-.2-.3-.3-.4-.5-.2-.2-.3-.3-.3-.6 0-.2 0-.4-.1-.6 0-.1 0-.3-.1-.4v-.4c-.1-.2-.1-.4.1-.8.1-.9.4-1.8.7-2.6.3-.8.7-1.7 1.2-2.5.2-.3.3-.6.5-.9.2-.3.3-.6.5-.9.1-.1.2-.3.3-.4.1-.1.2-.2.4-.3 0-.2.1-.2.2-.2.5-.6 1-1.2 1.5-1.7s1.1-1.1 1.7-1.6c.2-.1.3-.2.4-.2.1 0 .2-.1.3-.2.1-.1.3-.2.4-.4.1-.2.3-.3.4-.3.1 0 .2-.1.3-.1l.2-.2 2.8-.8zM68.6 85c-.2-.2-.4-.4-.7-.6-.3-.2-.5-.4-.6-.7-.2-.3-.3-.5-.4-.7-.1-.2-.2-.4-.2-.6 0-.2-.1-.4-.1-.6V81v.2c-.2.1-.3.3-.6.5-.2.3-.4.5-.5.7 0 .1-.1.2-.1.2 0 .1 0 .1-.1.2 0 .1-.1.1-.1.2s-.1.2-.2.4c-.3.4-.4.8-.5 1.3-.1.4-.2.8-.4 1.3v1l.2.4h.4c.1-.1.2-.1.3-.1h.4c.1-.1.2-.1.3-.1.1 0 .2-.1.3-.1.2-.1.3-.2.4-.3s.3-.2.5-.3c.2-.1.3-.2.4-.2h.1l.1-.1.3-.3c.2-.1.3-.2.3-.2s.1-.1.2-.1.1-.1.2-.1.1-.1.2-.2c.1 0 .1-.1.1-.1-.3-.1-.3-.1-.2-.2zm1.7-2c.1 0 .1-.1.2-.3l.2-.2c.3-.3.7-.7 1-1.1.4-.5.7-1 1-1.4.3-.5.6-.9.8-1.3s.4-.7.5-.9c.1-.2.1-.4.2-.5.1-.1.1-.3.1-.4 0-.1.1-.2.1-.3 0-.1 0-.2.1-.4.1-.4-.1-.6-.4-.8-.3-.2-.7-.2-1.1 0-.6.3-1.2.6-1.7 1s-.8.7-.9.8c-.1.1-.2.3-.4.5s-.3.4-.3.5c-.2.3-.3.4-.3.5 0 .1-.1.3-.2.5 0 .2 0 .3-.1.4 0 .1-.1.2-.1.3 0 .1 0 .3-.1.5v.8c.2.6.6 1.3 1.4 1.8z"/><path d="M93 96.4c.4.1.8.3 1.2.4.4.2.7.5.9.9 0 .1.1.1.1.2v.2c0 .1 0 .1-.1.2v.4c-.1 0-.1.1-.2.1s-.1.1-.2.2c0 0-.1.1-.1.3 0 0-.1.1-.1 0h-.1l-.1.1v.2h-.6c-.3 0-.5 0-.7-.1-.2-.1-.4-.1-.6-.1-.2 0-.4-.1-.6-.1l-2.9-.3c-.5 0-1.1-.1-1.6-.1s-1.1-.1-1.6-.1c-.3 0-.7-.1-1-.1h-.9l-.1.1c-.1 0-.2.1-.3.3-.1.2-.2.3-.3.4-.3.5-.7.9-1.1 1.2-.4.4-.8.8-1.2 1.3-.3.3-.5.6-.8.8-.3.2-.6.5-.9.7l-.5.5c-.2.1-.4.3-.5.4l-1.4 1c-.5.3-1 .5-1.5.8-.5.2-1 .5-1.5.7l-.8.2h-.1c-.1-.1-.1-.1-.2 0-.1 0-.1 0-.1.1h-.1c-.1 0-.3-.1-.4 0-.2 0-.3.1-.5.1-.2.1-.4.1-.6.1l-.3.1c-.1 0-.1.1-.2 0H68.7c-.2 0-.3 0-.5-.1-.2 0-.4-.1-.6-.1-.2 0-.5-.1-.7-.2-.2-.1-.4-.1-.5-.1-.5-.1-.9-.3-1.3-.6-.3-.1-.5-.3-.8-.6l-.6-.6c-.2-.2-.3-.4-.4-.7-.2-.4-.4-.7-.4-1.1-.2-.7-.2-1.4-.1-2.1.1-.5.3-1 .5-1.4.2-.4.5-.8.7-1.1l.9-.9c.4-.4 1-.7 1.5-1 .3-.2.6-.3.9-.4l.9-.3 1.5-.3c.2-.1.5-.1.7-.1s.5 0 .7-.1c.2 0 .5 0 .8-.1.3 0 .5-.1.8-.1.3 0 .7 0 1-.1h2.1l1.2.1h4.8l.1-.1.1-.1s0-.1.1-.1c.1-.1.1-.2.2-.3.1-.1.1-.2.2-.3 0-.1.1-.1.1-.2s.1-.2.1-.3l.3-.6v-.1-.1c.2-.3.4-.6.5-.9.1-.3.2-.5.3-.6 0-.1.1-.2.2-.4.1-.1.2-.3.3-.4.1-.1.1-.1.1-.2s.1-.2.1-.3c-.1 0-.1 0-.1.1l-.1.1c-.5.2-.9.4-1.3.6-.4.2-.8.4-1.1.6-.2.1-.4.2-.5.3-.2.1-.3.1-.5.2s-.4.1-.7.1c-.3 0-.7.1-1.1.1-.2 0-.5 0-.8-.1-.3-.1-.5-.1-.7-.2h-.1c-.2-.1-.3-.2-.5-.3-.1 0-.2-.1-.3-.1-.1 0-.2-.1-.2-.2-.1-.1-.2-.2-.3-.4l-.1-.1c0-.1 0-.1-.1-.2l-.3-.6c-.1-.2-.1-.4-.1-.7 0-.4 0-.9.2-1.5s.3-1.1.4-1.4c.1-.3.3-.7.4-1s.3-.7.4-.9c.1-.3.2-.5.4-.8.2-.2.3-.5.5-.7.1-.3.2-.6.4-.8.1-.2.3-.5.5-.7.7-.8 1.3-1.5 1.9-2.1s1.3-1.2 2.1-1.7c.7-.6 1.4-1 2.3-1.3.8-.3 1.7-.5 2.5-.5l.4.1c.3 0 .5.1.6.1.1 0 .3.1.3.1.1 0 .2.1.3.2.1.1.3.2.5.4.1.1.2.2.3.4.1.2.1.3.2.4.1.1.2.2.2.4s.1.4.1.6c0 .2 0 .4.1.6s0 .4 0 .5c.1-.1.2-.2.3-.4.1-.2.3-.4.5-.7.2-.2.3-.5.4-.7.1-.2.2-.4.2-.5.1.1.2.1.2.2 0 0 .1 0 .2-.1 0-.1.1-.2.2-.1.1 0 .2 0 .2-.2h.1c.2.1.4.1.6.2.2 0 .3.1.5.1.1.2.2.4.2.5s.1.3.3.4c0 .1.1.3.1.4v.5c0 .1-.1.2-.1.2 0 .2-.1.4-.2.5-.1.1-.2.3-.2.5 0 .1 0 .1-.1.1s-.1.1 0 .1c-.3.5-.5 1-.7 1.5-.2.5-.5.9-.8 1.3-.2.3-.3.5-.5.8-.2.3-.3.5-.5.8-.2.4-.4.7-.6 1.1-.2.4-.4.8-.7 1.1-.2.3-.4.6-.5.9-.2.3-.3.6-.5.9-.2.3-.4.7-.6 1-.2.3-.4.7-.5 1.1-.1.2-.3.7-.7 1.3-.3.6-.7 1.2-1 1.8 0 .1-.1.2-.2.4s-.1.3-.1.3l-.1.1c.4 0 .7 0 1.1.1.4 0 .7 0 1.1.1l4.8.7zm-14 2.4c0-.1-.1-.1-.2-.1h-1.1c-.4 0-.6-.1-.9 0h-3.3c-.3 0-.6 0-.9.1h-1c-.4 0-.7.1-1.1.2-.3 0-.7.1-1.2.3s-.9.3-1.2.3l-.3.1-.4.2-.6.4c-.1.1-.2.1-.2.2s-.2.1-.2.3c-.3.3-.5.7-.4 1.3.1.6.3.9.6 1.1.4.3.8.5 1.2.5.3.1.6.2.9.2h1s.1 0 .2-.1c.1 0 .3-.1.4-.1.1 0 .3 0 .4-.1h.3l1.1-.3c.2 0 .3-.1.5-.2.1-.1.3-.2.5-.2s.3-.1.5-.2.3-.1.4-.2c.1 0 .1-.1.2-.1s.2-.1.4-.1c.4-.2.7-.4 1-.6.3-.2.7-.4 1-.7l.7-.7c.2-.2.5-.4.7-.6l1-.9zm.2-10.4c0 .6.3.9.7.9.4 0 .9-.1 1.4-.4.6-.3 1.1-.6 1.6-1s1-.7 1.3-.9c.3-.3.6-.5.9-.7.2-.2.5-.4.6-.7.2-.2.4-.5.6-.8.2-.3.5-.6.7-1 .1-.2.3-.4.5-.8.3-.4.4-.7.4-.9v-.5-.4c0-.3-.1-.5-.2-.7-.1-.1-.3-.2-.4-.3-.1 0-.2-.1-.3-.1 0-.1-.2-.1-.3-.1-.3 0-.5.1-.7.1-.2 0-.4.1-.5.2-.2.1-.4.2-.6.4-.2.1-.5.3-.8.6-.6.3-1.1.8-1.5 1.3-.4.5-.8 1-1 1.4-.2.2-.3.3-.3.4s-.2.2-.2.3c-.1.1-.2.2-.3.4-.1.2-.2.4-.4.7-.2.4-.5.8-.7 1.4-.3.4-.4.9-.5 1.2z"/><path d="M106.9 79.5c.2-.3.4-.4.6-.4.2 0 .5-.1.7-.1h.4s.1.1.3.1c.1 0 .1.1.1.3 0 .1 0 .1.1.1s.1-.1.2 0c0 .1 0 .2.1.1.1 0 .1 0 .1.1 0 .2.1.4.2.5.1.1 0 .3-.1.5 0 .1-.1.3-.3.4 0 .2-.1.4-.3.6-.1.2-.3.5-.4.7-.2.2-.3.4-.5.6-.2.2-.3.4-.4.5-.4.5-.7.9-1.1 1.4-.4.5-.7.9-1 1.4-.4.7-.8 1.2-1.1 1.7-.3.5-.7 1.1-1.2 1.9-.2.5-.4.9-.6 1.3-.2.4-.3 1-.4 1.7-.1.4 0 .6.3.8.1.1.3.1.4.1.1 0 .3 0 .4-.1.3 0 .6-.2 1-.4s.8-.5 1.1-.8c.3-.2.7-.6 1.2-1.1.5-.5 1-1 1.5-1.6.5-.5.9-1 1.3-1.5s.7-.8.9-1c.1-.1.2-.2.3-.4.2-.1.3-.2.4-.3 0 0 .1-.1 0-.2 0-.1 0-.1.1-.1.1-.1.2-.1.3-.2.1-.1.2-.2.2-.3.1-.1.2-.1.4-.2s.4-.1.5-.1c.1 0 .1 0 .1.1 0 0 .1 0 .1-.1.1 0 .2-.1.1-.2 0-.1 0-.1.1-.2 0 0 .1-.1.1 0h.1c0 .1-.1.1-.1.1v.1s.1 0 .1-.1.1-.1.1-.1v.1s0 .1.1.1c.1-.1.1-.1.1 0l.2-.1v.1l.1-.1v.4c0 .1 0 .2.1.4l.1-.1-.2.7s.1 0 .1-.1c0 0 .1-.1.2-.1 0 0 0 .1-.1.1v.1c-.1.2-.2.3-.3.5-.1.2-.2.4-.3.5-.1.2-.4.6-.9 1.1-.4.5-.9 1-1.4 1.5s-1 1-1.4 1.5l-1 1-1.1 1.1c-.4.4-.8.7-1.2.9l-.1.1s-.1 0-.1.1c-.5.4-1 .7-1.6 1s-1.3.5-1.9.6c-.6.1-1.2.1-1.8-.1-.6-.1-1-.4-1.4-.9-.2-.3-.4-.6-.4-1-.1-.4-.1-.7-.1-.9 0-.3.1-.6.1-1 0-.2.1-.3.1-.5 0-.1.1-.3.2-.6l-.3.3c-.1.1-.2.1-.3.1-.4.4-.9.7-1.3 1.1-.5.3-.9.6-1.3.9-.1.1-.2.2-.3.2-.1.1-.2.1-.3.2-.3.2-.7.4-1.1.5-.4.1-.7.2-1 .3-1.1.2-1.9.1-2.5-.3s-1-.9-1.2-1.6c-.1-.4-.1-.8-.1-1.1 0-.3 0-.7.1-1.1.1-.1.1-.2.1-.3 0-.1.1-.3.2-.4.2-.4.3-.8.4-1.2.1-.4.3-.7.5-1 0-.1.1-.2.3-.3.1-.1.2-.2.2-.4.1-.3.3-.5.4-.7.2-.2.3-.4.4-.7.4-.6.8-1.1 1.3-1.6L95 83c0-.1.1-.2.3-.3.1-.1.3-.2.4-.4l.4-.4.3-.3c.5-.4 1-.9 1.6-1.3.5-.4 1.1-.8 1.7-1.2.6-.4 1.2-.7 1.8-.9.6-.2 1.2-.4 1.9-.4.1 0 .2 0 .2-.1h.3c.5.1.9.2 1.2.3.3.1.5.3.6.4.1.2.2.3.3.5.1.2.1.4.2.7l.7-.1zm-3 2.2c-.1 0-.1.1 0 0h-.2-.1c-.1.1-.2.1-.3.1-.1 0-.2.1-.3.1-.1 0-.2.1-.3.1-.1 0-.1 0-.2.1s-.2.1-.2.2h-.2s0 .1-.1.1c-.3.1-.5.2-.7.3-.1.1-.4.3-.7.5-.5.4-1.1.9-1.8 1.5-.6.6-1.2 1.2-1.8 1.7-.2.2-.3.3-.3.4-.1.1-.1.2-.2.3-.1.1-.1.2-.2.3l-.3.3c-.5.5-1 1.1-1.3 1.8-.3.7-.5 1.2-.5 1.7s.2.7.7.7c.4 0 1.2-.4 2.2-1.2.3-.3.6-.5.8-.6.3-.2.5-.4.8-.7.4-.4.8-.7 1.2-1.1.4-.4.8-.8 1.3-1.4.7-.6 1.2-1.2 1.7-1.9 0-.1.1-.2.1-.2s0-.1.1-.1c0-.2.1-.3.2-.3.1-.1.2-.2.2-.3.1-.1.2-.3.3-.4.1-.1.2-.2.2-.3l.3-.5c0-.3 0-.5-.1-.8-.1-.3-.2-.4-.3-.4zm10.1 4c.1-.1.1-.1 0 0 .1 0 0 0 0 0z"/><path d="M116.5 79.2H114.3c-.4 0-.7.1-1 .1h-.7c-.2 0-.3-.1-.5-.1-.1-.1-.3-.1-.5-.2-.1-.1-.2-.2-.3-.4-.1-.2-.1-.3-.2-.5-.1-.1-.1-.2-.1-.4v-.4c0-.1 0-.2.1-.3.2-.2.4-.4.5-.6.1-.1.2-.2.4-.2.2-.1.3-.1.4-.1.2 0 .4-.1.5 0 .2 0 .3 0 .4.1.7.1 1.2.2 1.6.2.4 0 .8.1 1.2.1h.7c.1 0 .4 0 .7.1h.6c.1 0 .2 0 .3-.2.1-.1.2-.3.2-.4.1-.2.2-.3.3-.5.1-.1.2-.3.3-.5.1-.2.2-.4.4-.6s.3-.4.3-.6c0-.1.1-.3.3-.4.2-.1.3-.2.4-.4.1-.1.2-.1.3-.1.2-.1.3-.1.4-.2.1-.1.2-.1.3-.1h.3c.1 0 .2.1.4.2s.3.2.4.3c.1.1.2.2.3.4.1.1.1.3.2.4 0 .2.1.3.1.4v.5c0 .2-.1.3-.2.5 0 0-.1.1-.2.3-.1.1-.2.3-.3.4-.1.2-.2.3-.3.4-.1.1-.1.3-.1.3h.4c.4 0 .8 0 1 .1.2 0 .6.1 1 .1h1.9c.2.1.4.1.7.1h.7c.2 0 .3.1.5.1s.3 0 .4.1c.1.1.2.1.3.1.1 0 .2 0 .3.1 0 0 .1.1.2.1s.2 0 .2.1.1.1.2 0 .1 0 .2 0 .1.1.1.2l.2.4c0 .1 0 .2-.1.2s-.2 0-.2.1.1.2.1.4c.1.2.1.3.1.4h-.2s-.1.1-.3.1c-.1.1-.1.1 0 .2 0 .1 0 .1-.1.1h-.3c-.1 0-.2.1-.2.2-.1.1-.3.1-.5.1h-.5c-.1 0-.3 0-.6-.1s-.4-.1-.5 0h-1c-.3 0-.6-.1-.9-.1-.3 0-.6-.1-.9-.1h-.5c-.3 0-.6 0-1-.1s-.8-.1-1.4 0c-.3 0-.5 0-.6-.1-.1 0-.2 0-.4.2-.1.1-.3.4-.7.9-.4.5-.7.9-1.2 1.4-.4.5-.8 1-1.2 1.4-.4.4-.6.7-.7.9-.1.2-.2.3-.3.4 0 .1-.1.1-.1.1l-.1.1c-.1.1-.2.2-.3.4-.5.8-1 1.4-1.2 1.8-.3.4-.5.7-.7 1-.2.3-.4.5-.5.8-.2.3-.4.7-.7 1.2-.3.6-.6 1.1-.9 1.5-.3.4-.5 1-.7 1.6-.1.2-.2.3-.2.5 0 .1-.1.3-.1.6-.1.3 0 .5 0 .6l.3.3c.1 0 .3.1.4 0 .1 0 .3 0 .4-.1.9-.4 1.7-.9 2.4-1.3.7-.5 1.4-1 2-1.5.6-.6 1.3-1.1 2-1.8.7-.6 1.5-1.3 2.4-2.1l.1-.1s.1-.1.2-.1l.4-.4c.1-.1.3-.2.6-.3h.2c.1 0 .1-.1.2-.1l.1.1v.1c.1 0 .1 0 .1-.1 0 0 0-.1.1-.1h.1s.1.1.1.2c0 0 0 .1-.1.2s0 .1 0 .1c.1 0 0 0-.1.1-.1 0-.1.1 0 0h.1c-.1 0-.1.2-.1.4.2.1.3.2.1.4 0 .1 0 .2.1.2.1.1.1.1 0 .2 0 0-.1.1-.1.2s0 .2-.1.3l.1.1c0 .1-.1.3-.2.4l-.3.3c-.1 0-.1.1-.1.1l-.1.1c-.1.1-.3.4-.6.6-.3.3-.6.6-1 .9-.3.3-.7.6-1 .9-.3.3-.6.5-.7.6-.4.4-.9.9-1.7 1.5-.7.6-1.5 1.2-2.4 1.8-.9.6-1.8 1.1-2.8 1.5s-1.8.6-2.6.5c-.2 0-.5 0-.8-.1s-.5-.2-.7-.3l-.3-.3c-.3-.3-.5-.6-.7-1-.1-.4-.2-.8-.2-1.1 0-.6.1-1 .2-1.4s.2-.8.4-1.3c.2-.7.5-1.5.9-2.4.4-.9.8-1.7 1.1-2.3.2-.3.3-.5.4-.7.1-.2.2-.3.2-.4.1-.1.2-.3.3-.4.1-.2.2-.4.4-.7.3-.4.4-.6.5-.7l.2-.2c.1-.1.1-.2.3-.3.1-.2.4-.5.8-1.1l3.7-4.7s0-.1.1-.1.2-.2.3-.3zm6.6 8.4c0-.1 0-.1 0 0 0-.1 0 0 0 0z"/><path d="M128.8 82.7c.1-.1.3-.1.5-.2.2 0 .4-.1.6-.2.1 0 .3-.1.4-.1h.8c.1 0 .2 0 .3-.1.3 0 .6.1.9.2.1 0 .3 0 .5.1s.3.2.4.3c.3.2.5.4.7.6.2.2.3.4.4.8.2.5.3 1.1.3 1.6 0 .6-.1 1.1-.2 1.6s-.4 1.3-.9 2.4c-.5 1.1-1.2 2.2-2.3 3.5l-.2.2-.3.3-.3.3c-.1.1-.1.2-.2.2h.3c.2 0 .4 0 .7-.1.2 0 .6-.1 1-.1l.9-.3c.2-.1.5-.2.7-.4.2-.1.4-.3.6-.5.2-.2.4-.3.7-.5.3-.3.7-.7 1.1-1 .4-.4.8-.7 1.1-1l.4-.3c-.1-.2-.1-.3.1-.3v.1c0 .1.1.2.1.2v.1l-.1.1c.2-.1.3-.2.3-.3 0-.1.1-.2.3-.3v.2c0 .1.1.1.2.1h.2c.1 0 .1 0 .2-.2 0-.1.1-.2.2-.2 0 .1-.1.2-.1.2.1 0 .2-.1.3-.1 0 0 .1-.1.2-.1 0 .1 0 .3-.2.3s-.1.2 0 .3c.1-.2.2-.3.3-.3l.2.2c0 .1-.1.2-.1.2 0 .1-.1.2-.1.2-.1.1-.1.1-.1.2h.2c-.1.2-.3.4-.4.5s-.2.3-.2.5c-.1.1-.2.2-.3.4-.1.1-.1.3-.3.4-.2.3-.4.6-.6.8-.2.2-.4.4-.6.7-.1.1-.2.2-.2.3-.1.1-.1.1-.2.1-.3.3-.6.5-.8.7-.3.2-.6.4-1 .6-.3.2-.8.4-1.4.6-.6.3-1.2.4-1.8.4-.2 0-.7.1-1.3.1-.6.1-1.2.1-1.7 0-.1.1-.3 0-.6 0-.3-.1-.5-.1-.6 0-.2.1-.3.2-.3.2v.1l-.3.3c-.2.2-.3.2-.3.3l-.1.1s0 .1-.1.1l-.3.3c-.3.2-.5.4-.7.6-.2.2-.5.4-.9.6-.4.2-.8.4-1.3.6-.5.2-1 .3-1.5.4-.4.1-.7.1-1 .2h-1c-.3-.1-.6-.1-.9-.3-.3-.1-.6-.3-.8-.4l-.5-.5c-.2-.2-.3-.3-.4-.5-.2-.2-.3-.3-.3-.6 0-.2 0-.4-.1-.6 0-.1-.1-.3-.1-.4v-.4c-.1-.2-.1-.4.1-.8.1-.9.4-1.8.7-2.6.3-.8.7-1.6 1.2-2.5.2-.3.3-.6.5-.9.2-.3.3-.6.5-.9.1-.1.2-.3.3-.4.1-.1.2-.2.4-.3 0-.2.1-.2.2-.2.5-.6 1-1.2 1.5-1.7s1.1-1.1 1.7-1.6c.2-.1.3-.2.4-.2s.2-.1.3-.2c.1-.1.3-.2.4-.4.1-.2.3-.3.4-.3.1 0 .2-.1.3-.1l.2-.2 2.8-.8zm-3.7 12.8c-.2-.2-.4-.4-.7-.6-.3-.2-.5-.4-.6-.7-.2-.3-.3-.5-.4-.7-.1-.2-.2-.4-.2-.6 0-.2-.1-.4-.1-.6v-.8.2c-.2.1-.3.3-.6.5s-.4.5-.5.7c0 .1-.1.2-.1.2 0 .1 0 .1-.1.2s-.1.1-.1.2-.1.2-.2.4c-.3.4-.4.8-.5 1.3-.1.4-.2.8-.4 1.3v1l.2.4h.4c.1-.1.2-.1.3-.1h.4c.1-.1.2-.1.3-.1.1 0 .2-.1.3-.1.2-.1.3-.2.4-.3s.3-.2.5-.3c.2-.1.3-.2.4-.2h.1l.1-.1.3-.3c.2-.1.3-.2.3-.2.1 0 .1-.1.2-.1s.1-.1.2-.1.1-.1.2-.2c.1 0 .1-.1.1-.1-.2-.1-.2-.2-.2-.2zm1.7-2.1c.1 0 .1-.1.2-.3l.2-.2c.3-.3.6-.7 1-1.1.4-.5.7-1 1-1.4.3-.5.6-.9.8-1.3.2-.4.4-.7.5-.9.1-.2.1-.4.2-.5.1-.1.1-.3.1-.4 0-.1.1-.2.1-.3 0-.1 0-.2.1-.4.1-.4-.1-.6-.4-.8-.3-.2-.7-.2-1.1 0-.6.3-1.2.6-1.7 1s-.8.7-.9.8c-.1.1-.2.3-.4.5s-.3.4-.3.5c-.2.3-.3.4-.3.5 0 .1-.1.3-.2.5 0 .2 0 .3-.1.4 0 .1-.1.2-.1.3 0 .1 0 .3-.1.5v.8c.2.7.6 1.3 1.4 1.8z"/></svg>