<svg version="1.1" id="latte" xmlns="http://www.w3.org/2000/svg" x="0" y="0" viewBox="0 0 183 112" xml:space="preserve"><style>.st1{fill:#bf855f}.st3{fill:#5b3027}.st4{fill:#a56b60}.st5{fill:#fff}.st6{fill:#90452c}.st7{fill:#723220}.st9{fill:#c6beb5}.st10{fill:#474747}</style><path d="M7.4 49.3L34.1 108c11.2-.3 22-4.2 30.9-11.1L47.7 35.5 7.4 49.3z" fill="#efe3d3"/><path class="st1" d="M37.4 42.6c.2.3.4.6.7.9.2.3.6.4 1 .3.2-.1.4-.2.5-.3.4-.3.8-.6 1.3-.9.3-.2.8-.3 1.2-.2.2.2.4.4.5.6.6.8 1.6 1.1 2.6.8.5-.1 1-.6 1.1-1.1 0-.2 0-.5-.1-.7l-.9-3c-.1-.3-.3-.7-.6-.7-.2 0-.4.1-.5.2-2.1 1.5-4.4 2.7-6.8 3.7"/><path d="M5.7 50.3L4.1 46c-.1-.2-.1-.5 0-.7v-.2c.7-2.9 2.5-5.4 5-7 4.6-2.9 9.6-5.1 14.9-6.6 5-1.6 10.2-2.8 15.4-3.8 2.9-.5 5.8.2 8.1 1.9.2.1.3.3.4.6l1.6 4.3c.2.5 0 1.1-.4 1.4C37 44.9 22.8 49.5 7 51.1c-.6.1-1.1-.2-1.3-.8z" fill="#763b2a"/><path class="st3" d="M41.6 30.1c-.1 0-.2-.1-.6-.1-.6 0-1.3.1-1.9.2-2.4.5-4.8 1.1-7.2 1.9-3 1-6.5 2.2-10.4 3.8-1.9.8-3.9 1.7-5.9 2.7-1 .5-2 1-2.9 1.7-.5.3-.9.6-1.3.9-.2.1-.3.3-.5.5l-.1.1c.1-.4 0-.8-.4-1H11.2c.5 0 1.1 0 1.6-.1 1.1-.1 2.2-.4 3.3-.6 2.2-.5 4.3-1.1 6.3-1.7 4-1.2 7.5-2.5 10.5-3.7 2.3-.9 4.6-1.9 6.8-3.1.6-.3 1.1-.7 1.6-1.1.3-.3.3-.5.4-.5s.1 0 .2.2c0 .2 0 .4-.1.6-.4.6-.9 1.2-1.5 1.6-2 1.6-4.2 2.9-6.6 4-3.4 1.6-6.9 3.1-10.5 4.3-2 .7-4.2 1.3-6.5 1.9-1.1.3-2.3.5-3.6.7-.6.1-1.3.1-1.9.2H10c-.3 0-.5-.1-.8-.2-.9-.4-1.3-1.5-.9-2.4 0 0 0-.1.1-.1.1-.2.3-.4.5-.6.2-.3.5-.6.8-.8.5-.4 1-.8 1.6-1.1 1.1-.7 2.1-1.2 3.2-1.7 2.1-1 4.2-1.9 6.2-2.7 3.5-1.4 7.1-2.5 10.8-3.4 2.5-.7 5-1 7.6-1.1.7 0 1.5.1 2.2.3.2.1.4.2.5.4-.1-.1-.2 0-.2 0z"/><path class="st3" d="M41.3 30.3c-.5-.4-1.2-.5-1.8-.3-1.4.2-2.8.6-4 1.3-.7.3-1.4.9-1.8 1.6-.1.1-.1.2-.1.3 0 .2.3.3.5.4 2.7.3 5.4-.5 7.4-2.4.2-.2.4-.4.4-.7s-.6-.5-1-.5c-1.1.1-2.2.3-3.3.7M48 31.6c.1.1 0 .8-.8 1.8-1.2 1.2-2.6 2.3-4.2 3-4.9 2.7-10 4.9-15.2 6.6-5.3 1.7-10.8 2.9-16.3 3.4-4.3.4-6.9.1-6.9-.2s2.6-.8 6.7-1.6c5.3-1.1 10.6-2.4 15.8-4.1 6.1-1.9 11.4-4.2 15.3-5.8 1.5-.5 3-1.3 4.3-2.1.7-.6 1.1-1.1 1.3-1z"/><ellipse transform="rotate(-32.492 6.299 48.168)" class="st4" cx="6.3" cy="48.2" rx="1.3" ry="1.5"/><path class="st4" d="M21 33.4c.3.7-3.9 2.6-8.4 5.4-1.1.7-2.2 1.4-3.1 2.1-.8.6-1.6 1.2-2.3 1.9C6 44 6 45 5.7 45.2c-.2 0-.4-.2-.6-.8-.1-.9.1-1.7.5-2.5.6-1 1.3-1.9 2.2-2.7 1-.9 2.1-1.8 3.3-2.5 2.1-1.3 4.4-2.3 6.7-3 1.9-.5 3.1-.6 3.2-.3z"/><path class="st1" d="M14.4 64.9l10.3 22.8c15.9-2 25.3-6.4 34.5-12.4l-6.4-23.5c-11.3 9-37.4 15.5-38.4 13.1z"/><circle transform="rotate(-19.821 39.875 70.75)" class="st5" cx="39.9" cy="70.8" r="8.2"/><path class="st6" d="M41.8 77c1.3-.5 2.3-1.5 2.7-2.8.4-1.3.6-2.6.6-4l.1-2.2c0-.4 0-.7-.1-1.1-.2-.3-.4-.6-.7-.9-.4-.4-.9-.6-1.5-.8-1.2-.2-2.4.4-3 1.4-.6 1-1 2.1-1.2 3.3l-.5 2c-.2.6-.2 1.3-.2 2 .2.7.5 1.4 1 2 .3.5.8.9 1.4 1.2.6.2 1.3 0 1.6-.5"/><path class="st7" d="M40.8 77.2c-.4 0-.7-.7-.8-1.9 0-1.5.1-2.9.4-4.3.7-3.3 1.8-5.8 2.5-5.6s.8 2.9.1 6.1c-.3 1.4-.7 2.7-1.2 4.1-.3 1-.6 1.6-1 1.6z"/><path class="st6" d="M43.7 74.8c.1-1.4-.4-2.7-1.4-3.6-1-.9-2.2-1.6-3.4-2.2L37 68c-.3-.2-.6-.3-1-.3s-.7.1-1.1.3c-.5.2-1 .6-1.4 1-.7 1-.7 2.3 0 3.3s1.5 1.8 2.5 2.4l1.7 1.3c.5.4 1.1.8 1.7 1 .7.2 1.5.1 2.2-.1.6-.1 1.2-.4 1.6-.8.5-.4.5-1.1.2-1.7"/><path class="st7" d="M43.5 75.8c-.1.3-1 .4-2-.1-1.3-.6-2.6-1.3-3.7-2.2-2.7-1.9-4.5-4-4.1-4.6s2.9.5 5.6 2.4c1.2.8 2.2 1.7 3.2 2.8.7.9 1.1 1.4 1 1.7z"/><path class="st5" d="M25.1 80.2c-.7.3-3.5-5.7-6.8-13s-6-13.3-5.3-13.7 4.3 5.2 7.7 12.6 5 13.8 4.4 14.1zM33.4 95.7c-.6.4-2.8-1.8-4.5-5.2s-2.2-6.5-1.6-6.7 2.2 2.3 3.9 5.5c1.6 3.3 2.8 6 2.2 6.4z"/><path d="M58.6 74.8c.4.6-4.3 4.6-11.3 7.5S34.1 85.8 34 85.1s5.6-2.3 12.3-5.1 11.9-5.8 12.3-5.2z" fill="#a57959"/><path class="st9" d="M60.4 95.9c.1.1.1.5-.3 1.2-.6.9-1.3 1.6-2.1 2.3-5.2 4.1-11.6 6.5-18.3 6.8-2.5.1-4.1-.3-4.1-.6 0-.8 6-1.2 12.8-3.8 2.9-1.1 5.8-2.4 8.5-3.9 2.2-1.1 3.2-2.1 3.5-2zM58.6 89c.6-.3 1.7.6 2.2 2.1.4.9.2 2-.4 2.8l-.7.1c.2-.2.5-.2.7-.1l-.7.1c-.7-.5-1.3-1.3-1.4-2.1-.4-1.4-.3-2.6.3-2.9z"/><path class="st10" d="M66.7 67.4l-2.8.5V48.1c3.9-.5 5.9-.8 9.8-1.5 1.1-.2 2.2.1 3 .8.8.7 1.3 1.7 1.3 2.8V53c0 1.2-.4 2.3-1.2 3.2-.8.9-1.8 1.5-3 1.7-2.8.5-4.2.7-7 1.1v8.4zm0-11.2c2.8-.4 4.2-.7 7-1.1.8-.2 1.3-.8 1.3-1.6v-2.8c0-.6-.5-1.2-1.1-1.2h-.3c-2.8.5-4.2.7-7 1.1l.1 5.6zM93.2 52.4c.1.2.1.4.1.6 0 3.9-.1 5.8-.1 9.7l-2.8.5v-5.5c-3.4.6-5.1.9-8.4 1.5v5.6l-2.8.5v-9.7c0-.2.1-.4.1-.6l4.2-9.1c.2-.5.7-.9 1.3-1l2.8-.5c.5-.2 1 .1 1.3.6 1.8 2.9 2.7 4.4 4.3 7.4zm-11.1 4c3.4-.6 5.1-.9 8.4-1.5v-1.1l-3.7-6.6-1.1.2c-1.5 3.2-2.2 4.8-3.7 7.9.1.5.1.7.1 1.1zM100.3 61.4c-1 .3-2.2 0-3-.7-.9-.6-1.3-1.7-1.2-2.7.1-4.4.1-6.6.2-11.1 0-1.2.5-2.3 1.3-3.2.8-.9 1.8-1.6 3-1.8l5.7-1.1c1.1-.2 2.2 0 3 .7.8.7 1.3 1.7 1.2 2.8v1.4l-2.8.5v-1.4c0-.6-.4-1.1-1-1.2h-.4l-5.7 1c-.8.2-1.4.8-1.4 1.7-.1 4.5-.1 6.7-.2 11.1 0 .6.4 1.1 1 1.2h.4l5.7-1.1c.8-.2 1.4-.8 1.4-1.7v-1.4l2.8-.5v1.4c0 1.2-.5 2.3-1.3 3.2-.8.9-1.8 1.6-3 1.8l-5.7 1.1zM127.6 42.6c0 .4-.2.7-.4 1l-3.3 3.7c1.3 1 2 1.5 3.3 2.5.3.2.4.5.4.9v5.4l-2.9.6v-4.9c-1.4-1-2.1-1.6-3.5-2.6l-5.2 1c-.1 3.3-.1 4.9-.2 8.2l-2.9.6c.2-7.8.3-11.4.4-19.4l2.8-.5c-.1 3.4-.1 5.1-.2 8.4l5.1-1 3.5-4v-5l2.8-.5c.3 2.3.3 3.4.3 5.6zM62.4 73.1v-1.4c22.3-3.9 44.4-8 66.6-12.4v1.4c-22.1 4.4-44.3 8.5-66.6 12.4z"/><path d="M47.5 87.5h-.3l-.1.1c-.2.2-.5.4-.7.6-.2.2-.4.4-.5.6-.1.1-.3.2-.4.4-.1.2-.2.3-.3.5L44 91.9l-.3.6c-.1.2-.2.5-.3.8-.1.3-.2.6-.2.9-.1.3-.2.6-.2.9-.4 1.7-.4 3.2-.1 4.5v.2c0 .1 0 .2.1.2.2.3.3.5.4.7.1.2.3.3.7.4.3 0 .6 0 1-.1.3-.1.7-.2 1.1-.5.4-.2.8-.5 1-.7.2-.2.5-.5.9-.8.2-.2.5-.5.8-.9.3-.4.7-.7 1-1.1.3-.4.7-.8 1-1.1.3-.4.5-.7.7-1 .2-.2.4-.5.6-.9.2-.4.5-.8.7-1.1s.5-.8.7-1.1c.2-.4.4-.7.5-.9.1-.1.2-.3.2-.5.1-.2.1-.3.2-.4.2-.3.3-.5.4-.6.1-.1.2-.3.2-.5 0-.1.1-.2.1-.2 0-.1.1-.1.2-.2 0 0 .1.1.1.2l-.1.1v.2c.1 0 .1 0 .2-.1 0-.1.1-.1.1-.1.1.1.1.1.2 0l.1-.1.1-.2c0 .1.1.3.1.4.1.1.1.3 0 .4v.1h.1c0 .1.1.2.1.3h.2c0 .1 0 .2.1.3v.4c-.1.3-.2.7-.2 1 0 .1 0 .3.1.4v.3c-.3.6-.7 1.3-1.1 2.2-.4.9-.9 1.7-1.4 2.4l-.3.3-.3.3c-.2.3-.4.7-.7 1.1-.3.4-.6.8-1 1.1-.3.4-.7.7-1 1l-.8.8-.7.7c-.2.3-.5.5-.7.6-.3.3-.7.6-1.3.9-.5.3-1.1.5-1.8.7-.6.2-1.2.3-1.9.3-.6 0-1.1 0-1.5-.1-.5-.2-.8-.4-1.1-.6-.3-.2-.5-.5-.7-.8-.2-.3-.4-.6-.5-1-.1-.4-.3-.8-.4-1.3-.1-.9-.2-1.8-.3-2.6 0-.8 0-1.8.2-2.8.1-.4.2-.8.3-1.1.1-.3.2-.7.3-1.1.2-.6.4-1.2.6-1.7.2-.6.5-1.1.7-1.7.2-.4.5-.9.7-1.3.2-.4.5-.8.8-1.2.2-.2.3-.4.4-.6.1-.2.3-.5.5-.6.2-.3.4-.5.7-.8l.7-.7c.3-.3.7-.6 1.3-.8.5-.2 1-.3 1.4-.4h.5c.2-.1.4-.1.7.1.3.1.5.4.8.7s.5.8.7 1.3.3 1.1.3 1.8c0 .4 0 .8-.1 1.1-.1.4-.1.7-.2 1.1-.1.3-.1.4-.2.6 0 .1-.1.3-.1.4 0 .1-.1.3-.1.4 0 .1-.1.3-.2.5-.1.1-.1.2-.2.3 0 .1-.1.2-.2.3L49 93c-.1.3-.3.5-.6.6 0 0-.1.1-.1.2s0 .1-.1.2c-.2.1-.4.2-.5.2-.1.1-.3.1-.6.2-.2 0-.4 0-.5-.2-.1 0-.1-.1-.1 0h-.1c-.1-.2-.2-.3-.4-.5-.1-.2-.2-.4-.2-.7v-.2-.2c0-.2.1-.4.2-.7.1-.3.2-.6.3-.7 0 0 .1-.1.1-.2s.1-.2.1-.3c0-.1 0-.2.1-.1v.2l.1-.1c.1-.4.2-.6.3-.7s.1-.4.2-.7c0-.2.1-.3.1-.5s.1-.4.1-.5c.1-.1.1-.1 0-.2.1-.5.1-.6.1-.6z"/><path d="M63.4 82.5c.1-.3.2-.5.4-.6l.6-.3c.2-.1.3-.1.4-.1h.3c.1 0 .2.1.2.2s.1.1.1.1c0-.1.1-.1.2-.1 0 .1.1.1.1.1h.1c.1.2.2.3.3.5.1.1.1.3.1.5 0 .1 0 .3-.1.5v.7c0 .3-.1.5-.2.8-.1.3-.1.5-.2.8-.1.3-.2.5-.2.6-.2.6-.4 1.1-.5 1.7-.2.6-.3 1.1-.4 1.6-.2.8-.3 1.4-.4 2-.1.6-.3 1.3-.4 2.2 0 .5-.1 1-.1 1.5s0 1.1.2 1.8c.1.4.2.6.5.6.2 0 .3 0 .4-.1.1-.1.2-.1.4-.2.3-.2.5-.4.8-.8.3-.4.5-.7.8-1.1.2-.3.5-.8.7-1.5.3-.6.6-1.3.8-2s.5-1.3.7-1.9c.2-.6.4-1 .5-1.2 0-.1.1-.3.2-.5s.2-.3.3-.4v-.2-.1c.1-.1.1-.2.2-.3 0-.1.1-.2.1-.3 0-.1.1-.2.3-.4.2-.2.3-.3.4-.3h.2c.1 0 .1 0 .1-.1.1-.1.1-.1.1-.2s0-.1.1-.2c0-.1 0-.1.1-.1h.1V86c.1 0 .1 0 .1-.1v-.1s.1 0 .1.1l.1.1.1-.1c0 .1 0 0 .1-.1v.1l.1-.1c.1.1.1.2.2.3s.1.2.2.3v-.2.7s0-.1.1-.1l.1-.1v.2c0 .2 0 .4-.1.6s0 .4 0 .6c-.1.3-.2.7-.4 1.3-.2.6-.5 1.3-.8 1.9s-.5 1.3-.8 1.9c-.3.6-.5 1-.6 1.3-.2.5-.4 1-.6 1.4-.2.5-.5.9-.8 1.3 0 .1 0 .1-.1.1l-.1.1c-.3.5-.7 1-1.2 1.5s-1 .9-1.6 1.2c-.6.3-1.1.5-1.7.6-.6.1-1.1 0-1.7-.3-.3-.2-.6-.4-.8-.8-.2-.3-.3-.6-.4-.8-.1-.2-.2-.6-.3-1 0-.2-.1-.3-.1-.5v-.6c0 .1-.1.2-.2.4l-.2.2-.9 1.5c-.3.5-.6.9-.9 1.3-.1.1-.1.2-.2.3-.1.1-.2.2-.2.3-.2.3-.5.6-.8.9-.3.3-.6.5-.9.7-.9.5-1.7.7-2.4.6s-1.3-.5-1.7-1.1c-.2-.4-.4-.7-.5-.9-.1-.3-.2-.6-.3-1.1v-.4-.4-1.2c-.1-.4 0-.8.1-1.1 0-.1 0-.3.1-.4.1-.1.1-.3.1-.4 0-.3.1-.6.1-.8.1-.3.1-.5.2-.8.1-.7.4-1.3.7-2 .3-.6.6-1.3.8-1.8 0-.1.1-.2.1-.4s.2-.3.2-.5c.1-.2.2-.3.2-.5.1-.2.1-.3.2-.4.3-.6.6-1.2 1-1.8.4-.6.7-1.2 1.1-1.7.4-.5.8-1 1.3-1.4.5-.4 1-.8 1.6-1 .1 0 .1-.1.2-.1s.2-.1.3-.1c.5-.1.9-.2 1.2-.2.3 0 .6.1.7.2.2.1.3.2.5.4.1.2.3.4.4.5l.7-1zm-2 3.1c0 .1-.1.1 0 0l-.1.1c-.1.1-.1.1-.1 0h-.1c-.1.1-.1.2-.2.2l-.2.2c-.1.1-.2.1-.2.2-.1 0-.1.1-.2.2s-.1.2-.2.2l-.2.1v.2l-.5.5c-.1.1-.2.4-.4.7-.4.5-.8 1.2-1.1 2-.4.8-.7 1.5-1.1 2.3-.1.2-.2.4-.2.5 0 .1-.1.2-.1.3s-.1.2-.1.3-.1.3-.2.4c-.3.7-.5 1.4-.6 2.1-.1.7 0 1.3.1 1.7.2.4.4.6.9.4.4-.1 1-.8 1.7-1.9.2-.4.4-.6.6-.9.2-.2.4-.6.5-.9.3-.5.5-1 .7-1.5.2-.5.4-1.1.7-1.7.4-.8.7-1.6.9-2.4v-.2s0-.1.1-.1c0-.2 0-.3.1-.4.1-.1.1-.2.1-.3 0-.2.1-.3.2-.4.1-.1.1-.3.1-.3l.1-.6c-.1-.2-.2-.5-.3-.7-.4-.3-.6-.4-.7-.3zm10.9.1c0-.1 0-.1 0 0z"/><path d="M71.1 100.7c.1-.1 0-.3-.1-.5-.1 0-.1.1 0 .2v.2c-.1-.1-.1-.3-.1-.4-.2.1-.3.2-.4.3-.1.1-.1.3-.2.4l-.2-.1c0 .1-.1.2-.1.3h-.2l-.2-.2c-.1 0-.1-.1-.1-.1h-.1v-.3c0-.1-.1-.2-.1-.2l-.2.1c-.1-.1-.1-.2-.2-.4-.1-.1-.1-.3-.1-.4v-.3-.2-.2-.1c-.1-.1-.2-.3-.2-.4V98v-.3c0-.1.1-.2.1-.4.1-.9.2-1.6.3-2.1.1-.5.2-1 .3-1.4.1-.5.2-.9.3-1.4.1-.5.2-1.2.3-2.1 0-.1.1-.4.1-.8.1-.4.2-.8.3-1.3.1-.4.2-.9.3-1.3.1-.4.1-.7.1-.8v-.3c-.1 0 0-.1 0-.3s.1-.4.2-.7c.1-.3.1-.5.2-.7v-.3c-.2.1-.4.2-.5.2s-.2.1-.3.1c-.1 0-.2 0-.3.1-.1 0-.3.1-.5.2s-.4.1-.6.1h-.6c-.2 0-.4-.1-.5-.2-.1-.1-.3-.3-.4-.6 0-.1-.1-.2-.3-.3-.1-.2-.2-.3-.2-.4 0-.1 0-.2.2-.3.2-.1.2-.2.2-.3 0-.2 0-.4.2-.4.1 0 .2-.1.3-.2.1-.1.2-.1.3-.2.1 0 .2-.1.3-.1 0-.1.1-.1.2-.1h.2c.2-.1.4-.1.5-.2s.2-.1.3-.1c.2 0 .3-.1.5-.1.2-.1.3-.1.5 0 .1 0 .2 0 .3-.1.1-.1.1-.1.2-.1l1.1-.4c0-.1 0-.1.1-.1v-.1c.1-.3.1-.5.2-.6l.1-.1.1-.1c0-.1.1-.2.1-.5 0-.2.1-.3.1-.3 0-.1 0-.2.1-.4.1-.3.2-.6.3-.8.1-.3.2-.5.3-.8 0-.2.1-.5.3-.9.2-.4.5-.9.8-1.4l.9-1.5c.3-.5.6-.8.8-1l.9-.9c.3-.3.6-.5.9-.7.3-.2.7-.4 1-.5s.8-.3 1.3-.4l.5-.1h1c.3 0 .6.2.9.3.1.1.2.2.2.3.1.2.2.3.3.3.1 0 .2.1.2.3.1.2.1.4.2.6.1.2.1.4.1.6v.3c0 .8 0 1.4-.1 1.9s-.2 1-.3 1.4c-.1.4-.3.7-.4.9-.2.3-.3.5-.4.6 0 .1-.1.2-.2.2-.1.1-.2.1-.4.2-.1 0-.1.1-.2.1l-.1.1h-.1-.1c-.3.1-.4.1-.5 0l-.4-.2-.2-.2c-.1 0-.2 0-.3-.1 0-.1-.1-.2-.3-.4s-.2-.3-.2-.4c0-.1 0-.3.1-.5.1-.3.1-.6.2-.9.1-.3.2-.7.3-1 .1-.3.1-.6.2-.8 0-.2 0-.3-.1-.4-.1 0-.3.1-.6.3-.3.3-.5.5-.6.7-.1.2-.3.4-.5.7-.4.5-.6 1-.8 1.4-.9.5-1.1 1-1.4 1.5-.1.3-.2.4-.2.5 0 .1-.1.1-.1.2s0 .2-.1.3c0 .1-.1.3-.2.7l-.1.2s0 .1-.1.2v.2h.3l.2-.1c.2 0 .3-.1.3-.1s.1-.1.3-.1c.2 0 .3-.1.3-.1l.1-.1H77.5c.2 0 .3-.1.5-.1s.3-.1.5 0c.1 0 .2.1.3.1.1.1.2.1.3.3 0 .1.1.1.1.2.1.1.1.1.1.2.1.1.2.2.2.3 0 .1 0 .2.1.3v.4c-.1.1-.1.3 0 .4-.1.3-.2.5-.5.6 0 .1-.2.1-.5.2s-.4.1-.4.2c-.1 0-.2.1-.3.1-.1 0-.2 0-.3.1-.2.1-.4.1-.6.2-.2 0-.4.1-.6.1-.1 0-.1.1-.1.1h-.1c-.3.1-.6.2-.8.3-.2.1-.5.2-.8.4l-.2.4c-.1.2-.1.5-.2.7-.1.3-.1.5-.2.8 0 .2-.1.4-.1.5-.1.3-.1.7-.2 1.2s-.2 1.1-.3 1.6c-.1.6-.2 1.1-.3 1.6-.1.5-.2.9-.2 1.2-.1.5-.2.9-.2 1.2 0 .2-.1.5-.1.6s0 .4-.1.6c0 .2-.1.6-.2 1.2s-.2 1-.2 1.3c0 .3-.1.5-.1.7 0 .2-.1.5-.1.7 0 .3-.1.7-.2 1.3.1.1.1.2 0 .4 0 .3 0 .5-.1.8 0 .3-.2.5-.3.8-.1.1-.2 0-.2-.1zM82.5 89.2c-.2.6-.3 1.2-.3 1.9-.1.7-.1 1.3 0 1.8.1.3.2.7.3 1 .1.2.3.3.5.3h.7c.2 0 .4-.1.6-.1s.5-.1.7-.2c1-.6 2-1.4 2.9-2.3.4-.5.9-1 1.3-1.6.4-.6.8-1.2 1.2-1.9.4-.6.8-1.3 1.1-1.9.3-.6.6-1.1.9-1.6.1-.1.1-.2.2-.4l.3-.6.3-.6c.1-.2.2-.4.2-.5.1-.1.1-.3.2-.3.1-.1.2-.1.3-.1V82v-.2c0-.1 0-.1.1-.2h.4s.1 0 .1.1c0-.1.1-.1.3-.2.2-.1.3 0 .4.2l.1.1.1.1s.1.1.1.2v.2h.2l-.5 1.8h.1c.1 0 .1 0 .1.1-.1.5-.3 1-.5 1.4-.5 1.1-1.1 2.3-1.9 3.6-.7 1.3-1.6 2.5-2.5 3.6-.9 1.1-1.9 2.1-3 2.9-1.1.8-2.2 1.4-3.3 1.6-.2 0-.5.1-1 .1-.5.1-.8.1-1 .1-.3 0-.6 0-1-.1-.3-.1-.6-.2-.9-.4-.2-.1-.5-.3-.7-.5-.2-.2-.4-.5-.6-.7-.1-.1-.1-.2-.2-.3 0-.1-.1-.2-.1-.3-.2-.3-.3-.6-.4-.9-.1-.3-.1-.6-.2-1v-.7-.6-.6-.5-.5l.2-2c.3-1.2.6-2.3 1-3.5.4-1.1.9-2.2 1.5-3.2s1.2-1.9 2-2.7c.8-.8 1.6-1.4 2.7-1.8.3-.1.6-.1 1-.1s.7.1.9.2c.2 0 .4.2.6.3.5.4.8.8.9 1.4.1.3.2.6.2.9v1c-.1.1-.1.2-.1.3-.3 1.6-.7 2.9-1.2 4.2-.5 1.2-1.4 2.4-2.5 3.5-.2.2-.5.4-.8.5s-.7.2-1.2.2h-.1-.2l-.1-.1c-.2 0-.3-.1-.4-.2s.2-.1 0-.1zm.5-2.7c0 .1.1.2.1.2s.1 0 .1.1H83.5c.7-.4 1.3-1 1.7-1.8.4-.8.7-1.5 1-2.3.1-.2.1-.4.2-.6 0-.2.1-.3.1-.5v-.3c0-.1-.1-.2-.1-.3l-.2-.2c-.1 0-.2 0-.4.1l-.6.6c-.1.1-.3.3-.4.6-.4.5-.6.9-.7 1.2-.1.3-.2.5-.3.6-.1.2-.1.3-.2.5l-.4.8c-.1.1-.1.2-.1.3 0 .1 0 .3-.1.3v.4c0-.1 0 0 0 0v.3zm11.7-4.6c0 .1 0 .1 0 0zM115.6 79.9c-.1.1-.1.2.1.3 0-.1.1-.1.1-.2 0 0 .1-.1.1-.2v1c.1-.1.1-.2.2-.3s.1-.2.1-.3c.1 0 .1.1.1.2s-.1.2-.1.3c0 .1-.1.2-.1.3 0 .1-.1.1 0 .2l.2.2v.2c-.2.4-.3.8-.4 1.1-.1.3-.2.5-.3.7l-.3.6c-.1.2-.2.5-.3.8-.5.8-.9 1.5-1.3 2.2-.4.7-.9 1.5-1.5 2.3-.2.2-.3.4-.5.6l-.5.5c-.2.2-.4.4-.5.6l-.7.7c-.4.3-.8.6-1.2.8s-.8.5-1.3.7c-.3.1-.7.2-1 .2-.3 0-.6.1-1 0-.3 0-.5 0-.7-.1-.6-.3-1.1-.5-1.3-.8-.3-.3-.5-.8-.7-1.5-.1-.3-.1-.6-.1-.9 0-.3 0-.7-.1-.9-.1-.4-.1-.9 0-1.3 0-.4.1-.8.1-1.2 0-.5.1-1 .3-1.4.1-.4.2-.9.3-1.4 0-.2.1-.5.2-.8.1-.3.2-.5.2-.8.3-1.3.5-2.3.7-3.1.2-.8.4-1.5.5-2.2.1-.7.3-1.4.4-2.2.1-.8.3-1.8.6-3 .1-.4.2-.7.3-1.1.1-.4.2-.7.2-1.1 0-.1.1-.2.1-.2v-.2l.3-.9c.1-.3.2-.7.2-1 0-.1 0-.3.1-.5s.1-.4.2-.5c.1-.2.2-.3.4-.4.1-.1.3-.2.4-.2.1-.1.2-.1.2-.2.1-.1.1-.1.2 0h.5c.1 0 .3 0 .4.1.2.1.4.3.7.6.2.3.4.5.4.7.1.2.1.3.1.4v.4c0 .3-.1.6-.2 1s-.2.8-.2 1c-.1.5-.3 1.1-.4 1.7-.2.6-.3 1.2-.4 1.6-.1.4-.1.8-.2 1 0 .2-.1.5-.1.7 0 .2-.1.4-.2.7-.1.2-.1.6-.3 1-.1.4-.2.9-.3 1.6-.1.6-.2 1.3-.5 2.1-.1.5-.3 1-.4 1.5-.1.5-.3 1-.4 1.5-.1.5-.2 1-.3 1.6l-.3 1.8c0 .5-.1.9-.2 1.4-.1.4 0 .8.1 1.2 0 .2.1.3.2.3h.4c.2 0 .3-.1.4-.2.1-.1.2-.1.3-.2.3-.3.6-.5.8-.7l.8-.8c.7-.9 1.3-1.8 1.8-2.8.5-1 1-1.9 1.5-2.8l.2-.3c0-.1.1-.2.2-.3 0-.1.1-.1.1-.2s.1-.1.1-.2c.1-.1.1-.2.1-.2s.1.1.1.2c.1-.1.2-.1.2-.2s.1-.2.1-.3c.1-.1.2-.1.2-.2s.1-.1.2-.2l.1-.2c0-.2.1-.3.2-.4 0-.1.1-.2.2-.2h.2c.1 0 .2 0 .3-.2h.1c.1.1.1.2.1.3 0 .1.1.2.1.3l.3.3z"/><path d="M122.8 71.7c.1-.3.2-.5.4-.6l.6-.3c.2-.1.3-.1.4-.1h.3c.1 0 .2.1.2.2s.1.1.1.1c0-.1.1-.1.2-.1 0 .1.1.1.1.1h.1c.1.2.2.3.3.5.1.1.1.3.1.5 0 .1 0 .3-.1.5v.7c0 .3-.1.5-.2.8-.1.3-.1.5-.2.8s-.2.5-.2.6c-.2.6-.4 1.1-.5 1.7-.2.6-.3 1.1-.4 1.6-.2.8-.3 1.4-.4 2-.1.6-.3 1.3-.4 2.2 0 .5-.1 1-.1 1.5s0 1.1.2 1.8c.1.4.2.6.5.6.2 0 .3 0 .4-.1.1-.1.2-.1.4-.2.3-.2.5-.4.8-.8s.5-.7.8-1.1c.2-.3.5-.8.7-1.5.3-.6.6-1.3.8-2 .3-.7.5-1.3.7-1.9s.4-1 .5-1.2c0-.1.1-.3.2-.5s.2-.3.3-.4v-.2-.1c.1-.1.1-.2.2-.3 0-.1.1-.2.1-.3 0-.1.1-.2.3-.4s.3-.3.4-.3h.2c.1 0 .1 0 .1-.1.1-.1.1-.1.1-.2s0-.1.1-.2c0-.1 0-.1.1-.1h.1V75.2c.1 0 .1 0 .1-.1V75s.1 0 .1.1l.1.1.1-.1.1-.1v.1l.1-.1c.1.1.1.2.2.3 0 .1.1.2.2.3v-.2.7s0-.1.1-.1l.1-.1v.2c0 .2 0 .4-.1.6s0 .4 0 .6c-.1.3-.2.7-.4 1.3-.2.6-.5 1.3-.8 1.9-.3.7-.5 1.3-.8 1.9-.3.6-.5 1-.6 1.3-.2.5-.4 1-.6 1.4-.2.5-.5.9-.8 1.3 0 .1 0 .1-.1.1l-.1.1c-.3.5-.7 1-1.2 1.5s-1 .9-1.6 1.2c-.6.3-1.1.5-1.7.6-.6.1-1.1 0-1.7-.3-.3-.2-.6-.4-.8-.8-.2-.3-.3-.6-.4-.8s-.2-.6-.3-1c0-.2-.1-.3-.1-.5v-.6c0 .1-.1.2-.2.4l-.2.2-.9 1.5c-.3.5-.6.9-.9 1.3-.1.1-.1.2-.2.3-.1.1-.2.2-.2.3-.2.3-.5.6-.8.9s-.6.5-.9.7c-.9.5-1.7.7-2.4.6-.7-.1-1.3-.5-1.7-1.1-.2-.4-.4-.7-.5-.9-.1-.3-.2-.6-.3-1.1v-.4-.4V87c-.1-.4 0-.8.1-1.2 0-.1 0-.3.1-.4.1-.1.1-.3.1-.4 0-.3.1-.6.1-.8.1-.3.1-.5.2-.8.1-.7.4-1.3.7-2 .3-.6.6-1.3.8-1.8 0-.1.1-.2.1-.4.1-.2.2-.3.2-.5s.2-.3.2-.5c.1-.2.1-.3.2-.4.3-.6.6-1.2 1-1.8.4-.6.7-1.2 1.1-1.7.4-.5.8-1 1.3-1.4.5-.4 1-.8 1.6-1 .1 0 .1-.1.2-.1.1-.1.2-.1.3-.1.5-.1.9-.2 1.2-.2.3 0 .6.1.7.2.2.1.3.2.5.4.1.2.3.4.4.5l.7-.9zm-2 3.2s-.1 0 0 0l-.1.1c-.1.1-.1.1-.1 0h-.1c-.1.1-.1.2-.2.2l-.2.2c-.1.1-.2.1-.2.2-.1 0-.1.1-.2.2s-.1.2-.2.2l-.2.1v.2l-.5.5c-.1.1-.2.4-.4.7-.4.5-.8 1.2-1.1 2-.4.8-.7 1.5-1.1 2.3-.1.2-.2.4-.2.5 0 .1-.1.2-.1.3 0 .1-.1.2-.1.3 0 .1-.1.3-.2.4-.3.7-.5 1.4-.6 2.1-.1.7 0 1.3.1 1.7.2.4.4.6.9.4s1-.8 1.7-1.9c.2-.4.4-.6.6-.9.2-.2.4-.6.5-.9.3-.5.5-1 .7-1.5s.4-1.1.7-1.7c.4-.8.7-1.6.9-2.4V78s0-.1.1-.1c0-.2 0-.3.1-.4.1-.1.1-.2.1-.3 0-.2.1-.3.2-.4.1-.1.1-.3.1-.3l.1-.6c-.1-.2-.2-.5-.3-.7-.4-.3-.6-.4-.7-.3zm10.9.1c0-.1 0-.1 0 0 0-.1 0 0 0 0z"/><path d="M131.7 68c-.1 0-.2.1-.4.2s-.4.1-.7.2c-.2.1-.4.1-.6.2-.2.1-.3.1-.4.1-.4.2-.7.3-.9.4-.2.1-.4.2-.6.2-.2 0-.3.1-.5.1s-.3 0-.5-.1c-.1 0-.3-.1-.4-.2-.1-.1-.2-.3-.3-.4-.1-.1-.2-.2-.2-.3 0-.1-.1-.2-.1-.4v-.3c.1-.3.2-.5.3-.8 0-.1.1-.2.3-.4.1-.1.3-.2.4-.2.2-.1.3-.2.5-.2s.3-.1.4-.1c.7-.1 1.2-.3 1.6-.4l1.2-.3c.3-.1.5-.2.6-.2.1 0 .4-.1.7-.2.1 0 .2 0 .2-.1.1 0 .1-.1.2-.1s.2-.1.2-.3c0-.2.1-.3.1-.4 0-.2.1-.4.1-.6.1-.2.1-.4.1-.6 0-.2.1-.4.2-.7.1-.2.1-.5 0-.7 0-.1 0-.3.1-.5s.2-.3.2-.5c.1-.1.1-.2.2-.2l.3-.3c.1-.1.1-.2.2-.2.1-.1.2-.1.3-.1h.4c.2 0 .4.1.5.1.1.1.2.1.4.2l.3.3c.1.1.2.3.2.4.1.1.1.3.1.4v.5c0 .1 0 .2-.1.3 0 .2-.1.3-.1.5s-.1.3-.1.5v.4c.1 0 .2 0 .2-.1.1 0 .1 0 .2-.1.4-.2.7-.3 1-.3s.6-.1 1-.3c.1 0 .2 0 .3-.1.1-.1.3-.1.5-.2s.3-.1.4-.2c.1-.1.2-.1.3-.1h.2c.2 0 .5 0 .7-.2.2-.1.4-.2.6-.2.2 0 .3-.1.5-.1.1-.1.3-.1.4 0h.3c.1 0 .2-.1.4 0h.4c.1.1.1.1.2 0s.1-.1.2 0c.1 0 .1.1.2.2l.3.3c0 .1 0 .2-.1.2s-.2.1-.2.1c0 .1.1.2.3.3.1.1.2.3.2.4-.1 0-.1 0-.1.1s-.1.1-.2.2v.2s0 .1-.1.2c-.1 0-.1.1-.3.1-.1.1-.2.2-.1.2-.1.1-.2.2-.4.2s-.3.1-.5.1c-.1 0-.3.1-.6.1s-.4.1-.5.2l-.1.1h-.2c-.1 0-.3.1-.6.2s-.6.2-.9.2c-.3.1-.6.2-.8.2s-.4.1-.5.2c-.2.1-.5.2-.9.3-.4.1-.8.2-1.4.5-.3.1-.5.1-.6.1-.1 0-.2.1-.3.4 0 .2-.2.5-.3 1.1-.2.6-.4 1.1-.6 1.8-.2.6-.4 1.2-.6 1.7-.2.5-.3.9-.4 1.1-.1.2-.1.4-.1.5v.1s0 .1-.1.1-.1.2-.2.4c-.2.9-.4 1.6-.5 2.1-.1.5-.2.9-.3 1.2-.1.3-.1.6-.2.9 0 .3-.1.8-.2 1.4-.1.6-.2 1.2-.3 1.7-.1.5-.1 1.1-.1 1.7 0 .2-.1.4 0 .5 0 .1.1.3.1.6.1.3.1.5.2.6.1.1.2.1.4.1.1 0 .3-.1.4-.1.1-.1.3-.1.4-.2.7-.7 1.3-1.4 1.8-2.1.5-.7.9-1.4 1.3-2.2.4-.7.8-1.5 1.2-2.4.4-.8.9-1.8 1.5-2.8 0-.1 0-.1.1-.2 0 0 .1-.1.1-.2.1-.2.2-.4.2-.6.1-.2.2-.3.5-.5.1 0 .1 0 .1-.1l.2-.2c.1 0 .1 0 .1.1 0 0 0 .1.1.1l.1-.1v-.1s0-.1.1-.1c0 0 .1 0 .2.1v.2c0 .1 0 .1.1.1s0 0 0 .1c-.1.1-.1.1 0 0h.1c-.1.1-.1.2 0 .4.2 0 .3.1.3.3 0 .1 0 .2.1.2s.1.1.1.2v.5l.1.1v.4c0 .1-.1.3-.2.4 0 .1-.1.1-.1.2s0 .1-.1.2c0 .2-.1.4-.3.8l-.6 1.2-.6 1.2c-.2.4-.4.6-.4.8-.2.5-.6 1.2-1 2-.5.8-1 1.7-1.7 2.5-.6.9-1.3 1.6-2.1 2.3-.7.7-1.5 1.2-2.3 1.4-.2.1-.5.1-.8.2-.3.1-.5 0-.7-.1-.1-.1-.2-.1-.4-.1-.4-.1-.7-.4-1-.7-.3-.3-.4-.6-.6-1-.2-.5-.3-1-.3-1.4 0-.4-.1-.8-.1-1.4-.1-.7-.1-1.6 0-2.6s.1-1.9.2-2.6c.1-.4.1-.6.1-.8 0-.2 0-.4.1-.5 0-.2.1-.3.1-.5s.1-.4.2-.8.2-.7.2-.8c0-.1 0-.2.1-.2 0-.1.1-.2.1-.4.1-.2.2-.6.3-1.3l1.8-5.7v-.1s.2.9.3.7zm9.1 5.5c.1 0 .1 0 0 0z"/><path d="M141.3 66.3c-.1 0-.2.1-.4.2s-.4.2-.7.2c-.2.1-.4.1-.6.2-.2.1-.3.1-.4.1-.4.2-.7.3-.9.4-.2.1-.4.2-.6.2-.2 0-.3.1-.5.1s-.3 0-.5-.1c-.1 0-.3-.1-.4-.2-.1-.1-.2-.3-.3-.4-.1-.1-.2-.2-.2-.3s-.1-.2-.1-.4V66c.1-.3.2-.5.3-.8 0-.1.1-.2.3-.4.1-.1.3-.2.4-.2.2-.1.3-.2.5-.2s.3-.1.4-.1c.7-.1 1.2-.3 1.6-.4l1.2-.3c.3-.1.5-.2.6-.2.1 0 .4-.1.7-.2.1 0 .2 0 .2-.1.1 0 .1-.1.2-.1s.2-.1.2-.3c0-.2.1-.3.1-.4 0-.2.1-.4.1-.6.1-.2.1-.4.1-.6 0-.2.1-.4.2-.7.1-.2.1-.5 0-.7 0-.1 0-.3.1-.5s.2-.3.2-.5c.1-.1.1-.2.2-.2l.3-.3c.1-.1.1-.2.2-.2.1-.1.2-.1.3-.1h.4c.2 0 .4.1.5.1.1.1.2.1.4.2l.3.3c.1.1.2.3.2.4.1.1.1.3.1.4v.5c0 .1 0 .2-.1.3s-.1.3-.1.5-.1.3-.1.5v.4c.1 0 .2 0 .2-.1.1 0 .1 0 .2-.1.4-.2.7-.3 1-.3.2-.1.6-.1 1-.3.1 0 .2 0 .3-.1.1-.1.3-.1.5-.2s.3-.1.4-.2c.1-.1.2-.1.3-.1h.2c.2 0 .5 0 .7-.2.2-.1.4-.2.6-.2.2 0 .3-.1.5-.1.1-.1.3-.1.4 0h.3c.1 0 .2-.1.4 0h.4c.1.1.1.1.2 0s.1-.1.2 0c.1 0 .1.1.2.2l.3.3c0 .1 0 .2-.1.2s-.2.1-.2.1c0 .1.1.2.3.3.1.1.2.3.2.4-.1 0-.1 0-.1.1s-.1.1-.2.2v.2c.1.1 0 .1-.1.2-.1 0-.1.1-.3.1-.1.1-.2.2-.1.2-.1.1-.2.2-.4.2s-.3.1-.5.1c-.1 0-.3.1-.6.1s-.4.1-.5.2l-.1.1h-.2c-.1 0-.3.1-.6.2s-.6.2-.9.2c-.3.1-.6.2-.8.2-.3.1-.4.1-.5.2-.2.1-.5.2-.9.3s-.8.2-1.4.5c-.3.1-.5.1-.6.1-.1 0-.2.1-.3.4 0 .2-.2.5-.3 1.1-.2.6-.4 1.1-.6 1.8-.2.6-.4 1.2-.6 1.7-.2.5-.3.9-.4 1.1-.1.2-.1.4-.1.5v.1s0 .1-.1.1c0 .1-.1.2-.2.4-.2.9-.4 1.6-.5 2.1-.1.5-.2.9-.3 1.2-.1.3-.1.6-.2.9 0 .3-.1.8-.2 1.4-.1.7-.2 1.2-.3 1.7-.1.5-.1 1.1-.1 1.7 0 .2-.1.4 0 .5 0 .1.1.3.1.6.1.3.1.5.2.6.1.1.2.1.4.1.1 0 .3-.1.4-.1.1-.1.3-.1.4-.2.7-.7 1.3-1.4 1.8-2.1.5-.7.9-1.4 1.3-2.2.4-.7.8-1.5 1.2-2.4.4-.8.9-1.8 1.5-2.8 0-.1 0-.1.1-.2s.1-.1.1-.2c.1-.2.2-.4.2-.6.1-.2.2-.3.5-.5.1 0 .1 0 .1-.1l.2-.2c.1 0 .1 0 .1.1 0 0 0 .1.1.1l.1-.1v-.1s0-.1.1-.1c0 0 .1 0 .2.1v.2c0 .1 0 .1.1.1s0 0 0 .1c-.1.1-.1.1 0 0h.1c-.1.1-.1.2 0 .4.2 0 .3.1.3.3 0 .1 0 .2.1.2s.1.1.1.2v.5l.1.1v.4c0 .1-.1.3-.2.4 0 .1-.1.1-.1.2s0 .1-.1.2c0 .2-.1.4-.3.8l-.6 1.2-.6 1.2c-.2.4-.4.6-.4.8-.2.5-.6 1.2-1 2-.5.8-1 1.7-1.7 2.5-.6.9-1.3 1.6-2.1 2.3-.7.7-1.5 1.2-2.3 1.4-.2.1-.5.1-.8.2-.3.1-.5 0-.7-.1-.1-.1-.2-.1-.4-.1-.4-.1-.7-.4-1-.7-.3-.3-.4-.6-.6-1-.2-.5-.3-1-.3-1.4 0-.4-.1-.8-.1-1.4-.1-.7-.1-1.6 0-2.6s.1-1.9.2-2.6c.1-.4.1-.6.1-.8 0-.2 0-.4.1-.5 0-.1.1-.3.1-.5s.1-.4.2-.8.2-.7.2-.8c0-.1.1-.2.1-.2 0-.1.1-.2.1-.4s.2-.6.3-1.3l1.8-5.7v-.1c.3.9.3.8.3.7zm9.2 5.5s0-.1 0 0c0-.1 0 0 0 0z"/><path d="M151.4 76.8c-.2.6-.3 1.2-.3 1.9-.1.7-.1 1.3 0 1.8.1.3.2.7.3 1 .1.2.3.3.5.3h.7c.2 0 .4-.1.6-.1.3 0 .5-.1.7-.2 1-.6 2-1.4 2.9-2.3.4-.4.9-1 1.3-1.6.4-.6.8-1.2 1.2-1.9.4-.6.8-1.3 1.1-1.9.3-.6.6-1.1.9-1.6.1-.1.1-.2.2-.4l.3-.6.3-.6c.1-.2.2-.4.2-.5.1-.1.1-.3.2-.3.1-.1.2-.1.3-.1v-.1-.2c0-.1 0-.1.1-.2h.4s.1 0 .1.1c0-.1.1-.1.3-.2.2-.1.3 0 .4.2l.1.1.1.1s.1.1.1.2v.2h.2l-.5 1.8h.1c.1 0 .1 0 .1.1-.1.5-.3 1-.5 1.4-.5 1.1-1.1 2.3-1.9 3.6-.7 1.3-1.6 2.5-2.5 3.6-.9 1.1-1.9 2.1-3 2.9-1.1.8-2.2 1.4-3.3 1.6-.2 0-.5.1-1 .1-.5.1-.8.1-1 .1-.3 0-.6 0-1-.1-.3-.1-.6-.2-.9-.4-.2-.1-.5-.3-.7-.5-.2-.2-.4-.5-.6-.7-.1-.1-.1-.2-.2-.3 0-.1-.1-.2-.1-.3-.2-.3-.3-.6-.4-.9-.1-.3-.1-.6-.2-1v-.7-.6-.6-.5-.5l.2-2c.3-1.2.6-2.3 1-3.5.4-1.1.9-2.2 1.5-3.2s1.2-1.9 2-2.7c.8-.8 1.6-1.4 2.7-1.8.3-.1.6-.1 1-.1s.7.1.9.2c.2 0 .4.2.6.3.5.4.8.8.9 1.4.1.3.2.6.2.9v1c-.1.1-.1.2-.1.3-.3 1.6-.7 2.9-1.2 4.2-.5 1.2-1.4 2.4-2.5 3.5-.2.2-.5.4-.8.5-.3.1-.7.2-1.2.2h-.1-.2l-.1-.1c-.2 0-.3-.1-.4-.2.4-.1.2-.1 0-.1zm.6-2.8c0 .1.1.2.1.2s.1 0 .1.1H152.5c.7-.4 1.3-1 1.7-1.8.4-.8.7-1.5 1-2.3.1-.2.1-.4.2-.6 0-.2.1-.3.1-.5v-.3c0-.1-.1-.2-.1-.3l-.2-.2c-.1 0-.2 0-.4.1l-.6.6c-.1.1-.3.3-.4.6-.4.5-.6.9-.7 1.2-.1.3-.2.5-.3.6-.1.2-.1.3-.2.5l-.4.8c-.1.1-.1.2-.1.3s0 .3-.1.3v.5c0-.1 0 0 0 0v.2zm11.6-4.6c.1.1.1.1 0 0z"/></svg>