
        <svg xmlns="http://www.w3.org/2000/svg" viewBox="0 0 60 60">
            <circle class="cls-2" cx="30" cy="30" r="29" fill="#4267b2" />
            <path d="M58.83 33.09L37.95 12.15 29 18.91l.69 13.19L25.45 48l10.32 10.42a29 29 0 0023.06-25.33z"
                style="mix-blend-mode:multiply" opacity=".5" fill="#3c5a99" />
            <path
                d="M25.19 30.33v17.76a.46.46 0 00.46.46h6.6a.46.46 0 00.46-.46V30h4.79a.46.46 0 00.46-.42l.46-5.44a.46.46 0 00-.46-.5h-5.24v-3.82a1.64 1.64 0 011.64-1.64H38a.46.46 0 00.46-.46v-5.44a.46.46 0 00-.46-.46h-6.19a6.62 6.62 0 00-6.62 6.62v5.24H21.9a.46.46 0 00-.46.46v5.44a.46.46 0 00.46.46h3.3z"
                fill="#fff" fill-rule="evenodd" />
        </svg>