
        <svg xmlns="http://www.w3.org/2000/svg" viewBox="0 0 60 60">
            <path fill="#3cf" d="M28.79 41.11l5.38-14.75 13.19-7.29L59 30.71V30a29 29 0 10-29 29h.19L13 41.84z" />
            <path fill="#3cf" d="M59 30.71L47.35 19.08l-13.19 7.28-5.37 14.75-15.79.73L30.19 59A29 29 0 0059 30.71z" />
            <path d="M59 30.71L47.35 19.08l-13.19 7.28-5.37 14.75-15.79.73L30.19 59A29 29 0 0059 30.71z"
                style="mix-blend-mode:multiply" opacity=".5" fill="#3cf" />
            <path
                d="M47.61 18.82a14.67 14.67 0 01-3.6 1c.58-.1 1.44-1.15 1.78-1.58A6.64 6.64 0 0047 16.08c0-.06.06-.14 0-.19a.2.2 0 00-.19 0 18.44 18.44 0 01-4.29 1.64.29.29 0 01-.3-.08 3.46 3.46 0 00-.37-.38 7.59 7.59 0 00-2.08-1.27 7.23 7.23 0 00-3.18-.51 7.61 7.61 0 00-3 .85 7.79 7.79 0 00-2.44 2 7.48 7.48 0 00-1.46 2.92 7.9 7.9 0 00-.08 3.08c0 .17 0 .2-.15.17-5.89-.88-10.77-3-14.73-7.5-.17-.2-.27-.2-.41 0-1.73 2.6-.89 6.77 1.27 8.82.29.27.59.55.91.8a7.51 7.51 0 01-2.84-.8c-.17-.11-.26 0-.27.15a4.49 4.49 0 000 .84 7.55 7.55 0 004.65 6A4.4 4.4 0 0019 33a8.42 8.42 0 01-2.79.09c-.2 0-.28.06-.2.26 1.23 3.34 3.87 4.34 5.86 4.9.27 0 .53 0 .8.11-.66 1-2.94 1.75-4 2.12a14.32 14.32 0 01-6.07.78h-.48c-.08 0 0 .13.09.22.41.27.84.52 1.27.75a20.06 20.06 0 004.06 1.62c7.3 2 15.52.53 21-4.91 4.3-4.27 5.81-10.17 5.81-16.07 0-.23.27-.36.44-.48a14.1 14.1 0 002.84-3 .84.84 0 00.17-.57c-.07-.1-.05-.07-.19 0z"
                fill="#fff" />
        </svg>