
        <svg xmlns="http://www.w3.org/2000/svg" viewBox="0 0 60 60">
            <path fill="#f74440" d="M34.43 37.65l10.33-18.41 14 14A29 29 0 1030 59c.93 0 1.85 0 2.75-.13l-18-18.09z" />
            <path fill="#f74440" d="M58.81 33.29l-14-14-10.38 18.36-19.63 3.12 18 18.09a29 29 0 0026.01-25.57z" />
            <path d="M58.81 33.29l-14-14-10.38 18.36-19.63 3.12 18 18.09a29 29 0 0026.01-25.57z"
                style="mix-blend-mode:multiply" fill="#bc0808" opacity=".5" />
            <path
                d="M48.6 25.51a7.87 7.87 0 00-7.87-7.87H20.3a7.87 7.87 0 00-7.87 7.87v9.66A7.87 7.87 0 0020.3 43h20.43a7.87 7.87 0 007.87-7.87zm-13.13 5.11l-8.13 4.46c-.35.19-.67-.06-.67-.47v-9.16c0-.41.32-.66.68-.46l8.19 4.7a.53.53 0 01-.07.93z"
                fill="#fff" />
        </svg>